<svg width="20" height="9" viewBox="0 0 20 9" fill="none" xmlns="http://www.w3.org/2000/svg">
<g clip-path="url(#clip0_25_296)">
<path d="M-0.00688174 0.641759C-0.00391962 0.51719 0.0248928 0.395747 0.0768871 0.289179C0.151899 0.14874 0.268476 0.0505354 0.401253 0.0160376C0.534029 -0.0184601 0.672386 0.0135403 0.786398 0.104867L9.99635 7.60609L19.1998 0.104868C19.3149 0.0131168 19.4541 -0.0190078 19.588 0.0154515C19.7218 0.0499108 19.8394 0.148194 19.9157 0.28918C19.9892 0.430852 20.0149 0.602776 19.9871 0.767766C19.9594 0.932755 19.8803 1.07742 19.7673 1.17063L10.2801 8.89647C10.1965 8.96745 10.0976 9.00546 9.99635 9.00546C9.89509 9.00546 9.79622 8.96745 9.71261 8.89647L0.22537 1.17063C0.154354 1.11337 0.0958519 1.03503 0.055315 0.942685C0.0147762 0.850335 -0.00658992 0.746953 -0.00688174 0.641759Z" fill="white"/>
</g>
<defs>
<clipPath id="clip0_25_296">
<rect width="9" height="20" fill="white" transform="translate(20) rotate(90)"/>
</clipPath>
</defs>
</svg>
