<svg width="34" height="27" viewBox="0 0 34 27" fill="none" xmlns="http://www.w3.org/2000/svg">
<path d="M33.5416 7.62912H11.2073L9.57185 0.331938C9.55177 0.238121 9.49605 0.15362 9.41431 0.093008C9.33258 0.0323959 9.22997 -0.000522177 9.12424 6.2647e-06H0.459083C0.338315 -2.26274e-06 0.222407 0.0430329 0.136475 0.119725C0.050544 0.196416 0.0015096 0.300607 0 0.409746C0 0.519785 0.048367 0.625312 0.134461 0.703122C0.220556 0.780932 0.337327 0.824676 0.459083 0.824676H8.75124L12.7682 18.8056V26.5851C12.7674 26.6393 12.7786 26.6932 12.8011 26.7435C12.8235 26.7938 12.8568 26.8396 12.8989 26.8782C12.9411 26.9168 12.9913 26.9474 13.0467 26.9683C13.1021 26.9893 13.1615 27 13.2215 27H25.1978C25.3196 27 25.4364 26.9563 25.5225 26.8784C25.6085 26.8006 25.6569 26.6951 25.6569 26.5851C25.6569 26.5308 25.645 26.4772 25.6219 26.4271C25.5987 26.3771 25.5648 26.3316 25.5221 26.2935C25.4794 26.2554 25.4287 26.2254 25.3731 26.2051C25.3174 26.1848 25.2578 26.1747 25.1978 26.1754H13.6978V19.1635H26.1447C26.2214 19.1631 26.2968 19.1453 26.364 19.1118C26.4311 19.0782 26.4879 19.0301 26.5292 18.9716L33.9376 8.24626C33.9785 8.18336 34 8.11174 34 8.0388C34 7.96586 33.9785 7.89429 33.9376 7.83139C33.8963 7.76985 33.8382 7.71892 33.7689 7.6835C33.6995 7.64809 33.6213 7.62935 33.5416 7.62912ZM11.391 8.45373H18.478V11.0469H11.9763L11.391 8.45373ZM12.9059 15.1959L12.1542 11.83H18.4666V15.1285H13.124C13.0425 15.139 12.9665 15.1716 12.9059 15.2219V15.1959ZM13.606 18.3077L13.0723 15.9272H13.1355H18.478V18.2195C18.4753 18.2454 18.4753 18.2715 18.478 18.2973L13.606 18.3077ZM25.5536 18.3077H19.3732C19.3759 18.2819 19.3759 18.2558 19.3732 18.2299V15.9376H25.5364L25.5536 18.3077ZM25.5536 15.1129H19.3905V11.8145H25.5536V15.1129ZM25.5536 10.9639H19.3905V8.37073H25.5536V10.9639ZM26.466 17.4416V15.8857H27.5219L26.466 17.4416ZM28.09 15.087H26.466V11.7886H30.3682L28.09 15.087ZM30.9593 10.9743H30.9019H26.4947V8.38111H32.7497L30.9593 10.9743Z" fill="white"/>
</svg>
