<svg width="32" height="31" viewBox="0 0 32 31" fill="none" xmlns="http://www.w3.org/2000/svg">
<g clip-path="url(#clip0_25_137)">
<path d="M28.9212 11.9988C30.4848 13.6145 30.3836 15.5457 28.8844 16.5664C24.105 19.8153 19.3042 23.0366 14.477 26.2028C13.9959 26.5422 13.4324 26.7456 12.8458 26.7917C12.2592 26.8377 11.6712 26.7247 11.1438 26.4645C10.6164 26.2043 10.1692 25.8065 9.8493 25.3132C9.52936 24.8198 9.34855 24.2491 9.32593 23.6613C9.04118 19.5123 8.80878 15.3396 8.76463 11.189C8.73062 6.60392 13.2225 3.22466 17.3787 4.9441C21.7006 6.72903 25.2913 9.87207 28.9212 11.9988ZM16.607 7.40056C16.4314 7.11348 16.1542 6.85486 16.3004 6.46077C16.6182 5.61557 16.2894 5.337 15.4368 5.3181C14.5841 5.2992 14.2725 5.61687 14.5481 6.45229C14.6833 6.85902 14.3243 7.07207 14.1608 7.36474C13.5681 7.00821 14.2827 5.49948 12.8354 5.88948C11.2863 6.31341 12.2073 7.29295 12.4819 8.18303C11.6528 8.06608 11.1088 6.94212 10.3232 8.12167C9.41414 9.49065 11.1675 9.27224 11.2624 9.95991C10.9187 10.7172 9.6631 9.31961 9.47555 10.8612C9.28104 12.4903 10.7401 11.7341 11.1885 12.2141C11.09 13.0245 9.72864 12.3743 10.0378 13.6449C10.4996 15.4237 11.5674 14.0463 12.29 14.1533C12.4715 14.8971 10.9921 15.2373 12.1419 16.1084C13.4078 17.0661 13.5299 15.6737 14.2553 15.1384C14.6119 15.8685 13.7037 17.027 15.2831 17.0737C16.9525 17.1301 15.7387 15.6867 16.4555 15.3316C17.1176 15.4596 16.7742 17.007 18.1357 16.3614C19.5772 15.6761 18.1881 14.8915 18.3281 14.213C19.0749 14.0279 19.4378 15.5099 20.2934 14.3916C21.2637 13.1192 19.8034 12.9841 19.3051 12.2245C19.7296 12.1847 19.9663 12.09 20.1457 12.153C21.1291 12.5184 21.1803 11.9205 21.1979 11.2045C21.2156 10.4886 21.0149 10.0753 20.2038 10.3441C20.0387 10.3991 19.8616 10.4065 19.6927 10.3657C19.5237 10.3248 19.3697 10.2373 19.2481 10.1131C19.4465 9.38357 21.192 9.9469 20.5479 8.43589C19.9355 6.99647 19.1138 8.21099 18.5004 8.26694C18.0351 7.49688 19.7087 7.15145 18.5967 6.30832C16.9097 5.03239 17.1922 6.90949 16.607 7.40056ZM21.3386 8.07929C22.5129 11.6845 21.9797 14.5822 19.0647 16.5483C15.6962 18.8244 12.5761 17.9032 9.66942 14.8884L9.98662 21.1456C11.4405 20.0504 12.7867 19.667 14.2172 20.4277C15.6477 21.1884 16.0268 22.5257 16.1418 24.1241C19.6894 21.766 23.0743 19.4956 26.5116 17.2015C24.5606 15.5359 23.8665 13.912 25.0375 12.8971C27.1379 11.0849 25.4198 10.6778 24.2841 9.93822C23.4244 9.37244 22.5451 8.83096 21.3386 8.07929ZM14.4077 25.2914C14.6581 25.0534 14.8589 24.768 14.9983 24.452C15.1377 24.1359 15.213 23.7954 15.2199 23.4502C15.2268 23.105 15.1651 22.762 15.0385 22.4409C14.9118 22.1199 14.7226 21.8273 14.4819 21.5801C14.016 21.1015 13.3805 20.8254 12.7123 20.8113C12.0442 20.7972 11.3969 21.0462 10.91 21.5047C10.6582 21.7412 10.4555 22.025 10.3133 22.3397C10.1711 22.6545 10.0922 22.9942 10.0813 23.3392C10.0703 23.6843 10.1275 24.0281 10.2494 24.3509C10.3714 24.6738 10.5558 24.9693 10.7921 25.2208C11.2793 25.6764 11.9181 25.9357 12.5855 25.9488C13.2529 25.9618 13.9019 25.7277 14.4077 25.2914ZM25.9496 15.6863C26.925 16.5218 27.9322 16.4557 28.7529 15.6239C28.9496 15.4482 29.1057 15.2317 29.2103 14.9897C29.3149 14.7476 29.3654 14.4857 29.3585 14.2222C29.3515 13.9587 29.2872 13.7 29.1699 13.4641C29.0527 13.2281 28.8854 13.0206 28.6797 12.8561C27.7943 12.0302 26.7388 12.0464 25.9091 12.9245C25.0795 13.8027 25.1611 14.7881 25.9496 15.6863Z" fill="#949494"/>
<path d="M14.1476 7.30717L16.6102 7.34325C17.7491 7.99748 18.6802 8.95963 19.2968 10.1194C19.0459 11.0449 19.3428 12.0693 18.7923 12.9354C17.8796 14.3563 16.6432 15.198 14.9027 14.9792C14.1201 14.9059 13.3813 14.5858 12.7931 14.065C12.2049 13.5441 11.7977 12.8496 11.6304 12.0817C11.4296 11.2953 11.4854 10.4649 11.7899 9.71176C12.0944 8.95867 12.6315 8.32231 13.3229 7.89561C13.5941 7.70305 13.8682 7.50234 14.1476 7.30717ZM17.6095 9.02114C17.0293 8.44229 16.2484 8.10888 15.4285 8.08985C14.6085 8.07082 13.8123 8.36764 13.2043 8.91892C12.6117 9.48384 12.2668 10.2603 12.2452 11.0783C12.2235 11.8962 12.527 12.689 13.089 13.283C13.3654 13.5759 13.6971 13.8112 14.065 13.9752C14.433 14.1393 14.8298 14.2288 15.2327 14.2387C15.6356 14.2487 16.0366 14.1787 16.4125 14.033C16.7884 13.8872 17.1319 13.6685 17.4231 13.3895C18.0214 12.8309 18.3763 12.0597 18.4112 11.2424C18.4461 10.4251 18.1581 9.62726 17.6095 9.02114Z" fill="#949494"/>
<path d="M16.4557 12.4168C15.6418 13.0108 14.8265 13.0472 14.1258 12.2953C13.9651 12.1459 13.8381 11.9639 13.7532 11.7615C13.6684 11.5592 13.6276 11.341 13.6337 11.1215C13.6398 10.902 13.6925 10.6863 13.7884 10.4886C13.8843 10.291 14.0212 10.116 14.1899 9.97531C14.3425 9.79512 14.5342 9.65218 14.7504 9.55744C14.9666 9.4627 15.2016 9.41867 15.4373 9.42872C15.673 9.43876 15.9033 9.50263 16.1104 9.61541C16.3175 9.72819 16.496 9.88691 16.6322 10.0794C17.2729 10.8249 17.1708 11.6817 16.4557 12.4168ZM14.7081 11.8124C15.1241 12.1087 15.5852 12.1625 15.9411 11.8127C16.041 11.7318 16.1206 11.6286 16.1733 11.5114C16.2261 11.3942 16.2505 11.2662 16.2447 11.1379C16.2389 11.0095 16.203 10.8844 16.1399 10.7726C16.0768 10.6607 15.9883 10.5653 15.8815 10.494C15.8013 10.4126 15.704 10.35 15.5965 10.3107C15.4891 10.2714 15.3743 10.2565 15.2604 10.267C15.1464 10.2775 15.0362 10.3132 14.9376 10.3714C14.8391 10.4296 14.7546 10.509 14.6904 10.6038C14.6117 10.6841 14.5497 10.7792 14.5079 10.8836C14.4662 10.9881 14.4455 11.0997 14.4471 11.2121C14.4488 11.3245 14.4727 11.4354 14.5175 11.5384C14.5623 11.6415 14.6271 11.7346 14.7081 11.8124Z" fill="#949494"/>
</g>
<defs>
<clipPath id="clip0_25_137">
<rect width="20" height="23" fill="white" transform="translate(17.3096) rotate(45.9392)"/>
</clipPath>
</defs>
</svg>
