<svg width="64" height="34" viewBox="0 0 64 34" fill="none" xmlns="http://www.w3.org/2000/svg">
<g clip-path="url(#clip0_25_3415)">
<path d="M25.5831 33.9671C17.772 33.9671 9.95028 33.9671 2.1711 33.9671C0.628038 33.9671 0.0427367 33.6603 0.0427367 31.8962C-0.212667 14.2005 12.8768 0.197233 30.0527 0.0438327C40.6945 -0.0657387 51.3364 0.0438312 61.9782 -0.0219116C63.6383 -0.0219116 64.1066 0.482117 64.0427 2.16952C63.947 7.29746 64.0427 12.4364 64.0427 17.5095C63.915 27.086 57.4129 33.748 48.08 33.9452H25.5831V33.9671ZM5.74676 31.4908C5.86382 31.688 5.90639 31.7976 5.93831 31.7976C20.4006 31.7976 34.8735 31.951 49.3464 31.7319C52.075 31.6416 54.7037 30.6533 56.8469 28.9121C58.99 27.1708 60.5348 24.7682 61.2546 22.0567C61.4887 21.1802 62.4997 19.8653 61.0737 19.186C59.6477 18.5066 56.6041 19.2736 56.1784 20.5118C54.199 26.1437 50.1445 28.6529 44.4724 28.7296C41.067 28.7296 37.651 28.7296 34.2456 28.7296C33.4155 28.7296 31.947 29.398 32.0321 27.6339C32.1172 25.8698 33.5539 26.7135 34.3627 26.6806C38.513 26.4725 42.6739 26.8231 46.8349 26.4286C50.3467 26.089 54.8163 21.7718 54.1245 18.2984C51.2512 22.6155 47.4415 24.9384 42.2695 24.281C37.0976 23.6236 34.0434 20.205 31.9576 14.6826C32.0753 16.9347 31.7866 19.1897 31.1063 21.3336C30.4039 23.2839 28.9779 24.6755 27.7966 26.2862C28.5629 26.9436 30.2549 26.1657 29.925 27.9298C29.627 29.3542 28.4352 28.7187 27.6583 28.7406C23.4016 28.8392 19.1448 28.7406 14.8881 28.9049C11.6842 29.0029 8.54961 29.8896 5.74676 31.4908ZM53.5712 12.3925C53.5951 11.0634 53.3629 9.74249 52.8881 8.50628C52.4132 7.27007 51.705 6.14304 50.8045 5.19037C49.904 4.23769 48.829 3.47826 47.6416 2.95599C46.4543 2.43372 45.1782 2.15896 43.8871 2.14761C41.3231 2.17472 38.8687 3.22211 37.0378 5.07049C35.2069 6.91886 34.1415 9.42488 34.0647 12.0638C34.0386 14.7018 35.0201 17.2447 36.7977 19.1446C38.5753 21.0445 41.0066 22.1494 43.5678 22.2211C44.8583 22.2802 46.147 22.0699 47.3564 21.603C48.5659 21.136 49.6711 20.4219 50.6056 19.5037C51.5401 18.5856 52.2846 17.4823 52.7942 16.2602C53.3039 15.0381 53.5681 13.7225 53.5712 12.3925ZM11.4614 17.0603C11.4698 19.5684 12.4412 21.9713 14.1637 23.7449C15.8862 25.5184 18.22 26.5186 20.656 26.5272C23.1086 26.5127 25.4552 25.4956 27.1795 23.6996C28.9038 21.9037 29.8646 19.476 29.8505 16.9507C29.8364 14.4254 28.8486 12.0093 27.1043 10.2338C25.36 8.45845 23.0022 7.4692 20.5496 7.48373C18.1119 7.51551 15.7859 8.54165 14.0822 10.337C12.3784 12.1324 11.4359 14.5503 11.4614 17.0603ZM2.10725 30.8224C5.83761 28.6831 9.91061 27.2506 14.1325 26.593C8.87546 21.7499 8.20502 16.3919 10.94 10.2888C5.12953 15.8002 2.34137 22.5279 2.10725 30.8224ZM17.3996 5.54432C24.4019 4.4486 29.1801 7.2865 31.9257 14.0032C31.7957 11.7694 32.1812 9.53558 33.0505 7.48453C33.9198 5.43348 35.2483 3.62342 36.9273 2.20239C29.8612 1.9942 23.3484 1.8408 17.3996 5.54432ZM59.2752 8.5137C60.0414 8.10829 61.7015 9.26974 61.7973 7.54947C61.9037 5.51144 60.1159 6.5962 59.1581 6.37706C58.5872 6.24308 57.9917 6.26957 57.4341 6.45376C57.2707 6.50028 57.1222 6.59065 57.0038 6.71562C56.8854 6.84059 56.8013 6.99569 56.7602 7.16507C56.7191 7.33445 56.7224 7.51203 56.7697 7.67967C56.8171 7.84731 56.9068 7.999 57.0298 8.11924C57.5725 8.77667 58.4664 8.39317 59.2752 8.5137ZM59.3923 16.9945C59.8818 16.9945 60.3819 16.9945 60.8821 16.9945C61.5951 16.9945 62.0421 16.6549 61.8612 15.8988C61.3716 13.9484 59.8179 15.1647 58.7857 14.9565C58.1365 14.825 57.0191 14.4086 56.8063 15.7454C56.6679 16.5782 57.0404 17.0274 57.8705 16.9836C58.4238 16.9726 58.924 16.9945 59.4242 16.9945H59.3923ZM59.2752 10.6065C58.4558 11.0119 56.934 9.99291 56.8914 11.6036C56.8914 13.6088 58.5622 12.6993 59.5093 12.6993C60.4564 12.6993 62.0101 13.4554 61.8505 11.6036C61.6909 9.75186 60.1053 11.0996 59.2752 10.6065ZM59.4242 4.31712C60.233 3.81309 61.925 5.07316 61.8505 3.13375C61.776 1.19433 60.1904 2.20239 59.3178 2.19143C58.4451 2.18047 56.8169 1.34773 56.8808 3.28714C56.9446 5.22656 58.5835 3.82405 59.4242 4.31712ZM54.4119 6.77151C54.9014 1.75315 54.5609 1.40252 51.1342 2.61876C52.4397 3.80936 53.547 5.2122 54.4119 6.77151Z" fill="#969696"/>
<path d="M48.4524 12.2829C48.4032 13.5359 47.8869 14.7213 47.011 15.5926C46.135 16.4639 44.9667 16.9542 43.7487 16.9616C42.5292 16.9047 41.3802 16.3574 40.5484 15.4375C39.7166 14.5175 39.2685 13.2983 39.3004 12.0419C39.3548 10.8324 39.8573 9.69033 40.7045 8.85064C41.5517 8.01094 42.6792 7.53744 43.8551 7.52753C45.0729 7.54465 46.2358 8.05185 47.095 8.94058C47.9542 9.82932 48.4414 11.029 48.4524 12.2829ZM43.7274 9.68608C43.0893 9.74701 42.4985 10.0589 42.0781 10.5569C41.6576 11.0549 41.4398 11.7006 41.4699 12.3598C41.5001 13.0189 41.7759 13.6407 42.24 14.0958C42.7041 14.5508 43.3207 14.8042 43.9615 14.8031C44.2911 14.8135 44.6191 14.7521 44.9241 14.6229C45.229 14.4938 45.504 14.2997 45.7311 14.0535C45.9581 13.8073 46.1321 13.5145 46.2416 13.1943C46.3511 12.8741 46.3937 12.5336 46.3666 12.1953C46.3779 11.8445 46.3158 11.4953 46.1843 11.1715C46.0528 10.8477 45.8551 10.5569 45.6047 10.3188C45.3543 10.0807 45.057 9.90095 44.7331 9.79177C44.4091 9.68259 44.0661 9.64654 43.7274 9.68608Z" fill="#969696"/>
<path d="M28.6157 14.9894C28.8073 15.7016 28.4561 15.8659 28.041 16.0851C26.2851 16.8302 26.6363 17.4876 28.1475 18.0355C28.8179 18.2875 28.6902 18.7477 28.5944 19.2627C28.4986 19.7776 28.2432 20.0735 27.6047 20.0844C25.1678 20.1392 23.9865 21.7171 23.5502 23.9742C23.4331 24.6097 23.4438 25.1357 22.6882 25.2453C22.5716 25.2834 22.4485 25.2965 22.3268 25.2837C22.205 25.2709 22.0871 25.2325 21.9804 25.1708C21.8736 25.1092 21.7803 25.0257 21.7062 24.9254C21.6321 24.8251 21.5788 24.7102 21.5495 24.5878C20.8365 22.4621 20.2406 23.2839 19.7085 24.6864C19.4744 25.311 19.0487 25.3548 18.5166 25.2453C17.7823 25.0919 17.7398 24.6755 17.7717 23.9523C17.8462 22.3964 15.5369 20.0077 14.0151 20.0516C13.3234 20.0516 12.9509 19.9968 12.6955 19.2955C12.3763 18.3751 12.8764 18.1998 13.5788 17.8821C15.0048 17.2904 14.7281 16.6001 13.4724 16.1508C12.8445 15.9317 12.4082 15.7016 12.6636 14.9236C12.8232 14.4415 12.9616 14.0251 13.6426 13.9813C16.1967 13.8389 17.6333 12.4692 17.7078 9.77377C17.6896 9.56252 17.7514 9.3522 17.8803 9.18679C18.0093 9.02138 18.1953 8.91369 18.3995 8.88624C18.8891 8.75476 19.3999 8.65614 19.6553 9.29166C20.2406 10.7818 20.8365 11.7022 21.5921 9.37932C21.8049 8.7438 22.3051 8.76572 22.8159 8.86433C23.3267 8.96294 23.4757 9.41219 23.5502 9.96004C23.704 11.0131 24.2004 11.9811 24.9583 12.7057C25.7162 13.4303 26.6905 13.8684 27.7218 13.9484C28.6051 14.0251 28.488 14.6278 28.6157 14.9894ZM24.6889 17.0822C24.7205 15.9996 24.3358 14.948 23.6184 14.156C22.901 13.3639 21.9089 12.8956 20.8578 12.8527C20.3131 12.8154 19.7667 12.8924 19.2517 13.0789C18.7367 13.2654 18.2638 13.5577 17.8618 13.9379C17.4597 14.3181 17.1368 14.7785 16.9126 15.291C16.6884 15.8035 16.5676 16.3575 16.5575 16.9195C16.5474 17.4815 16.6483 18.0398 16.8539 18.5605C17.0595 19.0812 17.3657 19.5535 17.7538 19.9488C18.1419 20.3441 18.604 20.6541 19.1119 20.8601C19.6199 21.0661 20.1631 21.1638 20.7088 21.1473C21.7589 21.1473 22.7664 20.7201 23.5119 19.9587C24.2574 19.1972 24.6804 18.1633 24.6889 17.0822Z" fill="#969696"/>
</g>
<defs>
<clipPath id="clip0_25_3415">
<rect width="64" height="34" fill="white"/>
</clipPath>
</defs>
</svg>
