<svg width="56" height="55" viewBox="0 0 56 55" fill="none" xmlns="http://www.w3.org/2000/svg">
<g clip-path="url(#clip0_25_3441)">
<path d="M28.2691 0C35.6624 0.114322 42.7136 3.07864 47.9014 8.2534C53.0893 13.4282 55.9979 20.3986 55.9998 27.6608C55.8942 42.8239 42.8208 55.3734 27.4876 54.9896C20.1848 54.722 13.278 51.6604 8.24263 46.4587C3.20727 41.257 0.442554 34.3276 0.539065 27.1508C0.635577 19.974 3.58566 13.1188 8.75915 8.04954C13.9326 2.98026 20.9193 0.0988204 28.2268 0.0207435L28.2691 0ZM28.174 53.185C33.3435 53.1461 38.3856 51.606 42.6658 48.7587C46.946 45.9114 50.2729 41.8841 52.2276 37.1837C54.1823 32.4834 54.6776 27.3202 53.6509 22.344C52.6243 17.3679 50.1217 12.8012 46.4582 9.21898C42.7947 5.63673 38.134 3.19899 33.0629 2.21264C27.9918 1.2263 22.7369 1.73544 17.9598 3.67597C13.1827 5.6165 9.09686 8.90168 6.21667 13.1179C3.33649 17.3342 1.79068 22.2931 1.77386 27.3704C1.7426 30.7786 2.40498 34.1586 3.7221 37.3119C5.03922 40.4652 6.98453 43.3283 9.44382 45.733C11.9031 48.1378 14.8268 50.0357 18.0432 51.3154C21.2597 52.5951 24.704 53.2307 28.174 53.185Z" fill="#969696"/>
<path d="M28.1214 51.8471C23.2017 51.8696 18.3862 50.4561 14.2859 47.786C10.1857 45.1159 6.98558 41.3095 5.09181 36.85C3.19804 32.3905 2.69598 27.479 3.64935 22.7387C4.60273 17.9985 6.96855 13.6433 10.4465 10.226C13.9245 6.80864 18.3579 4.4832 23.1839 3.54482C28.0099 2.60645 33.011 3.09744 37.5524 4.95549C42.0938 6.81354 45.9707 9.95487 48.6911 13.9808C51.4115 18.0067 52.8528 22.7356 52.8319 27.5674C52.766 33.9849 50.1417 40.1214 45.5221 44.6605C40.9025 49.1995 34.6555 51.7795 28.1214 51.8471ZM30.6663 13.1925C30.6663 15.3602 30.5924 17.5382 30.6663 19.7162C30.7825 22.3194 32.0708 23.4188 34.7848 22.5269C38.7237 21.2304 42.6731 19.9029 46.6648 18.762C48.7135 18.1708 48.6712 17.31 47.7208 15.775C45.4423 12.1581 42.1945 9.22663 38.3329 7.30151C31.3527 3.80632 30.6241 4.19006 30.6347 11.6575L30.6663 13.1925ZM25.3018 13.7007C25.3018 11.782 25.1751 9.85289 25.3018 7.94454C25.513 5.35167 24.4781 4.83309 22.1338 5.56947C17.7256 6.78906 13.7646 9.22182 10.7184 12.5806C6.36764 17.4345 6.49436 17.8701 12.5136 19.768C13.5062 20.0896 14.5094 20.3488 15.4915 20.6911C26.0516 24.4041 25.3863 23.7403 25.3018 13.7007ZM26.8858 50.0009C30.328 50.1608 33.7647 49.5876 36.9601 48.3207C38.6181 47.6673 39.2622 47.0554 37.9422 45.3752C35.3128 42.046 32.8945 38.5612 30.339 35.1801C28.7972 33.1058 27.171 33.1576 25.6397 35.1801C24.3197 36.9225 22.9258 38.6234 21.7642 40.4592C20.3069 42.7616 16.5581 45.1886 17.7408 47.1799C19.2192 49.6898 23.3693 49.8246 26.6641 49.9594C27.0548 50.0424 27.4455 50.032 26.8858 50.032V50.0009ZM51.005 27.8267C51.0684 22.9832 51.0684 22.9728 46.3903 24.4559C43.2962 25.4412 40.2021 26.4162 37.1185 27.4533C33.5915 28.6357 33.1479 29.7869 35.2177 32.6391C37.467 35.7505 39.9275 38.7686 42.0606 41.9734C43.5179 44.1514 44.4578 43.5499 45.7567 41.9215C49.111 37.9595 50.9654 32.9793 51.005 27.8267ZM5.04763 28.0445C5.13448 33.2077 7.04153 38.1816 10.4438 42.1186C11.6582 43.5706 12.5558 44.1929 13.8864 42.1186C16.1251 38.8205 18.5962 35.6779 20.9616 32.4731C22.8836 29.8906 22.176 28.3245 19.1136 27.4118C16.0512 26.4991 12.9254 25.4412 9.8419 24.4559C4.98427 22.9417 4.87867 23.0247 5.01595 28.0341L5.04763 28.0445ZM32.8417 27.3911C32.4193 24.6945 31.0043 22.8899 28.0474 22.9106C25.0906 22.9313 23.4749 24.5493 23.3271 27.4015C23.2916 28.0398 23.3941 28.6783 23.6276 29.275C23.8612 29.8717 24.2207 30.4131 24.6825 30.8637C25.1442 31.3143 25.6978 31.6638 26.3069 31.8893C26.916 32.1149 27.5667 32.2113 28.2164 32.1723C31.0359 31.913 32.5249 30.2121 32.81 27.3807L32.8417 27.3911ZM24.8161 33.1784C24.5056 32.9587 24.173 32.7711 23.8234 32.6183C23.0103 32.3901 22.7041 33.0643 22.345 33.5517C19.8212 36.9328 17.3079 40.314 14.8262 43.7262C14.4144 44.2862 13.5696 44.9708 14.4989 45.6449C15.6922 46.5161 16.0301 45.2093 16.4947 44.6078C18.8919 41.4963 21.2362 38.2604 23.5911 35.0764C23.9607 34.5578 24.2775 34.0496 24.8161 33.1784ZM42.1662 45.3752C41.9403 44.92 41.6901 44.4769 41.4165 44.0477C38.7624 40.4384 36.0977 36.8326 33.4225 33.2302C33.0423 32.722 32.5777 32.1931 31.8491 32.7946C31.1204 33.3962 31.6062 33.9459 31.9547 34.4333C34.6017 38.0564 37.2699 41.6623 39.9592 45.2508C40.2443 45.6345 40.5822 46.1116 41.2158 45.8627C41.5424 45.7194 41.8598 45.5566 42.1662 45.3752ZM21.7114 25.0782C21.5741 24.8812 21.4791 24.5597 21.289 24.4974C16.6215 22.9486 11.9504 21.4309 7.2758 19.9444C7.08915 19.9306 6.90192 19.9623 6.73065 20.0364C6.55937 20.1106 6.40932 20.225 6.29372 20.3696C6.22012 20.4754 6.17317 20.5969 6.15674 20.724C6.14031 20.8511 6.15487 20.9803 6.19921 21.1008C6.24355 21.2213 6.31641 21.3298 6.41179 21.4172C6.50717 21.5047 6.62233 21.5686 6.7478 21.6038C11.4153 23.1077 16.0935 24.5908 20.7927 26.0117C21.4368 26.1984 21.648 25.6383 21.7114 25.0782ZM35.4395 26.1154C40.0331 24.6219 44.5845 23.1595 49.1676 21.666C49.6639 21.5001 50.0757 21.1267 49.854 20.5044C49.8143 20.3827 49.7493 20.2704 49.6631 20.1746C49.5769 20.0789 49.4714 20.0017 49.3532 19.9481C49.2351 19.8945 49.1069 19.8655 48.9768 19.8631C48.8467 19.8607 48.7174 19.8848 48.5973 19.934C44.0424 21.386 39.4945 22.8657 34.9537 24.373C34.8285 24.4067 34.7133 24.4694 34.6178 24.5558C34.5223 24.6423 34.4493 24.7499 34.4048 24.8697C34.3604 24.9895 34.3458 25.1181 34.3623 25.2446C34.3788 25.3711 34.4259 25.4919 34.4996 25.5968C34.6052 25.8872 35.0699 25.9702 35.4184 26.1465L35.4395 26.1154ZM27.1604 20.9296H28.9134C28.9134 16.0136 28.9134 11.0975 28.9134 6.18139C28.9134 5.68355 28.7655 5.14424 28.0897 5.14424C27.4138 5.14424 27.1921 5.62133 27.1921 6.10879C27.1498 11.0387 27.1322 15.9824 27.1393 20.94L27.1604 20.9296Z" fill="#969696"/>
</g>
<defs>
<clipPath id="clip0_25_3441">
<rect width="56" height="55" fill="white"/>
</clipPath>
</defs>
</svg>
