<svg width="30" height="26" viewBox="0 0 30 26" fill="none" xmlns="http://www.w3.org/2000/svg">
<g clip-path="url(#clip0_25_3186)">
<path d="M29.585 26.0051H0.409678C0.355429 26.0051 0.301826 25.9945 0.251771 25.9742C0.201717 25.9538 0.156295 25.9241 0.118178 25.8865C0.0800603 25.849 0.0499484 25.8046 0.0296642 25.7557C0.00937993 25.7068 -0.000653685 25.6544 3.3005e-05 25.6017C3.3005e-05 25.4961 0.0431074 25.3948 0.119951 25.3201C0.196794 25.2454 0.301005 25.2034 0.409678 25.2034H29.585C29.6392 25.2027 29.6931 25.2125 29.7434 25.2322C29.7937 25.2519 29.8395 25.2812 29.8781 25.3182C29.9167 25.3553 29.9474 25.3994 29.9683 25.4481C29.9892 25.4968 30 25.549 30 25.6017C30 25.7087 29.9562 25.8113 29.8784 25.8869C29.8006 25.9625 29.695 26.0051 29.585 26.0051Z" fill="white"/>
<path d="M8.0344 22.8943C7.92971 22.8957 7.82843 22.8576 7.75201 22.788C7.6756 22.7185 7.62998 22.6228 7.62463 22.5212L7.32895 17.8879C7.3235 17.8013 7.34526 17.7152 7.39125 17.6409L19.0354 0.18646C19.0644 0.141783 19.1022 0.103173 19.1467 0.07285C19.1912 0.0425273 19.2415 0.0212126 19.2946 0.00995193C19.3477 -0.00130875 19.4025 -0.0023053 19.4559 0.00724399C19.5094 0.0167933 19.5604 0.0365878 19.6059 0.0654647L24.3674 3.09048C24.4128 3.11876 24.4517 3.15572 24.482 3.19904C24.5123 3.24237 24.5333 3.29115 24.5436 3.34256C24.5638 3.44679 24.5435 3.55462 24.4867 3.64511L12.8424 21.0995C12.799 21.1736 12.7287 21.2293 12.6453 21.2557L8.17951 22.8943C8.13166 22.9044 8.08225 22.9044 8.0344 22.8943ZM8.15887 17.9685L8.41302 21.9263L12.2252 20.5297L23.5686 3.51907L19.5022 0.957854L8.15887 17.9685Z" fill="white"/>
</g>
<defs>
<clipPath id="clip0_25_3186">
<rect width="30" height="26" fill="white"/>
</clipPath>
</defs>
</svg>
