<svg width="52" height="52" viewBox="0 0 52 52" fill="none" xmlns="http://www.w3.org/2000/svg">
<g clip-path="url(#clip0_25_3278)">
<path d="M11.9164 10.8334H40.0831C40.3951 10.9428 40.678 11.1222 40.91 11.3578C41.142 11.5935 41.3169 11.8791 41.4215 12.1928C41.5261 12.5065 41.5575 12.84 41.5132 13.1677C41.469 13.4954 41.3504 13.8086 41.1664 14.0834L30.3331 26V41.1667L21.6664 34.6667V26L10.8331 14.0834C10.6491 13.8086 10.5305 13.4954 10.4863 13.1677C10.442 12.84 10.4734 12.5065 10.578 12.1928C10.6826 11.8791 10.8575 11.5935 11.0895 11.3578C11.3215 11.1222 11.6044 10.9428 11.9164 10.8334Z" stroke="#0B54E4" stroke-width="2" stroke-linecap="round" stroke-linejoin="round"/>
</g>
<defs>
<clipPath id="clip0_25_3278">
<rect width="52" height="52" fill="white"/>
</clipPath>
</defs>
</svg>
