<svg width="59" height="50" viewBox="0 0 59 50" fill="none" xmlns="http://www.w3.org/2000/svg">
<g clip-path="url(#clip0_25_3454)">
<path d="M0.974102 47.457C-0.423 46.3604 0.0549556 45.1125 0.0549556 44.0537C0.0549556 31.6821 0.0549556 19.3105 0.0549556 6.93893C0.0549556 2.02307 1.89325 0.0567215 6.55332 0.0378143C18.7044 -0.0126048 30.8586 -0.0126048 43.0158 0.0378143C47.6851 0.0378143 49.4499 2.02307 49.5234 6.93893C49.5234 8.34752 49.5694 9.77501 49.5234 11.1836C49.4774 12.5922 49.6888 13.8211 51.5271 13.6037C53.8342 13.3201 54.1927 14.6247 54.1927 16.6194C54.1927 18.6141 53.7055 19.5973 51.665 19.4555C50.3231 19.3326 49.5418 19.7864 49.6245 21.3462C49.7072 23.2369 50.994 22.821 52.0419 22.8871C52.7956 22.8871 53.5493 22.8871 54.303 22.8871C58.3932 22.8871 59.873 25.1465 58.623 29.1927C58.2553 30.3744 57.5108 30.4027 56.6284 30.4122C55.2497 30.4122 53.871 30.3649 52.4922 30.4122C51.1135 30.4594 49.4131 29.8733 49.6429 32.2367C49.7991 33.8627 48.4572 36.3396 51.7845 36.453C54.2754 36.5476 53.2 38.7124 53.3379 40.0359C53.4757 41.3594 53.6596 42.872 51.6834 42.7397C50.0014 42.6357 49.6337 43.4109 49.4958 44.9896C49.2109 48.4024 47.1612 50.0756 43.8982 49.8015C40.911 49.5557 37.4642 51.1628 35.0744 47.7501C34.716 47.2396 33.1626 47.5988 32.1607 47.5893C23.8884 47.5893 15.6161 47.4948 7.34378 47.5893C4.70584 47.6461 3.8786 46.7763 3.91537 44.0726C4.03792 34.411 4.03792 24.7495 3.91537 15.0879C3.91537 12.3747 4.75179 11.4766 7.37136 11.5617C12.6286 11.8359 17.8959 11.8359 23.1531 11.5617C27.997 11.2119 33.0431 13.2067 37.7399 9.67101C39.229 8.55549 42.1702 9.67101 44.367 9.30233C45.4975 9.18888 47.7954 11.7697 47.8506 8.24352C47.9149 5.51144 48.1539 2.61864 44.5968 1.84345C43.8521 1.72486 43.0973 1.68684 42.3449 1.73001C30.5706 1.73001 18.7963 1.73001 7.02208 1.73001C2.77563 1.73001 1.66346 2.87389 1.65427 7.22254C1.60831 19.2002 1.65427 31.1874 1.65427 43.1462C1.65427 44.5169 2.04031 45.9728 0.974102 47.457ZM35.6811 13.4808C33.3648 15.8064 35.9017 19.5878 33.3832 20.8546C31.1313 21.9796 27.997 21.3178 25.2579 21.3178C19.6512 21.3178 19.9453 21.904 20.1199 16.2885C20.1935 13.9629 19.4857 13.0365 17.1511 13.1783C14.2732 13.339 11.389 13.339 8.5111 13.1783C6.33272 13.0554 5.75366 13.944 5.75366 16.0805C5.85477 22.3861 5.75366 28.7011 5.75366 34.9877C5.75366 47.2774 5.75366 47.2774 17.7853 46.0862C19.3019 45.9444 19.9269 45.519 20.074 43.8552C20.6254 37.9372 20.6898 37.9372 26.6459 37.9372C28.2819 37.9372 29.9088 38.0412 31.5357 37.9372C33.7049 37.7765 34.3943 38.7975 34.3575 40.9057C34.3575 42.56 33.9347 44.3468 35.6443 45.7932L35.6811 13.4808ZM37.7399 29.4763C37.7399 34.7136 37.7399 40.0265 37.7399 45.3016C37.7399 46.2469 37.3815 47.3814 38.512 48.0526C42.5103 50.4065 47.8506 47.4097 47.8506 42.768C47.8506 34.6663 47.8506 26.5646 47.8506 18.4534C47.8506 11.4105 47.1796 10.8905 40.3044 11.0323C38.0708 11.0796 37.6756 12.025 37.7399 14.0386C37.7951 19.1813 37.7399 24.3146 37.7399 29.4763ZM27.3444 46.0579C27.7213 46.0579 28.0981 46.0579 28.475 46.0579C30.5338 45.935 32.9052 47.0032 32.988 42.976C33.0707 38.7313 30.5522 39.7429 28.3922 39.6767C27.1461 39.743 25.8974 39.743 24.6513 39.6767C22.234 39.3553 21.7284 40.4897 21.7376 42.7586C21.7468 45.0274 22.1053 46.54 24.7616 46.124C25.6201 46.0422 26.483 46.0201 27.3444 46.0579ZM27.5374 13.1877C21.4343 13.1877 21.5538 13.1877 21.7192 17.4702C21.7928 19.4271 22.6384 20.1645 24.2193 19.7202C27.0595 18.8977 31.1313 22.0741 32.6938 17.924C34.1645 14.0386 32.9512 13.2161 27.5374 13.2161V13.1877ZM53.4482 28.928C54.9004 28.5215 57.1247 29.9395 57.1247 26.7064C57.1247 23.3031 54.7074 24.551 53.154 24.4753C51.6007 24.3997 49.5326 23.53 49.5326 26.6686C49.5326 30.1947 52.0786 28.3513 53.4482 28.928Z" fill="#969696"/>
<path d="M26.9676 35.243C20.0556 35.243 20.2578 35.243 20.0005 28.1906C19.8718 24.6644 21.0023 23.5867 24.2194 24.0216C25.8384 24.1303 27.4626 24.1303 29.0816 24.0216C34.3484 24.0216 34.3943 24.0216 34.3484 29.3629C34.2748 36.3585 35.2951 35.1106 26.9676 35.243ZM27.2066 33.7682C33.2821 33.7682 33.4568 33.5035 32.9053 27.7652C32.7307 26.0446 31.9861 25.572 30.5431 25.6287C29.0503 25.7516 27.5504 25.7516 26.0577 25.6287C22.7763 25.1938 21.756 26.2904 21.609 29.9301C21.3792 35.139 24.6973 33.4657 27.2066 33.7682Z" fill="#969696"/>
</g>
<defs>
<clipPath id="clip0_25_3454">
<rect width="59" height="50" fill="white"/>
</clipPath>
</defs>
</svg>
