<svg width="64" height="48" viewBox="0 0 64 48" fill="none" xmlns="http://www.w3.org/2000/svg">
<g clip-path="url(#clip0_25_3444)">
<path d="M-0.00019507 35.8099C0.00226933 33.3358 0.753563 30.9248 2.14814 28.9154C3.54272 26.9061 5.51049 25.3995 7.77499 24.6072C10.0304 23.7403 12.4986 23.6652 14.7994 24.3933C17.1001 25.1214 19.1057 26.6124 20.507 28.6365C21.1233 29.6939 22.0277 30.5392 23.1067 31.0663C24.1856 31.5934 25.391 31.7787 26.5714 31.5989C29.3009 31.3606 32.0449 31.3606 34.7743 31.5989C41.0252 32.3708 46.4206 30.9406 50.6866 25.9238C52.5509 23.7446 54.5577 23.6538 56.7071 25.4812C58.8565 27.3086 63.9011 27.9555 63.4186 30.759C62.8812 33.9484 58.5166 31.8146 55.8627 32.121C53.2088 32.4275 53.5927 34.5386 53.472 36.0369C53.3514 37.5351 53.4062 39.7597 56.0711 39.6349C58.0889 39.5441 60.1067 39.6349 62.1245 39.703C62.4878 39.6718 62.8507 39.7664 63.1564 39.9718C63.462 40.1772 63.6931 40.4819 63.8134 40.838C63.9034 41.204 63.8646 41.5912 63.7038 41.9302C63.543 42.2692 63.2708 42.5379 62.9361 42.6881C60.2054 44.3679 57.4528 45.9569 54.7112 47.6368C53.165 48.5788 52.1122 47.4779 51.3555 46.5018C43.679 36.9108 33.0745 41.0764 23.5447 40.3386C21.7023 40.191 21.5378 42.2341 20.6715 43.3123C19.1856 45.3048 17.131 46.762 14.7994 47.477C12.4677 48.1919 9.97774 48.1283 7.68304 47.2952C5.38835 46.4621 3.40563 44.9017 2.01654 42.8359C0.627444 40.77 -0.0974013 38.3037 -0.0550313 35.7872L-0.00019507 35.8099ZM11.5036 45.9342C13.4187 45.9454 15.2938 45.3665 16.8901 44.2713C18.4864 43.1761 19.7317 41.614 20.4676 39.7839C21.2034 37.9539 21.3965 35.9386 21.0223 33.9946C20.6481 32.0506 19.7235 30.2658 18.3661 28.8674C17.0088 27.4689 15.2801 26.5201 13.4002 26.1417C11.5202 25.7633 9.57395 25.9724 7.80917 26.7424C6.04438 27.5124 4.54086 28.8085 3.48999 30.4656C2.43911 32.1228 1.8884 34.0661 1.90796 36.0482C1.91667 38.6753 2.93182 41.1914 4.73072 43.0448C6.52962 44.8981 8.96535 45.9373 11.5036 45.9342ZM59.9971 41.6666C54.6016 42.5973 51.3884 41.4963 51.3446 35.9915C51.3446 30.1802 55.0073 29.7943 59.7339 30.1802C52.6715 24.8342 54.9635 25.1861 46.7387 32.0416C44.2164 34.1414 44.5454 37.2513 46.289 39.5327C51.213 45.9002 53.8339 46.3656 59.9971 41.6666ZM33.239 38.4658C35.8271 38.4658 38.4152 38.4658 41.0032 38.4658C42.6263 38.4658 43.3391 37.8756 43.361 36.139C43.3829 34.4024 42.703 33.7441 41.091 33.7555C35.9038 33.7555 30.7277 33.7555 25.5406 33.7555C23.7531 33.7555 23.0293 34.323 23.0402 36.3206C23.0512 38.3183 24.0382 38.5339 25.4638 38.5339C28.0519 38.4545 30.64 38.5339 33.239 38.4658Z" fill="#969696"/>
<path d="M0.0985295 7.78626C0.0985295 6.44694 0.0327299 5.09627 0.0985297 3.76829C0.164329 2.44032 -0.449791 0.363231 1.72156 0.363231C3.41039 0.363231 6.03136 -1.16905 6.54678 2.24736C6.84287 4.1542 7.73116 3.31428 8.64137 2.86027C11.9354 1.15022 15.563 0.240878 19.2479 0.20154C22.9329 0.162201 26.5779 0.993901 29.9052 2.63327C30.629 2.96243 31.7147 4.32445 32.0985 2.23602C32.6797 -1.16904 35.2569 0.374583 36.9347 0.363233C39.128 0.363233 38.6345 2.41762 38.5468 3.76829C38.3823 6.26534 39.2267 7.28685 41.727 7.17335C44.2274 7.05985 46.9032 7.17335 49.5022 7.1166C50.215 7.1166 51.3884 7.27551 51.5749 6.92365C54.9306 0.556188 58.9333 6.7534 62.6071 6.20859C63.5392 6.07238 64.0656 7.0712 64.0327 8.08137C64.0344 8.53104 63.8787 8.96612 63.5944 9.30621C63.3102 9.6463 62.9166 9.86839 62.4865 9.93145C59.8326 10.5898 57.1787 11.2821 54.5029 11.8837C54.0094 11.9972 53.1211 11.9972 52.9566 11.7021C49.6667 6.11778 44.5125 10.0677 40.3233 9.14829C38.1301 8.67158 38.7551 11.0324 38.6016 12.3944C38.4481 13.7565 39.0732 15.7995 36.8799 15.7995C35.2788 15.7995 32.8442 17.2069 32.2192 14.2559C31.8902 12.7009 31.4515 12.7009 30.2562 13.2911C26.9054 15.0509 23.2008 15.968 19.4433 15.968C15.6858 15.968 11.9812 15.0509 8.6304 13.2911C7.67632 12.8144 6.87577 12.1561 6.56871 13.9948C6.00943 17.3204 3.39942 15.8336 1.71059 15.8222C-0.48269 15.8222 0.230129 13.7111 0.142394 12.349C0.0546641 10.987 0.0985294 9.27314 0.0985295 7.78626ZM14.2123 6.25399C11.7558 6.56044 13.6421 2.84892 11.1417 3.80234C9.39805 4.46065 7.61052 5.35732 7.17186 7.52521C6.77707 9.46609 8.06014 10.6579 9.48578 11.3956C12.565 13.0318 15.9765 13.8852 19.4378 13.8852C22.8991 13.8852 26.3106 13.0318 29.3898 11.3956C30.8045 10.7373 32.2301 9.54554 31.9011 7.63871C31.4954 5.53892 29.7078 4.59686 27.9752 3.82504C25.2006 2.58787 27.1527 6.68529 24.7839 6.40154C23.8189 5.50487 25.2664 2.62192 22.4042 2.40627C19.1143 2.15656 21.4282 6.03833 19.6187 6.53774C17.5022 5.72053 19.8381 2.61057 16.9978 2.41762C13.8943 2.21331 15.2761 5.33462 14.2123 6.25399ZM5.15405 7.60466C3.73938 6.09508 6.42615 2.38357 3.33362 2.34952C0.460419 2.34952 1.90799 5.89078 1.91896 7.76356C1.91896 9.81795 0.383659 13.6543 3.28976 13.677C6.40422 13.6997 3.99161 9.8066 5.15405 7.60466ZM36.9566 8.01327C36.0026 6.15184 38.5577 2.33817 35.1582 2.33817C32.592 2.33817 33.908 6.01563 34.0615 7.94517C34.215 9.8747 32.1534 13.6203 35.531 13.6203C38.141 13.677 36.2877 10.0109 36.9676 8.01327L36.9566 8.01327ZM59.701 8.08137C57.9244 7.43441 56.3014 5.81133 54.3713 7.1166C54.2417 7.36811 54.1739 7.64877 54.1739 7.93382C54.1739 8.21886 54.2417 8.49952 54.3713 8.75103C56.2137 10.499 57.8696 8.38782 59.712 8.08137L59.701 8.08137Z" fill="#969696"/>
<path d="M17.8314 36.2639C17.8314 39.5781 14.4538 43.2329 11.4819 43.1648C8.19195 43.0967 5.19812 39.4646 5.24199 35.7077C5.24199 32.4275 8.70738 28.6592 11.5806 28.7273C14.7279 28.7841 17.8534 32.5524 17.8314 36.2639ZM7.21594 35.9347C6.61279 39.1468 9.2228 40.6678 11.3832 40.7586C11.9916 40.8038 12.6023 40.7134 13.1742 40.4936C13.746 40.2738 14.2656 39.9296 14.698 39.4842C15.1304 39.0389 15.4654 38.5027 15.6806 37.912C15.8957 37.3212 15.986 36.6895 15.9452 36.0596C16.009 35.4305 15.9391 34.7946 15.7403 34.1964C15.5415 33.5983 15.2186 33.0524 14.7944 32.597C14.3701 32.1417 13.8547 31.788 13.2844 31.5607C12.7141 31.3334 12.1026 31.2379 11.4928 31.2811C10.8995 31.2258 10.3018 31.3098 9.74419 31.5268C9.18659 31.7437 8.68349 32.0882 8.27239 32.5344C7.86128 32.9806 7.55277 33.5171 7.36985 34.1039C7.18694 34.6907 7.13432 35.3126 7.21594 35.9234L7.21594 35.9347Z" fill="#969696"/>
</g>
<defs>
<clipPath id="clip0_25_3444">
<rect width="48" height="64" fill="white" transform="translate(64) rotate(90)"/>
</clipPath>
</defs>
</svg>
