<svg width="58" height="53" viewBox="0 0 58 53" fill="none" xmlns="http://www.w3.org/2000/svg">
<g clip-path="url(#clip0_25_3457)">
<path d="M6.02097e-05 13.7028C0.199337 8.74695 3.02067 4.04867 8.7997 1.50376C14.5787 -1.04115 20.2634 -0.422954 24.9306 3.79108C31.0348 9.26212 36.6145 15.2174 42.5718 20.8533C44.6171 22.8109 43.0124 23.9443 41.7538 24.8097C38.5129 27.1383 38.7541 28.9311 41.7538 31.5172C46.9979 36.1639 51.77 41.3156 56.8359 46.1478C58.5874 47.8169 58.5979 48.7545 56.1646 49.517C53.2657 50.2998 50.424 51.274 47.6586 52.4328C45.1415 53.5868 43.6207 52.9068 41.9006 51.0728C40.5791 49.6509 40.1281 48.6515 41.9006 47.3636C42.4145 46.9721 42.8236 46.4466 43.306 46.0139C44.3549 45.0969 45.1834 44.3138 43.6941 42.9229C42.2048 41.5319 41.6908 42.6447 40.8728 43.4484L39.2051 45.0763C38.3556 45.9314 37.527 46.8072 36.3418 45.4575C35.4503 44.4272 33.7932 43.5823 35.6077 42.078C36.8138 41.0477 36.6565 40.2956 35.6077 39.2549C34.5588 38.2143 33.8456 38.7501 33.0485 39.5743C32.5346 40.1101 31.7165 40.9653 31.0872 40.1719C28.2869 36.607 26.7766 39.6155 25.1718 41.2847C23.5671 42.9538 22.5498 43.3968 20.7353 41.5423C15.2919 35.9785 9.63876 30.6208 4.16389 25.057C1.29011 22.3267 -0.0314045 18.8854 6.02097e-05 13.7028ZM14.1592 1.83346C9.60729 2.02922 5.43297 4.44019 2.97872 9.41667C1.7768 11.794 1.36508 14.482 1.80167 17.1015C2.23825 19.721 3.50108 22.1397 5.41199 24.0164C10.4673 29.168 15.7639 34.1548 20.8507 39.3064C22.2771 40.7489 23.1791 40.7695 24.616 39.3064C29.5944 34.2441 34.6672 29.2436 39.8344 24.3049C41.2608 22.9449 41.4496 22.1 39.9183 20.6472C34.6742 15.6604 29.5664 10.5088 24.3538 5.48082C21.8261 3.09046 18.7426 1.84377 14.1592 1.83346ZM37.6319 43.8811C38.5293 43.1571 39.3739 42.3721 40.1596 41.5319C41.6069 39.7804 42.6348 39.7186 44.5331 41.3465C47.302 43.7162 47.0189 45.3442 44.3444 47.3327C43.5892 47.9097 42.0894 48.5897 43.3794 50.0631C43.6972 50.5495 44.1823 50.9077 44.7464 51.0722C45.3105 51.2368 45.916 51.1967 46.4525 50.9594C49.3263 49.8673 52.263 48.8988 56.0702 47.6006C51.2351 42.9847 46.8511 38.8325 42.5718 34.6082C37.055 29.2298 37.076 29.2195 31.706 34.8245C31.6072 34.9095 31.516 35.0025 31.4333 35.1027C30.8775 35.8342 29.5035 36.3288 30.7306 37.5755C31.7794 38.6058 32.3773 37.8331 32.9856 37.1634C34.0344 36.03 34.8525 36.2464 35.9223 37.1634C37.9465 39.0695 40.1805 40.7901 37.6319 43.8811Z" fill="#969696"/>
<path d="M24.3012 15.0325C24.2846 16.8231 23.7279 18.5688 22.7016 20.0487C21.6753 21.5287 20.2254 22.6766 18.5351 23.3472C16.8449 24.0179 14.9902 24.1812 13.2055 23.8166C11.4208 23.4521 9.78612 22.5759 8.50817 21.2989C7.23022 20.0219 6.36633 18.4014 6.02568 16.6421C5.68504 14.8829 5.88294 13.064 6.59436 11.4153C7.30578 9.76651 8.4988 8.36196 10.0226 7.37912C11.5464 6.39628 13.3326 5.87929 15.1555 5.89347C17.5843 5.96751 19.8905 6.95885 21.5941 8.66114C23.2976 10.3634 24.2673 12.6456 24.3012 15.0325ZM22.5182 15.0943C22.5352 13.1426 21.7686 11.263 20.3845 9.86284C19.0004 8.46265 17.1104 7.65471 15.124 7.61412C13.205 7.61763 11.3611 8.3478 9.97613 9.65273C8.59111 10.9577 7.77153 12.7369 7.68786 14.6203C7.62081 15.5876 7.75499 16.5581 8.08221 17.4728C8.40943 18.3875 8.92284 19.2271 9.59113 19.9405C10.2594 20.6538 11.0686 21.2261 11.9694 21.6222C12.8701 22.0184 13.8436 22.2302 14.8304 22.2448C15.8171 22.2905 16.803 22.1403 17.7292 21.8029C18.6554 21.4655 19.5028 20.948 20.2206 20.2814C20.9384 19.6147 21.5118 18.8126 21.9066 17.9231C22.3014 17.0336 22.5095 16.0749 22.5182 15.1046V15.0943Z" fill="#969696"/>
<path d="M33.0381 17.8143C31.8495 20.6245 29.5918 22.8683 26.7451 24.0684C28.1244 21.3878 30.3255 19.2003 33.0381 17.8143Z" fill="#969696"/>
<path d="M36.4049 21.2144C35.0945 23.9442 32.9249 26.1875 30.2168 27.6127C31.1712 24.4806 33.7304 22.8011 36.4049 21.2144Z" fill="#969696"/>
<path d="M24.2487 26.2733C23.4936 29.5188 20.6618 30.9201 18.2075 32.6613C19.3927 29.797 21.6582 27.8909 24.2487 26.2733Z" fill="#969696"/>
<path d="M28.7376 29.1891C26.8818 32.0373 24.5066 34.5243 21.7314 36.5251C21.9202 33.8668 24.1647 31.3837 28.7376 29.1891Z" fill="#969696"/>
</g>
<defs>
<clipPath id="clip0_25_3457">
<rect width="58" height="53" fill="white"/>
</clipPath>
</defs>
</svg>
