<svg width="59" height="58" viewBox="0 0 59 58" fill="none" xmlns="http://www.w3.org/2000/svg">
<g clip-path="url(#clip0_25_3423)">
<path d="M38.3423 0.010253C43.8719 0.010253 49.4015 0.010253 54.9312 0.010253C58.0611 0.010253 58.9584 0.912498 58.9897 3.87555C58.9897 6.35673 58.9897 8.84815 58.9897 11.3396C58.9897 13.831 58.009 14.9998 55.3798 14.8973C53.5018 14.8153 53.2931 15.574 53.2931 17.1221C53.387 20.4441 53.2931 23.766 53.2931 27.0776C53.2931 28.513 52.9593 29.1282 51.3734 29.0154C48.7651 28.8923 46.1568 29.0154 43.5381 29.0154C39.8134 29.0154 38.624 30.9019 39.876 34.2546C40.4811 35.854 41.587 35.5772 42.6408 35.4951C44.2788 35.3619 44.8631 35.977 44.6648 37.5457C44.6179 38.2969 44.6179 39.0501 44.6648 39.8013C44.6648 42.8771 44.6648 42.9592 41.6496 43.0002C39.563 43.0002 40.0846 44.9174 39.2917 45.8505C38.4988 46.7835 39.0518 47.4191 39.8134 47.901C41.827 49.2544 41.6288 50.5257 39.8134 51.8278C39.516 52.0671 39.2402 52.3312 38.9892 52.6173C36.6521 54.9139 36.5999 54.9754 34.2212 52.8941C34.0788 52.7464 33.9073 52.6288 33.7172 52.5484C33.5271 52.468 33.3222 52.4266 33.1152 52.4266C32.9082 52.4266 32.7034 52.468 32.5133 52.5484C32.3231 52.6288 32.1517 52.7464 32.0093 52.8941C31.1121 53.5093 29.328 53.0684 29.474 54.9447C29.474 55.4676 29.474 55.9699 29.474 56.5236C29.6514 57.7744 29.0358 58.1128 27.8882 58.0103C27.137 57.959 26.4067 57.959 25.5929 57.959C22.3273 57.959 22.2647 57.959 21.8473 54.7294C21.6178 52.8941 19.8442 53.417 18.9156 52.6788C18.1644 52.0534 17.4445 52.4635 16.975 53.1504C15.4205 55.4265 14.0328 54.8421 12.6556 52.9864C12.3411 52.5378 11.9575 52.14 11.5184 51.8073C9.74477 50.5257 9.31701 49.2646 11.4245 47.901C11.6444 47.7883 11.8348 47.627 11.9807 47.4299C12.1266 47.2328 12.2241 47.0052 12.2656 46.7648C12.307 46.5245 12.2913 46.278 12.2196 46.0447C12.1479 45.8113 12.0221 45.5975 11.8523 45.4198C11.1846 44.3946 11.3724 42.5491 9.26484 42.9797C6.95909 43.441 6.24963 42.3645 6.59393 40.2627C6.88606 38.4274 6.46873 37.3201 4.23601 36.787C3.07814 36.476 2.05042 35.8122 1.30056 34.8911C0.550704 33.97 0.117327 32.839 0.0627165 31.6606C-0.137062 30.4551 0.0450512 29.2184 0.584387 28.1181C1.12372 27.0177 1.99421 26.1069 3.07792 25.5089C3.68179 25.2086 4.21367 24.7854 4.63821 24.2674C5.06275 23.7495 5.37022 23.1486 5.54017 22.5049C6.07227 20.8132 7.80418 19.6956 8.37801 18.2192C8.87881 16.9273 6.81303 15.574 6.75043 13.8413C6.61632 12.5986 6.84898 11.3442 7.42065 10.2279C7.99231 9.11165 8.87881 8.18064 9.9743 7.54605C10.6838 7.12569 11.4767 6.92063 11.4871 5.81333C11.4871 3.44494 13.1251 2.73749 15.2118 2.79901C16.5055 2.79901 17.4862 2.73749 18.1122 1.31236C18.6548 0.0820229 20.0319 0 21.3152 0C26.9701 0.0205056 32.6666 0.010253 38.3423 0.010253ZM29.5366 20.3723C29.4949 20.9697 29.4949 21.5691 29.5366 22.1665C29.6618 23.3148 28.9419 24.6477 30.8199 25.3039C32.6979 25.9601 34.0438 26.5855 35.2854 24.5862C36.0991 23.2943 36.8399 23.7455 37.7893 24.5862C38.7388 25.4269 39.4691 27.2006 41.3366 27.2006C44.1745 27.1494 47.0123 27.2006 49.8606 27.2006C50.9039 27.2006 51.3734 26.8623 51.363 25.7755C51.363 23.2943 51.3004 20.8029 51.363 18.3217C51.363 17.0709 50.7892 16.8248 49.6728 16.8351C45.6038 16.8351 41.5349 16.8351 37.4659 16.8351C36.9025 16.8351 36.1931 16.5993 35.8801 17.3785C34.7011 20.3518 32.2284 20.6901 29.4532 20.4543C29.1402 20.157 28.8272 19.8494 28.4933 19.5623C27.669 18.9314 27.0842 18.0468 26.8326 17.0503C26.581 16.0538 26.6772 15.0032 27.1057 14.0668C27.5586 13.0962 28.3345 12.3063 29.3056 11.8273C30.2767 11.3483 31.3849 11.2088 32.4475 11.4319C32.9587 11.5241 33.3969 11.965 34.1899 11.6267C34.1899 9.09422 34.1899 6.50027 34.1899 3.83454C34.1899 3.1271 34.6802 1.91727 33.2926 1.94803C32.1867 1.94803 30.9138 1.31236 29.9853 2.72724C27.3874 6.69507 23.9027 6.70532 21.3778 2.72724C20.6684 1.60969 19.8128 1.70196 19.6042 2.59396C19.0512 5.10589 17.2254 4.64451 15.5352 4.64451C14.638 4.64451 13.4486 4.49072 13.4486 5.77232C13.4486 7.05392 14.4919 6.61305 15.1492 6.7976C16.4892 7.18101 17.6698 7.97423 18.5198 9.06204C19.3697 10.1499 19.8446 11.4756 19.8755 12.8467C19.9798 15.7688 18.4565 18.4755 15.6396 19.1214C13.4068 19.6443 13.0521 20.7311 13.3129 22.5459C13.4068 23.1815 13.0834 23.8787 13.6677 24.5964C14.5649 23.3661 15.2953 23.7249 16.1716 24.6682C16.9124 25.4372 17.4549 26.7188 19.1451 25.8985C20.6579 25.1296 22.3377 24.781 21.8578 22.5049C21.5552 21.0797 22.2125 20.4543 23.7671 20.5466C25.6659 20.5876 27.5856 20.4235 29.5366 20.3723ZM39.4065 28.2874C38.5614 27.6928 37.7476 27.1289 36.9442 26.5342C36.1409 25.9395 35.7549 26.647 35.4627 27.0674C34.2733 28.7898 32.9483 28.554 31.4355 27.5492C30.8639 27.1719 30.2162 26.9201 29.5366 26.811C28.0342 26.5957 27.3874 25.8678 27.6378 24.3811C27.8882 22.8945 27.2622 22.4331 25.7389 22.4331C24.2157 22.4331 23.6523 22.9457 23.8505 24.3914C24.0487 25.837 23.3497 26.565 21.9099 26.8008C21.2239 26.9045 20.571 27.1605 20.0007 27.5492C18.3418 28.7591 17.0376 28.5745 15.8274 26.9341C14.784 25.5192 14.1789 26.9341 13.532 27.4672C12.8852 28.0004 11.9045 28.6975 13.1877 29.5178C14.9614 30.7071 14.9927 32.04 13.7824 33.6189C13.4201 34.1061 13.1838 34.6726 13.0938 35.2696C12.8643 36.91 12.0505 37.6585 10.3186 37.3817C8.58668 37.1048 8.62841 38.0481 8.61798 39.2682C8.60755 40.4883 8.87881 41.3187 10.3812 41.0932C12.134 40.7753 12.8747 41.6263 13.1251 43.2155C13.2272 43.814 13.4662 44.3819 13.8242 44.8764C14.9405 46.3938 14.9405 47.6754 13.2712 48.8135C11.894 49.7465 12.8852 50.4334 13.6051 51.0794C14.325 51.7253 14.9092 52.9146 15.9004 51.51C17.1211 49.7568 18.4357 49.7363 20.0737 50.9666C20.5827 51.3052 21.1649 51.5228 21.7743 51.6023C23.381 51.8791 24.2261 52.6275 23.9131 54.3398C23.6523 55.7649 24.3826 56.093 25.7389 56.1032C27.0953 56.1135 27.9821 55.7957 27.69 54.2475C27.3978 52.6993 28.0551 51.8893 29.6305 51.6228C30.3781 51.4945 31.0894 51.2114 31.7172 50.7923C33.1257 49.767 34.2838 49.767 35.3375 51.2537C36.2243 52.566 36.9755 52.0021 37.8624 51.1306C38.7492 50.2591 39.3543 49.5312 38.0084 48.6392C36.4643 47.6139 36.4956 46.4759 37.5285 45.0917C37.9267 44.5381 38.194 43.9041 38.311 43.236C38.6136 41.5443 39.4795 40.7651 41.274 41.0932C42.6408 41.3495 42.9955 40.6215 42.9016 39.4117C42.8286 38.3864 43.1207 37.1048 41.3784 37.3611C39.4482 37.679 38.5718 36.8383 38.2484 35.0338C38.1179 34.3675 37.8401 33.7375 37.4346 33.1883C36.5165 31.8862 36.3913 30.7994 37.8937 29.8151C38.4316 29.349 38.9273 28.8379 39.3752 28.2874H39.4065ZM46.9602 2.00955C48.0035 5.70055 47.4923 9.33003 47.5027 12.9185C47.5027 14.6717 48.0869 14.9691 49.7354 14.9691C51.8221 14.9691 51.3004 13.6772 51.3839 12.5699C51.3839 12.006 51.2691 11.2986 52.2081 11.2473C52.8028 11.2473 53.2514 11.3191 53.3349 12.0368C53.5435 13.8413 54.9625 12.9698 55.8388 13.062C56.8822 13.062 57.1534 12.2418 57.143 11.3191C57.143 8.76613 57.143 6.19268 57.143 3.63974C57.143 2.04031 56.1936 1.89677 54.8894 1.825C53.3975 1.73272 53.3036 2.52219 53.3244 3.62949C53.3244 5.20842 53.3244 6.78734 53.3244 8.37652C53.3244 9.00194 53.0427 9.4018 52.375 9.4018C52.2361 9.42101 52.0945 9.40715 51.9621 9.36139C51.8297 9.31563 51.7105 9.23931 51.6144 9.13883C51.5183 9.03836 51.4481 8.91669 51.4098 8.78403C51.3715 8.65138 51.3662 8.51162 51.3943 8.37652C51.3943 7.47428 51.3943 6.57204 51.3943 5.66979C51.3526 1.61994 51.3526 1.61994 46.9289 2.00955H46.9602ZM45.4891 8.68411C43.4024 9.50433 41.3158 9.62736 39.5108 7.94591C37.7059 6.26445 38.1858 4.0601 38.6136 2.0198C36.7564 1.53792 36.0157 2.0198 36.1096 3.82429C36.2452 6.23369 36.1096 8.65335 36.1096 11.0628C36.1096 14.9588 36.1096 14.9588 40.1159 14.9588C46.2298 14.9588 46.2298 14.9588 45.4578 8.68411H45.4891ZM8.27368 35.5567C10.2038 35.9463 11.122 35.1465 11.8105 33.3421C12.3426 31.9682 12.28 31.1685 11.1637 30.2662C10.6107 29.8254 9.67174 29.364 9.82824 28.595C10.2143 26.7188 8.67014 26.647 7.67899 26.3702C7.0619 26.2283 6.42183 26.2119 5.79804 26.3218C5.17425 26.4317 4.57988 26.6657 4.05138 27.0093C3.52287 27.353 3.07138 27.7992 2.72458 28.3204C2.37778 28.8417 2.14299 29.4271 2.0346 30.0407C1.91446 30.6293 1.91622 31.2358 2.03979 31.8238C2.16336 32.4118 2.40621 32.9693 2.75383 33.4631C3.10145 33.9568 3.54674 34.3767 4.0631 34.6976C4.57946 35.0186 5.15633 35.234 5.75927 35.3311C6.58349 35.4849 7.43902 35.4849 8.27368 35.5567ZM8.62841 13.0005C8.57425 14.18 8.99494 15.333 9.79944 16.2099C10.6039 17.0869 11.7275 17.6172 12.9269 17.6861C13.5605 17.7321 14.1971 17.6512 14.798 17.4484C15.3988 17.2456 15.9516 16.925 16.4227 16.5061C16.8939 16.0872 17.2736 15.5787 17.5389 15.0114C17.8042 14.4441 17.9495 13.8297 17.9662 13.2056C17.9429 12.0207 17.4545 10.8905 16.6031 10.0512C15.7516 9.21197 14.603 8.72858 13.3974 8.7021C12.1917 8.67563 11.0223 9.10812 10.1335 9.90917C9.2448 10.7102 8.70552 11.8179 8.62841 13.0005ZM45.6038 4.94184C45.6308 4.57354 45.5837 4.20363 45.465 3.85326C45.3464 3.50288 45.1587 3.17893 44.9126 2.89992C44.6664 2.62091 44.3667 2.39232 44.0306 2.22723C43.6945 2.06213 43.3286 1.96378 42.9538 1.93778C42.2178 1.91466 41.5025 2.17983 40.9654 2.67494C40.4283 3.17006 40.1134 3.85456 40.0899 4.57787C40.0663 5.30118 40.3362 6.00404 40.84 6.53184C41.3438 7.05964 42.0404 7.36915 42.7764 7.39226C43.4804 7.42897 44.1708 7.19286 44.6995 6.73467C45.2282 6.27647 45.5529 5.63276 45.6038 4.94184ZM34.1586 15.9226C34.1801 15.5612 34.1256 15.1994 33.9986 14.8596C33.8715 14.5199 33.6746 14.2095 33.4201 13.9478C33.1656 13.6862 32.8589 13.4789 32.5193 13.3388C32.1796 13.1988 31.8142 13.129 31.4459 13.1338C31.0649 13.1144 30.684 13.1742 30.3281 13.3093C29.9722 13.4444 29.6492 13.6518 29.3804 13.9179C29.1116 14.184 28.903 14.5028 28.7681 14.8536C28.6332 15.2043 28.5751 15.579 28.5976 15.9533C28.641 16.6491 28.9529 17.3023 29.4695 17.7799C29.9862 18.2575 30.6688 18.5234 31.3781 18.5234C32.0874 18.5234 32.77 18.2575 33.2867 17.7799C33.8033 17.3023 34.1152 16.6491 34.1586 15.9533V15.9226ZM11.2889 25.8985C11.3446 25.6619 11.3864 25.4222 11.4141 25.1808C11.4141 24.053 11.4871 22.9252 11.4141 21.7974C11.4141 20.9464 11.9358 19.6751 10.9133 19.347C9.89084 19.0189 9.25441 20.198 8.60755 20.9157C8.27882 21.3293 7.97904 21.7643 7.71029 22.2178C6.87563 23.4994 6.66696 24.4426 8.75361 24.7297C9.64763 25.0073 10.5002 25.4004 11.2889 25.8985ZM23.2767 1.97879C24.8625 4.27541 26.5527 4.25491 27.9925 1.97879H23.2767Z" fill="#969696"/>
<path d="M25.5405 48.5469C23.4462 48.5346 21.4156 47.8385 19.768 46.568C18.1204 45.2975 16.9494 43.5248 16.4392 41.5287C15.9291 39.5327 16.1086 37.4266 16.9497 35.5418C17.7908 33.657 19.2457 32.1005 21.0855 31.1172C22.917 30.1058 25.0389 29.722 27.1168 30.0265C29.1947 30.3309 31.1104 31.3062 32.5621 32.7986C33.9888 34.2904 34.8811 36.1991 35.1033 38.2347C35.3255 40.2702 34.8655 42.3215 33.7932 44.0767C33.4072 44.6714 33.1463 45.8504 32.0926 45.348C30.7571 44.7124 31.7274 43.9127 32.1656 43.1642C33.0067 41.8385 33.4033 40.2869 33.2996 38.7279C33.1958 37.169 32.5969 35.6814 31.5873 34.4746C30.5776 33.2679 29.2081 32.4029 27.6717 32.0016C26.1352 31.6002 24.5094 31.6827 23.0233 32.2375C21.5371 32.7923 20.2655 33.7913 19.3878 35.0938C18.51 36.3963 18.0702 37.9367 18.1304 39.4979C18.1907 41.059 18.7478 42.5622 19.7235 43.7957C20.6991 45.0292 22.044 45.9307 23.5686 46.3733C25.1849 46.8841 26.935 46.8003 28.4931 46.1375C29.2965 45.7889 29.9955 45.5839 30.3398 46.5886C30.6841 47.5934 29.6512 47.6139 29.14 47.8805C28.0093 48.3749 26.7767 48.6031 25.5405 48.5469Z" fill="#969696"/>
<path d="M31.3417 39.1759C31.3421 40.6551 30.7544 42.0759 29.7037 43.1352C28.6531 44.1944 27.2229 44.8083 25.7181 44.8457C24.2148 44.8152 22.7803 44.2202 21.7093 43.183C20.6383 42.1458 20.012 40.745 19.959 39.2682C20.0396 37.8325 20.6459 36.4739 21.666 35.4431C22.6862 34.4124 24.0513 33.779 25.5095 33.6599C27.0129 33.6788 28.4526 34.2596 29.5359 35.2842C30.6192 36.3088 31.2649 37.7003 31.3417 39.1759ZM29.4428 39.2477C29.4155 38.2641 28.9951 37.3307 28.2726 36.6495C27.5501 35.9683 26.5837 35.5941 25.5825 35.6079C24.6225 35.6314 23.7086 36.0174 23.0306 36.6856C22.3526 37.3538 21.9625 38.253 21.9413 39.1964C21.9272 40.1803 22.308 41.13 23.0012 41.84C23.6944 42.5499 24.6442 42.9631 25.6451 42.9899C26.6433 42.9566 27.5912 42.5513 28.2965 41.8563C29.0018 41.1613 29.4116 40.2287 29.4428 39.2477Z" fill="#969696"/>
<path d="M9.44209 30.8301C9.44209 31.5616 9.1464 32.2631 8.62007 32.7803C8.09374 33.2975 7.37988 33.5881 6.63554 33.5881C5.8912 33.5881 5.17735 33.2975 4.65102 32.7803C4.12469 32.2631 3.829 31.5616 3.829 30.8301C3.81733 30.472 3.88067 30.1154 4.0151 29.7824C4.14952 29.4494 4.35217 29.1471 4.61045 28.8942C4.86872 28.6414 5.17713 28.4434 5.51652 28.3125C5.85591 28.1817 6.21904 28.1208 6.58338 28.1336C8.29443 28.1131 9.19169 29.1487 9.44209 30.8301Z" fill="#969696"/>
<path d="M16.088 13.3799C16.007 14.0865 15.6494 14.7344 15.0909 15.1865C14.5323 15.6386 13.8167 15.8593 13.0954 15.8021C12.3742 15.7448 11.7039 15.4139 11.2265 14.8796C10.7491 14.3452 10.502 13.6492 10.5375 12.939C10.5339 12.5809 10.6075 12.2262 10.7536 11.8981C10.8997 11.5701 11.115 11.2763 11.3851 11.036C11.6553 10.7957 11.9742 10.6144 12.3209 10.5042C12.6675 10.3939 13.0341 10.3571 13.3963 10.3963C13.7767 10.4059 14.151 10.4922 14.496 10.65C14.841 10.8078 15.1493 11.0336 15.4018 11.3134C15.6542 11.5932 15.8454 11.921 15.9635 12.2765C16.0815 12.632 16.1239 13.0076 16.088 13.3799Z" fill="#969696"/>
</g>
<defs>
<clipPath id="clip0_25_3423">
<rect width="59" height="58" fill="white"/>
</clipPath>
</defs>
</svg>
