<svg width="77" height="45" viewBox="0 0 77 45" fill="none" xmlns="http://www.w3.org/2000/svg">
<g clip-path="url(#clip0_25_3466)">
<path d="M76.7378 23.0892C76.9079 24.1455 76.8559 25.2257 76.5853 26.2609C76.3147 27.296 75.8313 28.2635 75.166 29.1016C72.2624 33.5208 69.3479 37.9619 66.7281 42.4903C64.6104 46.1675 61.2702 44.6726 58.4976 44.5089C55.7249 44.3453 57.406 41.6064 57.0458 40.0351C56.9692 39.2003 56.9692 38.3602 57.0458 37.5254C57.0458 35.8996 57.5042 33.7936 55.5721 33.1607C53.64 32.5279 53.8256 34.8521 52.9742 35.7577C52.0932 36.7478 51.0094 37.537 49.7965 38.0717C48.5836 38.6064 47.2699 38.8741 45.9444 38.8567C34.7885 38.8567 23.6325 38.9221 12.4766 38.8567C7.88103 38.8567 4.97743 36.5652 3.5038 32.1241C2.41222 28.8506 1.39705 25.4789 0.480127 22.129C-0.138975 20.2528 -0.129735 18.2261 0.506449 16.3557C1.14263 14.4852 2.37112 12.8729 4.00593 11.7628C8.37224 8.4893 12.7386 5.21578 17.1049 2.01864C18.9096 0.674908 21.1097 -0.0313405 23.3596 0.0108832C30.8915 0.0108832 38.4234 0.0108826 45.9553 0.0763531C50.3871 0.0763531 53.4108 2.2587 54.688 6.51428C55.9651 10.7699 59.8184 12.2866 61.9688 15.451C64.6104 19.3465 68.4528 18.7245 72.1096 18.5063C75.7663 18.288 77.7639 19.0737 76.7378 23.0892ZM29.014 37.0344C34.4719 37.0344 39.8643 37.089 45.2785 37.0344C50.4745 36.9689 52.9196 34.5574 53.0069 29.3416C53.0942 22.7946 53.0942 16.2475 53.0069 9.70051C52.9414 4.37558 50.398 1.95317 44.9292 1.8877C40.0608 1.83314 35.105 2.2587 30.3348 1.77859C23.185 1.02568 17.607 3.52446 12.0399 7.86733C-0.185737 17.4042 0.239979 15.6038 4.98835 30.782C6.45106 35.474 8.51415 36.9144 13.5682 36.9471C18.6222 36.9798 23.8618 37.0344 29.014 37.0344ZM58.6831 37.58C59.4254 39.3804 57.4387 41.8683 59.9821 42.8067C62.853 43.8979 64.8178 42.4139 66.3024 39.7187C68.4096 35.9635 70.7124 32.3212 73.2011 28.807C74.8494 26.4391 75.7118 23.6894 74.511 21.3761C73.4194 19.2483 70.5158 20.6995 68.42 20.5031C68.2454 20.5031 68.0489 20.8196 67.8742 20.9832C68.0707 22.3909 70.4613 22.8055 69.3806 25.4789L55.1901 11.4573C55.1137 21.4088 52.5594 30.9457 62.1762 37.1217C62.2853 37.1872 62.4054 37.3618 62.3836 37.46C62.3446 37.7921 62.2789 38.1205 62.1871 38.442C60.7899 38.9985 60.4515 37.0344 58.6831 37.5473V37.58Z" fill="#969696"/>
<path d="M28.9703 34.2737C24.2329 34.2737 19.4954 34.1865 14.7798 34.2737C10.7082 34.372 8.36132 32.6479 7.13876 28.676C3.79852 17.6988 3.94043 18.0153 12.7604 10.7153C18.3711 6.08873 24.1346 3.67724 31.4264 4.4847C35.4216 4.93209 39.5041 4.4847 43.532 4.58291C48.1276 4.71385 50.1906 6.76526 50.267 11.2936C50.3653 16.7495 50.3544 22.2054 50.267 27.5849C50.1906 32.1787 48.1494 34.1865 43.5757 34.2301C38.7291 34.3174 33.8497 34.2737 28.9703 34.2737ZM28.9703 32.6261H43.1609C46.7412 32.6261 48.5533 30.9566 48.4878 27.2466C48.4004 22.1072 48.4114 16.9568 48.4878 11.8065C48.5533 8.09649 46.8722 6.50338 43.15 6.64523C39.2609 6.90168 35.3591 6.90168 31.4701 6.64523C24.7241 5.99053 19.2225 7.87826 14.0048 12.2975C5.31582 19.4447 5.59963 16.7059 9.01627 28.305C9.88953 31.3276 11.6361 32.6697 14.7252 32.6697C19.4627 32.5715 24.1565 32.6697 28.9267 32.6697L28.9703 32.6261Z" fill="#969696"/>
<path d="M30.0622 9.4823C24.5824 15.0691 19.1245 20.6596 13.6885 26.2536L14.6709 27.2248L31.1319 10.5735L30.0622 9.4823Z" fill="#969696"/>
<path d="M37.9759 9.58051L27.7915 19.6848L28.8831 20.7759C32.2233 17.3642 35.5599 13.9525 38.8929 10.5407L37.9759 9.58051Z" fill="#969696"/>
</g>
<defs>
<clipPath id="clip0_25_3466">
<rect width="77" height="45" fill="white"/>
</clipPath>
</defs>
</svg>
