<svg width="64" height="37" viewBox="0 0 64 37" fill="none" xmlns="http://www.w3.org/2000/svg">
<g clip-path="url(#clip0_25_3464)">
<path d="M63.7407 18.0502C63.8114 21.742 63.8114 25.4222 63.9884 29.1023C64.071 30.7029 63.6109 31.4389 61.9593 31.1702C60.3077 30.9015 59.6588 31.287 59.8004 33.1914C59.8227 33.5662 59.7696 33.9417 59.6444 34.2961C59.5191 34.6504 59.3241 34.9767 59.0707 35.256C58.8172 35.5352 58.5103 35.7619 58.1678 35.9229C57.8253 36.0839 57.4539 36.176 57.0752 36.1939C56.3328 36.3472 55.5594 36.2217 54.9053 35.8416C54.2511 35.4616 53.7631 34.8543 53.5361 34.1377C53.2765 33.5419 53.1349 32.8876 52.9344 32.2684C52.4861 30.9015 51.33 31.4623 50.4216 31.4039C49.5132 31.3455 49.5958 32.1399 49.6076 32.7708C49.6076 34.7686 48.7346 36.1355 46.6819 36.3925C44.6291 36.6495 43.5556 35.3644 42.9657 33.5185C42.6944 32.7007 42.8596 31.4389 41.3023 31.5441C40.1226 31.6258 39.0372 31.3688 39.2732 33.2731C39.3364 33.664 39.3167 34.0635 39.2154 34.4464C39.1141 34.8293 38.9335 35.1871 38.6849 35.497C38.4363 35.8069 38.1252 36.0622 37.7716 36.2466C37.4179 36.4309 37.0293 36.5403 36.6306 36.5677C34.6841 36.8949 33.5161 35.8434 32.8673 34.126C32.7105 33.4909 32.5014 32.8696 32.242 32.2684C31.6522 31.2754 30.614 31.8361 29.7764 31.8128C28.5967 31.8128 29.1984 32.689 29.1748 33.2381C29.0686 35.0723 28.3018 36.4509 26.367 36.743C24.4323 37.0351 23.1582 35.8784 22.5329 34.0559C22.2026 33.1329 22.3796 31.8245 20.7161 31.9179C19.5364 31.9179 18.6752 31.8595 18.8286 33.5535C18.892 33.9647 18.8671 34.3845 18.7554 34.7855C18.6438 35.1865 18.448 35.5596 18.1807 35.8805C17.9135 36.2014 17.5809 36.4628 17.2046 36.6477C16.8283 36.8325 16.4169 36.9367 15.9973 36.9533C15.5905 37.0263 15.1729 37.0158 14.7704 36.9224C14.3678 36.8291 13.989 36.6549 13.6572 36.4107C13.3254 36.1664 13.0478 35.8573 12.8415 35.5025C12.6353 35.1477 12.5048 34.7548 12.4581 34.348C12.0688 32.4086 11.0778 31.9179 9.20204 32.1048C6.98416 32.3268 4.73089 32.1633 2.51301 32.3035C1.06195 32.3969 0.483885 32.0581 0.472087 30.4692C0.401305 22.8363 0.255813 15.219 0.0355984 7.61732C0.0355985 6.20367 0.448498 5.7013 1.84057 5.80645C3.23265 5.9116 4.47136 6.02843 4.20002 3.79698C4.17284 3.42205 4.22206 3.04553 4.34476 2.68982C4.46747 2.3341 4.66115 2.00646 4.91428 1.72635C5.16741 1.44625 5.47482 1.2194 5.81825 1.05931C6.16168 0.899221 6.5341 0.809152 6.91339 0.794454C7.65558 0.643823 8.42781 0.770542 9.08128 1.1502C9.73474 1.52985 10.2232 2.13558 10.4526 2.85066C10.7003 3.45817 10.8419 4.10073 11.0424 4.71993C11.5025 6.09852 12.6586 5.52606 13.567 5.58448C14.4754 5.64289 14.381 4.84845 14.381 4.21757C14.381 2.21978 15.2422 0.852867 17.2949 0.595841C19.3477 0.338816 20.4212 1.62394 21.0111 3.46985C21.2824 4.28766 21.1291 5.54943 22.6745 5.44428C23.8542 5.3625 24.9514 5.63121 24.7036 3.72688C24.6423 3.33721 24.6629 2.93919 24.7642 2.55779C24.8655 2.17639 25.0453 1.81983 25.2923 1.51049C25.5393 1.20115 25.8482 0.945693 26.1996 0.760152C26.551 0.574611 26.9374 0.462986 27.3344 0.432281C29.2809 0.105157 30.4489 1.15663 31.1095 2.87402C31.2569 3.5103 31.4622 4.13204 31.723 4.73162C32.3128 5.72467 33.351 5.16389 34.1886 5.18725C35.3683 5.18725 34.7784 4.3344 34.802 3.77361C34.8846 1.95107 35.6514 0.560795 37.5744 0.26872C39.4973 -0.0233543 40.8186 1.09821 41.4203 2.94412C41.7388 3.93718 41.7388 5.24567 43.473 5.10547C44.6527 5.01201 45.2662 4.93023 45.1364 3.48154C45.0714 3.07075 45.0943 2.65101 45.2036 2.24954C45.3129 1.84807 45.5062 1.47382 45.7709 1.15108C46.0356 0.828329 46.3659 0.564279 46.7403 0.376047C47.1147 0.187815 47.5248 0.0796043 47.9442 0.0584266C48.355 -0.0253591 48.7788 -0.0238285 49.189 0.0629235C49.5992 0.149675 49.9867 0.319761 50.3271 0.562426C50.6675 0.805091 50.9533 1.11506 51.1666 1.47273C51.3798 1.8304 51.5158 2.22799 51.5659 2.64036C51.9552 4.55637 52.9108 5.10548 54.8102 4.90687C57.0162 4.67321 59.2695 4.90687 61.4874 4.69657C63.198 4.55638 63.5755 5.22231 63.5637 6.77614C63.5401 10.5147 63.6699 14.2883 63.7407 18.0502ZM44.405 7.0799C43.0365 6.92802 42.6 7.27851 43.0247 8.7272C44.464 13.5873 45.7499 18.4942 47.0948 23.3893C47.2835 24.1137 47.956 24.9081 46.5993 25.3287C45.2426 25.7493 45.278 24.5576 45.16 23.9501C43.9921 19.9429 42.9185 15.9122 41.7388 11.8933C40.972 9.12442 40.2406 6.35555 39.4384 3.61005C39.2024 2.83898 38.8013 1.93939 37.7042 2.33661C37.5351 2.40959 37.3827 2.51566 37.2561 2.64844C37.1294 2.78122 37.0312 2.93798 36.9673 3.1093C36.9034 3.28062 36.8751 3.46297 36.8841 3.64539C36.8932 3.82781 36.9394 4.00654 37.0199 4.17084C37.1615 4.73162 37.2913 5.33913 37.4446 5.8415L41.4439 20.2934C42.6236 24.3941 43.6854 28.4714 44.8533 32.5955C45.0892 33.425 45.3016 34.605 46.5167 34.348C47.7318 34.091 47.6964 33.0161 47.3543 32.0114C47.0414 31.1653 46.8045 30.2935 46.6465 29.4061C46.5285 28.7285 45.7735 27.8522 47.142 27.4317C48.3217 27.0695 48.3217 27.9457 48.5576 28.6C49.1121 30.1071 50.398 29.4762 51.3064 29.336C52.6159 29.1491 51.7311 28.1677 51.5777 27.6069C49.8907 21.3682 48.1447 15.1412 46.4459 8.91412C46.1392 7.71078 45.856 6.71772 44.405 7.0799ZM19.6308 29.9318C20.2914 29.7916 21.5302 30.294 21.1055 28.7635C19.2415 22.0575 17.3421 15.3631 15.5254 8.6571C15.1596 7.33692 14.2395 7.64068 13.3783 7.61732C12.5171 7.59395 11.8092 7.5589 12.1985 8.78561C12.4463 9.66184 11.6323 9.6852 11.1486 9.80203C10.3346 10.0006 10.252 9.2763 10.0986 8.75056C9.70933 7.40702 9.36721 6.06348 8.91891 4.73162C8.64758 3.79698 8.47062 2.53522 7.11394 2.92076C5.75726 3.30629 6.19375 4.46291 6.45328 5.40923C8.99363 14.6388 11.5497 23.8839 14.1215 33.1446C14.3692 34.0325 14.5816 35.3527 15.9737 34.8854C17.3657 34.4181 16.8584 33.3783 16.5753 32.3852C14.9119 26.4736 13.2249 20.5621 11.7031 14.6154C11.4907 13.8093 9.95707 12.2788 12.0334 11.8582C13.7086 11.4844 13.3193 13.1667 13.5552 13.9962C14.9709 18.7862 16.3197 23.5957 17.6017 28.4247C17.9084 29.4879 18.3095 30.2005 19.619 29.9318L19.6308 29.9318ZM2.26527 19.1251L2.35965 24.0319C2.50122 31.1468 2.50122 31.1235 9.67393 30.2122C10.8537 30.0603 11.0424 29.593 10.7711 28.6233C8.94644 22.0886 7.12966 15.554 5.32075 9.01927C4.99043 7.85097 4.21182 7.85097 3.24445 7.85097C1.95855 7.85097 2.06472 8.71551 2.06472 9.545L2.26527 19.1251ZM61.7233 18.3072L61.629 13.155C61.4992 6.40229 61.4992 6.40229 54.6686 6.90466C54.5861 6.91046 54.5033 6.91046 54.4208 6.90466C53.3119 6.82287 52.899 7.29019 53.2411 8.36503C55.0815 14.9776 56.9455 21.5902 58.774 28.2261C59.1161 29.4762 60.0599 29.2308 60.9447 29.2192C62.1244 29.2192 61.9475 28.3546 61.9357 27.6419C61.7941 24.4759 61.7941 21.3682 61.7233 18.2605L61.7233 18.3072ZM27.0867 33.2498C26.9923 32.8993 26.9333 32.5722 26.8389 32.2567C24.2671 22.9571 21.6953 13.6613 19.1235 4.36944C18.8876 3.52827 18.6398 2.37165 17.4129 2.69878C16.186 3.0259 16.363 4.07737 16.6579 5.11715C19.2218 14.3389 21.7779 23.5568 24.3261 32.7708C24.4048 33.0881 24.5033 33.4002 24.621 33.7054C24.9042 34.3246 25.2699 34.8737 26.0957 34.7218C26.9215 34.57 27.0631 33.9157 27.0867 33.2498ZM47.142 3.72688L47.2599 4.20588L55.1523 32.5605C55.3882 33.425 55.7067 34.4882 56.9337 34.0793C58.1606 33.6704 57.842 32.689 57.5943 31.7427C56.509 27.8055 55.4354 23.8567 54.3383 19.9195L49.7963 3.56332C49.5722 2.78056 49.3126 1.85761 48.2391 1.98612C47.3897 2.18473 47.0594 2.87402 47.142 3.72688ZM26.7091 4.10074C26.7091 4.34608 26.7799 4.59142 26.8389 4.82508L34.6605 32.9227C34.9082 33.8222 35.2031 34.8387 36.4065 34.4765C37.6098 34.1143 37.3502 33.0512 37.1025 32.1399C36.0997 28.4364 35.038 24.7446 34.0116 21.0411L29.2927 4.04232C29.0686 3.22451 28.8326 2.34829 27.7709 2.43007C26.7091 2.51185 26.6502 3.28293 26.7091 4.10074ZM29.8826 29.6982C31.5932 30.1538 31.5106 29.1491 31.1567 27.899C30.15 24.3551 29.159 20.8113 28.1838 17.2675C27.3934 14.4285 26.5558 11.6012 25.8243 8.73888C25.4114 7.04485 24.1845 7.34861 23.0992 7.57058C21.6717 7.78088 22.4385 8.80898 22.6155 9.47491C24.3143 15.7136 26.0485 21.9407 27.7709 28.1677C28.0776 29.0906 28.3608 30.072 29.8826 29.6982ZM33.988 7.29019C32.4544 6.95138 32.478 7.85098 32.8083 8.99591C33.1386 10.1408 33.5279 11.5078 33.8701 12.7695C35.2975 17.8983 36.784 23.0038 38.1053 28.1443C38.53 29.7916 39.6035 29.6164 40.7596 29.5346C41.9158 29.4528 41.6444 28.5883 41.4557 27.9107C39.6743 21.4383 37.9165 14.9893 36.0761 8.5169C36.0476 8.28643 35.9661 8.06551 35.8378 7.87112C35.7096 7.67673 35.538 7.51404 35.3364 7.39557C35.1347 7.2771 34.9083 7.206 34.6746 7.18773C34.4408 7.16946 34.206 7.20451 33.988 7.29019Z" fill="#969696"/>
</g>
<defs>
<clipPath id="clip0_25_3464">
<rect width="37" height="64" fill="white" transform="translate(64) rotate(90)"/>
</clipPath>
</defs>
</svg>
