<svg width="81" height="81" viewBox="0 0 81 81" fill="none" xmlns="http://www.w3.org/2000/svg">
<g clip-path="url(#clip0_25_3471)">
<path d="M74.2356 31.6538C78.3606 35.9163 78.0936 41.0111 74.1386 43.7038C61.5298 52.2751 48.8645 60.7734 36.1295 69.1264C34.8604 70.0217 33.3737 70.5583 31.8261 70.6798C30.2785 70.8012 28.7273 70.503 27.3361 69.8166C25.9448 69.1301 24.765 68.0808 23.9209 66.7793C23.0769 65.4777 22.5999 63.9722 22.5402 62.4213C21.789 51.4758 21.1759 40.4675 21.0594 29.5176C20.9697 17.4214 32.8199 8.50632 43.7848 13.0425C55.1866 17.7514 64.6594 26.0432 74.2356 31.6538ZM41.7487 19.523C41.2856 18.7656 40.5543 18.0834 40.9399 17.0437C41.7784 14.8139 40.911 14.079 38.6616 14.0292C36.4122 13.9793 35.5902 14.8174 36.3171 17.0213C36.6739 18.0943 35.7267 18.6564 35.2953 19.4285C33.7318 18.4879 35.6171 14.5077 31.7987 15.5365C27.7119 16.6549 30.1417 19.2391 30.8662 21.5873C28.6789 21.2787 27.2437 18.3136 25.1712 21.4254C22.7729 25.037 27.3986 24.4608 27.649 26.275C26.7423 28.2729 23.4297 24.5858 22.9349 28.6528C22.4218 32.9504 26.2711 30.9556 27.454 32.222C27.194 34.3599 23.6026 32.6445 24.4182 35.9966C25.6366 40.6893 28.4535 37.0555 30.36 37.3379C30.8387 39.3 26.9359 40.1977 29.9693 42.4957C33.3088 45.0221 33.631 41.349 35.5447 39.9367C36.4856 41.8627 34.0895 44.919 38.2561 45.0424C42.6603 45.1911 39.458 41.3831 41.3491 40.4465C43.096 40.7841 42.1898 44.8663 45.7817 43.1632C49.5846 41.3551 45.9199 39.2852 46.2894 37.4952C48.2594 37.007 49.217 40.9166 51.4742 37.9664C54.0341 34.6098 50.1815 34.2533 48.8669 32.2493C49.9866 32.1443 50.6112 31.8945 51.0843 32.0606C53.6788 33.0247 53.8138 31.4474 53.8604 29.5585C53.907 27.6696 53.3774 26.5795 51.2377 27.2886C50.8023 27.4335 50.3351 27.4532 49.8893 27.3455C49.4435 27.2377 49.0372 27.0068 48.7166 26.6791C49.2398 24.7545 53.8448 26.2406 52.1457 22.2544C50.5298 18.4569 48.3621 21.6611 46.744 21.8086C45.5164 19.7771 49.9315 18.8658 46.9979 16.6415C42.5475 13.2754 43.2926 18.2275 41.7487 19.523ZM54.2316 21.3136C57.3296 30.8248 55.9229 38.4692 48.2328 43.6562C39.3459 49.6609 31.1147 47.2305 23.4464 39.2772L24.2832 55.7847C28.1189 52.8953 31.6702 51.8839 35.4441 53.8907C39.2181 55.8974 40.2182 59.4255 40.5214 63.6422C49.8808 57.4213 58.8107 51.4317 67.8787 45.3793C62.7317 40.9854 60.9006 36.7013 63.9898 34.0238C69.531 29.2429 64.9983 28.169 62.0023 26.2177C59.7342 24.7251 57.4145 23.2966 54.2316 21.3136ZM35.9469 66.7218C36.6074 66.0938 37.137 65.3411 37.5048 64.5073C37.8726 63.6736 38.0714 62.7753 38.0896 61.8646C38.1077 60.9538 37.945 60.0488 37.6108 59.2019C37.2765 58.355 36.7774 57.583 36.1424 56.9308C34.9134 55.6682 33.2368 54.9398 31.474 54.9026C29.7113 54.8654 28.0037 55.5223 26.7193 56.7318C26.0551 57.3559 25.5201 58.1045 25.145 58.9349C24.7698 59.7654 24.5619 60.6614 24.533 61.5718C24.5041 62.4821 24.6548 63.3891 24.9765 64.2408C25.2983 65.0924 25.7847 65.8722 26.4081 66.5355C27.6936 67.7376 29.3787 68.4217 31.1395 68.4561C32.9002 68.4905 34.6124 67.8728 35.9469 66.7218ZM66.3961 41.3821C68.9694 43.5863 71.6265 43.4118 73.7915 41.2173C74.3105 40.7538 74.7223 40.1829 74.9982 39.5442C75.2741 38.9056 75.4076 38.2146 75.3892 37.5195C75.3708 36.8244 75.2011 36.1419 74.8918 35.5194C74.5826 34.897 74.1412 34.3497 73.5985 33.9156C71.2628 31.7367 68.4781 31.7794 66.2893 34.0961C64.1006 36.4128 64.316 39.0125 66.3961 41.3821Z" fill="#969696"/>
<path d="M35.262 19.2765L41.7587 19.3717C44.7634 21.0977 47.2198 23.6359 48.8464 26.6955C48.1845 29.1373 48.9679 31.8398 47.5154 34.1248C45.1076 37.8732 41.8458 40.0936 37.2542 39.5164C35.1895 39.3232 33.2404 38.4786 31.6887 37.1046C30.1369 35.7306 29.0628 33.8983 28.6214 31.8725C28.0914 29.7977 28.2388 27.607 29.0421 25.6202C29.8454 23.6334 31.2624 21.9546 33.0863 20.8289C33.8018 20.3209 34.5248 19.7914 35.262 19.2765ZM44.3952 23.7982C42.8643 22.2711 40.8043 21.3915 38.6412 21.3413C36.4781 21.2911 34.3774 22.0742 32.7735 23.5285C31.21 25.0189 30.3001 27.0673 30.2431 29.2252C30.1861 31.3832 30.9866 33.4746 32.4693 35.0416C33.1985 35.8145 34.0736 36.4352 35.0442 36.8679C36.0149 37.3007 37.0618 37.537 38.1247 37.5631C39.1876 37.5892 40.2454 37.4047 41.2372 37.0202C42.229 36.6357 43.1351 36.0588 43.9033 35.3228C45.4817 33.849 46.418 31.8145 46.51 29.6583C46.6021 27.5021 45.8425 25.3973 44.3952 23.7982Z" fill="#969696"/>
<path d="M41.3503 32.7583C39.2032 34.3256 37.0523 34.4215 35.2036 32.4379C34.7797 32.0437 34.4446 31.5637 34.2208 31.0298C33.997 30.4958 33.8895 29.9202 33.9055 29.3412C33.9215 28.7622 34.0606 28.193 34.3136 27.6716C34.5666 27.1503 34.9277 26.6886 35.3728 26.3174C35.7753 25.842 36.2811 25.4649 36.8515 25.215C37.4219 24.9651 38.0418 24.8489 38.6637 24.8754C39.2856 24.9019 39.893 25.0704 40.4393 25.3679C40.9857 25.6655 41.4566 26.0842 41.8159 26.592C43.5062 28.5587 43.2369 30.8191 41.3503 32.7583ZM36.7399 31.1639C37.8373 31.9457 39.0538 32.0874 39.9927 31.1647C40.2563 30.9513 40.4662 30.679 40.6053 30.3698C40.7445 30.0605 40.809 29.723 40.7937 29.3844C40.7784 29.0459 40.6837 28.7157 40.5173 28.4207C40.3509 28.1256 40.1173 27.8739 39.8355 27.6859C39.6239 27.471 39.3671 27.3058 39.0837 27.2022C38.8003 27.0987 38.4974 27.0593 38.1968 27.087C37.8962 27.1147 37.6054 27.2087 37.3454 27.3623C37.0854 27.516 36.8627 27.7253 36.6933 27.9754C36.4856 28.1873 36.3219 28.4383 36.2118 28.7137C36.1016 28.9892 36.0471 29.2837 36.0515 29.5802C36.0558 29.8767 36.1189 30.1693 36.2371 30.4412C36.3552 30.713 36.5261 30.9586 36.7399 31.1639Z" fill="#969696"/>
</g>
<defs>
<clipPath id="clip0_25_3471">
<rect width="52.7631" height="60.6776" fill="white" transform="translate(43.603) rotate(45.9392)"/>
</clipPath>
</defs>
</svg>
