<svg width="53" height="50" viewBox="0 0 53 50" fill="none" xmlns="http://www.w3.org/2000/svg">
<g clip-path="url(#clip0_25_3452)">
<path d="M9.40538 0.0205225C12.0235 0.0205225 14.6416 0.0205225 17.2707 0.0205225C18.3707 0.0205225 18.9317 0.269537 18.8217 1.42123C18.7557 2.32976 18.7557 3.24148 18.8217 4.15001C18.8217 4.67917 18.5027 5.56109 19.3388 5.6026C20.1748 5.6441 21.2308 5.7271 21.6048 4.65842C21.8311 3.78057 22.3742 3.00435 23.1409 2.46291C23.9076 1.92147 24.8502 1.64856 25.807 1.69099C26.7172 1.67756 27.6053 1.95543 28.3265 2.47927C29.0477 3.00311 29.5594 3.74201 29.7781 4.57541C30.0092 5.27058 30.5812 5.36396 31.1862 5.51959C40.8226 7.99936 46.8838 13.8201 49.1279 22.9921C49.1811 23.3701 49.3438 23.727 49.598 24.0235C49.8523 24.32 50.1882 24.5447 50.5689 24.6729C51.3568 24.9476 52.0269 25.459 52.4762 26.1284C52.9255 26.7977 53.1288 27.5879 53.055 28.377C53.0804 29.1718 52.822 29.9516 52.3213 30.5913C51.8206 31.231 51.1067 31.6935 50.2939 31.9047C48.9079 32.2368 48.7979 33.1602 48.5009 34.0317C47.037 38.5593 44.0982 42.5368 40.1016 45.3996C36.1051 48.2624 31.254 49.865 26.237 49.9799C21.2201 50.0948 16.2923 48.716 12.1532 46.0395C8.01412 43.3629 4.87417 39.5245 3.17914 35.0693C2.18055 32.4329 1.68159 29.6513 1.70509 26.8518C1.70509 22.8261 1.70509 18.79 1.70509 14.7642C1.70509 13.9446 2.1341 12.8655 0.49504 12.8448C-0.186986 12.8448 0.0440233 12.1392 0.0440233 11.7449C0.0440233 8.22762 0.0440233 4.72067 0.0440233 1.20334C0.0440233 0.238411 0.418039 -0.000228893 1.37507 0.0101467C4.01517 0.0516491 6.71028 0.0205225 9.40538 0.0205225ZM3.41015 21.4046C3.41015 23.4175 3.35515 25.4304 3.41015 27.4536C3.80616 41.0975 17.0067 51.0062 30.6692 47.8209C39.0075 45.891 44.5077 40.9523 46.9608 33.2639C49.4139 25.5756 47.4338 18.5098 41.4606 12.7721C35.4874 7.03442 28.3591 5.42621 20.1748 7.14856C18.7227 7.45983 18.7007 8.2795 18.8327 9.29631C19.0087 10.5725 19.9328 9.87734 20.6038 9.84621C23.5564 9.52221 26.5478 9.75499 29.4041 10.531C34.6293 12.1911 38.5235 15.2104 39.7775 20.4397C40.4787 22.8921 40.3873 25.4862 39.5151 27.8894C38.643 30.2925 37.0298 32.3952 34.8823 33.928C30.9112 36.968 26.324 38.2857 21.3958 36.1795C16.4676 34.0732 15.2356 30.2135 15.3676 25.5549C15.4776 21.8508 15.3676 18.1467 15.3676 14.4322C15.3676 13.3947 15.2136 12.8966 13.9265 12.9278C10.8904 13.0108 7.85432 13.0004 4.8182 12.9278C3.58615 12.9278 3.31115 13.3739 3.34415 14.4219C3.44315 16.7149 3.41015 19.0597 3.41015 21.4046ZM17.0947 21.747C22.7379 17.4723 26.665 16.8082 30.9772 19.2258C35.1023 21.5395 36.5764 25.4511 35.3774 30.9398C38.1715 28.5223 39.2055 23.8221 37.9075 19.9417C35.5974 13.1768 27.094 10.0849 19.7128 11.7865C18.8657 11.9836 17.0947 12.5335 17.1167 14.204C17.1167 16.6111 17.0947 19.0079 17.0947 21.747ZM9.30637 1.60799C7.2383 1.60799 5.15922 1.60799 3.09114 1.60799C2.43111 1.60799 1.60608 1.44198 1.68308 2.50029C1.76009 3.5586 2.54112 3.17471 3.09114 3.18508C6.12725 3.18508 9.16337 3.18508 12.1995 3.18508C12.8485 3.18508 13.6845 2.98794 13.6405 4.04626C13.5965 5.10457 12.8375 4.77255 12.2765 4.78292C10.4174 4.78292 8.54734 4.78292 6.68827 4.78292C1.51808 4.78292 1.56208 4.78292 1.63908 9.75283C1.63908 10.9149 1.9471 11.3507 3.25614 11.3092C6.14925 11.2262 9.05336 11.3092 11.9575 11.3092C17.2817 11.3092 17.2817 11.3092 17.0397 6.24588V6.04875C17.0397 5.44696 17.0397 4.8348 16.1596 4.80367C15.5546 4.80367 15.3236 4.47165 15.3566 3.91137C15.3512 3.81377 15.3684 3.71623 15.4069 3.6255C15.4454 3.53477 15.5044 3.45302 15.5797 3.38591C15.655 3.31881 15.7449 3.26795 15.8432 3.23685C15.9414 3.20576 16.0456 3.19517 16.1486 3.20583C16.9077 3.20583 17.0947 2.82193 17.0067 2.16827C16.8967 1.36935 16.2256 1.56649 15.7306 1.56649C13.6295 1.59761 11.5065 1.60799 9.30637 1.60799ZM30.8232 21.2282C30.1085 20.474 29.1421 19.9725 28.0841 19.8068C27.5341 19.703 26.709 18.9871 26.555 20.2011C26.489 20.7613 26.28 21.0207 25.664 21.0104C25.048 21 24.872 20.6472 24.839 20.1388C24.839 19.8898 24.839 19.5681 24.4099 19.5889C23.721 19.5793 23.0378 19.7085 22.4061 19.968C21.7744 20.2274 21.2087 20.6111 20.7468 21.0934C20.2188 21.7782 21.5388 22.2036 21.9789 22.7846C22.3365 23.1825 22.7264 23.5537 23.1449 23.8948C23.9479 24.6626 24.663 25.0465 24.839 23.5109C24.894 23.0025 24.949 22.6497 25.62 22.6186C26.291 22.5874 26.577 22.9298 26.544 23.5628C26.511 24.1957 26.621 24.4862 27.2921 24.5069C28.6422 23.5933 29.8335 22.4872 30.8232 21.2282ZM22.5729 28.8958C22.4739 28.3459 22.0779 28.1903 21.5388 28.2006C20.5818 28.2006 19.6138 28.2006 18.6567 28.2006C17.9527 28.2006 17.1827 28.2006 17.4467 29.2382C17.7107 30.2758 18.0077 31.635 19.2728 32.2783C19.5258 32.3509 22.5839 29.1967 22.5729 28.8958ZM31.7032 28.211C30.9112 28.211 30.2952 28.211 29.6681 28.211C29.0411 28.211 28.4691 28.6779 28.8981 29.1967C29.8395 30.2249 30.8422 31.2018 31.9012 32.1226C32.1542 32.3509 32.4182 32.2368 32.5942 32.0189C33.3643 30.9813 34.2003 29.8504 33.8923 28.6572C33.6393 27.7026 32.3302 28.4289 31.7032 28.211ZM24.85 33.1602C24.8783 32.7248 24.8783 32.2882 24.85 31.8529C24.85 31.3756 25.125 30.753 24.4759 30.4625C23.8269 30.172 23.3759 30.7738 22.9469 31.1473C22.2979 31.7284 21.6708 32.3198 21.0548 32.9319C20.7908 33.1913 20.3178 33.513 20.7908 33.8761C21.2402 34.3299 21.7886 34.6865 22.3983 34.9211C23.0079 35.1558 23.6642 35.263 24.3219 35.2353C25.477 34.9759 24.542 33.7516 24.85 33.1602ZM26.544 35.2353C28.2601 35.1627 30.0532 34.8825 30.5812 33.596C30.9332 32.7348 29.1401 31.9462 28.3811 31.0747C28.2539 30.9252 28.1059 30.7925 27.9411 30.6804C27.039 30.0683 26.566 30.2861 26.566 31.3445L26.544 35.2353ZM19.7568 26.6028C20.4828 26.6028 21.0328 26.6028 21.5828 26.6028C22.8039 26.5406 22.8479 25.9906 22.1219 25.254C21.3958 24.5173 20.5818 23.7806 19.8008 23.044C19.4268 22.6912 19.0637 22.4214 18.7007 23.044C18.0187 24.0815 17.1717 25.1191 17.6007 26.25C17.8207 27.0697 19.1077 26.3953 19.7568 26.6028ZM31.3072 26.6028C31.9232 26.6028 32.5392 26.6028 33.1553 26.6028C33.5513 26.6028 34.0573 26.6028 33.9803 26.0425C33.9925 25.4232 33.8576 24.8091 33.5854 24.2454C33.3132 23.6816 32.9106 23.1825 32.4072 22.7846C31.6042 22.3177 31.0982 23.6146 30.4382 24.0815C30.0686 24.3679 29.7297 24.6876 29.4261 25.0361C29.1181 25.3474 28.6121 25.6171 28.8321 26.1567C29.0521 26.6962 29.6131 26.5613 30.0752 26.5821C30.5372 26.6028 30.9002 26.6028 31.3072 26.5924V26.6028ZM27.3691 27.4121C27.204 26.4368 26.632 25.8246 25.598 25.8869C25.3731 25.8824 25.1499 25.9248 24.9444 26.0111C24.7389 26.0973 24.556 26.2252 24.4089 26.3858C24.2619 26.5463 24.1541 26.7355 24.0935 26.9398C24.0328 27.1441 24.0207 27.3585 24.0579 27.5677C24.057 27.7622 24.0993 27.9548 24.1821 28.1329C24.265 28.311 24.3865 28.4708 24.5389 28.6018C24.6913 28.7328 24.8712 28.8322 25.0669 28.8936C25.2626 28.955 25.4697 28.9769 25.675 28.9581C26.753 28.9477 27.248 28.3459 27.3691 27.4017V27.4121ZM49.7439 26.1567C49.6339 27.6922 49.5349 29.0099 49.4359 30.421C51.823 29.176 51.933 27.7752 49.7439 26.1463V26.1567ZM23.4529 4.84517C24.4099 4.84517 25.213 4.89705 25.994 4.84517C26.599 4.7933 27.6441 5.40546 27.6991 4.50278C27.7541 3.6001 26.676 3.33034 25.851 3.29921C25.3204 3.23813 24.7843 3.36135 24.343 3.64586C23.9017 3.93036 23.5853 4.35669 23.4529 4.84517Z" fill="#969696"/>
</g>
<defs>
<clipPath id="clip0_25_3452">
<rect width="53" height="50" fill="white"/>
</clipPath>
</defs>
</svg>
