<svg width="58" height="45" viewBox="0 0 58 45" fill="none" xmlns="http://www.w3.org/2000/svg">
<g clip-path="url(#clip0_25_3448)">
<path d="M43.6871 9.43234C45.8112 11.9918 45.8112 11.9918 43.3027 13.8885C40.7941 15.7852 38.3969 17.7328 35.8276 19.4765C33.9159 20.7716 34.2901 22.2807 34.8161 24.0754C35.3421 25.8701 36.0906 26.7369 37.9417 26.6961C38.9289 26.6792 39.9153 26.7647 40.8852 26.951C44.9312 27.7158 48.5221 27.1652 51.7387 24.1774C53.8932 22.138 54.7024 22.6988 56.2399 25.2787C56.9982 26.4846 57.4916 27.8402 57.687 29.2543C57.8824 30.6684 57.7753 32.1083 57.3728 33.4772C56.5231 36.6281 56.0073 39.881 55.4206 43.1033C55.4133 43.3881 55.3451 43.668 55.2206 43.9238C55.0962 44.1796 54.9183 44.4052 54.6993 44.5853C54.4804 44.7654 54.2254 44.8957 53.9518 44.9673C53.6782 45.0389 53.3926 45.05 53.1143 45C38.8925 45 24.6707 45 10.459 45C9.59917 45 8.66858 45 8.50674 43.9803C7.86949 39.6567 4.78438 36.7403 2.52871 33.365C1.31507 31.7058 0.611619 29.7237 0.50569 27.6648C0.394424 24.0856 0.151661 20.5268 -0.0304112 16.9272C-0.166632 15.5094 0.132982 14.0836 0.827804 12.8432C1.52263 11.6028 2.57904 10.6078 3.85379 9.99319C8.75961 7.29094 13.6553 4.56831 18.5713 1.83547C19.1497 1.41651 19.833 1.16923 20.5437 1.12167C25.3484 1.57034 29.9609 -0.203959 34.7959 0.0203787C41.8158 0.33649 48.8559 0.0917588 55.8859 0.112153C56.6142 0.112153 57.5245 -0.16317 57.9089 0.703587C58.2933 1.57034 57.3627 1.99862 56.9581 2.57986C54.1259 6.65872 49.8067 7.91297 45.3156 8.8613C44.7619 9.01872 44.2181 9.2094 43.6871 9.43234ZM32.6818 4.97619C31.1534 3.76324 29.293 3.05149 27.3512 2.93676C22.8076 2.46394 18.245 3.63101 14.4746 6.23044C12.6207 7.40588 10.7062 8.48148 8.73938 9.45274C1.83077 13.2767 1.91169 12.7056 2.06342 21.2406C2.17468 27.5425 3.7931 32.8042 7.81891 37.5051C8.17363 38.0187 8.64986 38.4351 9.20445 38.7164C9.75905 38.9977 10.3745 39.1352 10.9951 39.1162C22.8702 39.0652 34.7453 39.1162 46.6204 39.0653C49.1593 39.0653 52.5378 40.1971 54.0348 38.586C55.5319 36.9748 55.2891 33.5894 55.8353 30.9891C56.0882 29.796 56.0983 28.399 55.0868 27.93C54.0753 27.4609 53.5999 28.8987 53.0031 29.5717C51.3948 31.4072 49.9685 33.3854 47.1262 33.3141C43.8793 33.2325 40.6222 33.3141 37.3752 33.3141C33.2078 33.2121 30.4262 31.0809 28.9999 27.1958C27.9884 24.3304 26.8758 21.4854 25.9654 18.5792C25.485 16.8253 24.4116 15.2959 22.9309 14.2556C20.5842 12.5935 20.746 11.1964 23.2748 9.89121C26.3194 8.1679 29.4248 6.62813 32.6818 4.97619ZM32.6818 2.13119C35.7164 5.08836 35.5849 5.71039 31.8423 7.60705L27.5838 9.75865C23.2343 11.9612 23.3051 11.8593 27.0882 14.949C28.7066 16.2746 29.8091 16.1931 31.3669 14.949C37.0819 10.3807 43.1712 6.52616 50.5856 5.38408C52.3355 5.11895 53.2661 3.67095 54.4091 2.13119H32.6818ZM53.6707 25.707L53.3571 25.3195C51.9511 26.3392 50.5148 27.2773 49.1492 28.3786C48.6823 28.7619 48.1429 29.0454 47.5638 29.212C46.9848 29.3785 46.3782 29.4246 45.7809 29.3474C42.9992 29.0517 40.2176 28.7559 37.4359 28.6336C34.6543 28.5112 33.572 27.0632 32.9347 24.6567C31.9232 21.0163 32.1053 19.9864 34.4216 18.2019C36.738 16.4174 39.2668 14.5717 41.664 12.7158C42.099 12.3691 43.1105 12.1754 42.4328 11.1965C41.7551 10.2175 41.1684 10.4011 40.339 10.9925C37.5775 13.0319 34.7655 14.9184 31.9738 16.8661C30.8207 17.6818 29.7282 18.6404 27.9783 18.467C29.1011 21.5975 30.0013 24.5037 31.1848 27.2977C31.6331 28.4873 32.4337 29.509 33.4778 30.2241C34.5219 30.9392 35.759 31.3131 37.0212 31.295C40.4199 31.3766 43.8186 31.295 47.2172 31.295C47.7455 31.313 48.2707 31.2073 48.7516 30.9861C49.2325 30.7649 49.656 30.4344 49.9888 30.0204L53.6707 25.707ZM31.6096 43.0421H50.4338C50.889 43.0421 51.3341 43.0421 51.7893 43.0421C52.6187 43.0421 53.61 43.1849 53.61 41.9306C53.61 40.6764 52.5378 41.1251 51.9005 41.1251C38.5216 41.1251 25.1393 41.1251 11.7537 41.1251H11.076C10.5298 41.1251 9.97343 41.1761 10.0645 41.9612C10.115 42.5425 10.3477 42.9809 10.9951 43.0523C11.6424 43.1237 12.0066 43.0523 12.5831 43.0523L31.6096 43.0421Z" fill="#0A5BFC"/>
<path d="M22.2329 22.9232C22.251 24.1818 21.8971 25.4174 21.2164 26.4727C20.5357 27.5279 19.559 28.3551 18.4104 28.849C17.2619 29.3429 15.9936 29.481 14.7669 29.2459C13.5403 29.0108 12.4107 28.4131 11.5221 27.5288C10.6335 26.6445 10.0259 25.5137 9.77685 24.2802C9.52776 23.0467 9.64838 21.7665 10.1233 20.6023C10.5983 19.4382 11.4061 18.4428 12.444 17.743C13.4818 17.0431 14.7028 16.6704 15.9514 16.6723C17.5971 16.6929 19.1709 17.3555 20.3422 18.5211C21.5135 19.6867 22.1912 21.2645 22.2329 22.9232ZM15.911 27.4099C17.0576 27.3921 18.1534 26.9299 18.9709 26.1191C19.7884 25.3083 20.2647 24.2112 20.3009 23.0557C20.293 21.9007 19.8343 20.7952 19.0241 19.9785C18.214 19.1617 17.1174 18.6994 15.9717 18.6913C15.4037 18.6776 14.8388 18.7794 14.3107 18.9906C13.7826 19.2019 13.3022 19.5183 12.8981 19.9209C12.494 20.3235 12.1745 20.8041 11.9588 21.3339C11.7431 21.8638 11.6355 22.432 11.6424 23.0047C11.6344 23.5769 11.7386 24.145 11.949 24.6765C12.1594 25.2079 12.472 25.6923 12.8686 26.1016C13.2652 26.5109 13.7382 26.8372 14.2603 27.0617C14.7824 27.2863 15.3434 27.4046 15.911 27.4099Z" fill="#0A5BFC"/>
<path d="M14.9301 37.1788C13.3646 37.2409 11.8235 36.7725 10.5529 35.8484C9.28232 34.9242 8.35548 33.5976 7.92035 32.0802C7.76346 31.7474 7.70842 31.3749 7.76226 31.0104C7.81611 30.6459 7.97639 30.3058 8.22268 30.0334C8.46897 29.7611 8.79012 29.5688 9.1452 29.4811C9.50028 29.3935 9.87322 29.4144 10.2165 29.5411C12.8262 30.2957 15.3853 31.2441 17.9343 32.1924C19.4718 32.7634 19.4718 34.1299 19.2594 35.4657C19.047 36.8015 18.1771 37.1992 16.9734 37.189L14.9301 37.1788ZM10.1861 31.5602C11.1976 34.7519 13.1195 35.792 15.9619 35.2821C16.4474 35.1904 17.1049 35.4147 17.2768 34.7213C17.4488 34.0279 16.8419 33.8239 16.3563 33.7016C14.394 32.9776 12.4519 32.3148 10.1861 31.5602Z" fill="#0A5BFC"/>
</g>
<defs>
<clipPath id="clip0_25_3448">
<rect width="58" height="45" fill="white"/>
</clipPath>
</defs>
</svg>
