<svg width="56" height="56" viewBox="0 0 56 56" fill="none" xmlns="http://www.w3.org/2000/svg">
<g clip-path="url(#clip0_25_3419)">
<path d="M56.0002 27.9144C55.9805 33.3496 54.3209 38.6572 51.2312 43.1669C48.1414 47.6766 43.7601 51.1861 38.6404 53.2521C33.5207 55.3182 27.8923 55.8482 22.466 54.7752C17.0398 53.7022 12.059 51.0743 8.15281 47.2234C4.24658 43.3725 1.59008 38.4713 0.518793 33.1388C-0.552492 27.8063 0.00948904 22.2816 2.13376 17.2626C4.25803 12.2435 7.84932 7.95511 12.4541 4.93899C17.0588 1.92287 22.4705 0.314291 28.0057 0.316408C35.4423 0.339469 42.566 3.25798 47.814 8.43173C53.0621 13.6055 56.0061 20.612 56.0002 27.9144ZM27.7618 2.24337C22.6127 2.28214 17.5908 3.81825 13.3302 6.65772C9.06961 9.49719 5.76139 13.5127 3.8233 18.1971C1.88521 22.8816 1.40417 28.0249 2.44092 32.9776C3.47767 37.9304 5.98572 42.4704 9.64837 46.0244C13.311 49.5784 17.964 51.987 23.0197 52.946C28.0755 53.9051 33.3073 53.3716 38.0544 51.4129C42.8016 49.4542 46.8513 46.1582 49.6921 41.941C52.5329 37.7238 54.0374 32.7747 54.0156 27.7184C53.96 20.9261 51.1662 14.432 46.2458 9.65755C41.3254 4.88312 34.6792 2.21723 27.7618 2.24337Z" fill="#969696"/>
<path d="M28.2495 5.5094C32.7578 5.55606 37.1501 6.9183 40.8678 9.42287C44.5856 11.9274 47.4607 15.4612 49.1276 19.5746C50.7945 23.6881 51.1779 28.1955 50.229 32.5235C49.28 36.8515 47.0416 40.8046 43.7985 43.88C40.5553 46.9554 36.454 49.0142 32.016 49.7945C27.578 50.5749 23.004 50.0415 18.8755 48.2622C14.7471 46.4829 11.2509 43.5382 8.83145 39.8025C6.41203 36.0667 5.17876 31.7088 5.28847 27.2829C5.33753 24.3721 5.97066 21.4993 7.15161 18.8289C8.33257 16.1586 10.0382 13.7431 12.1708 11.7208C14.3035 9.69839 16.8214 8.10882 19.5803 7.043C22.3393 5.97718 25.2852 5.45604 28.2495 5.5094ZM43.9264 23.4073C44.7911 22.4166 48.6272 25.5084 47.6072 21.0884C45.9109 13.7289 36.7753 7.42547 28.0277 7.40369C19.2802 7.38192 10.1889 13.6636 8.38172 21.0339C8.15998 21.9267 7.48368 23.429 9.21324 23.3419C11.7521 23.2004 14.6458 24.6375 16.7634 22.0464C17.2734 21.504 17.907 21.0879 18.6124 20.8324C19.3177 20.577 20.0747 20.4893 20.8212 20.5767C25.4777 20.5767 30.1232 20.4569 34.7797 20.4243C36.2875 20.4243 37.9616 20.4243 38.8707 21.7634C40.0792 23.5923 41.7755 23.5488 43.9264 23.4073ZM28.3049 22.4057H21.1095C19.8789 22.4057 18.748 22.4928 18.116 23.8318C16.1315 28.0015 21.8523 37.473 26.5975 37.8322C31.3427 38.1915 37.5514 33.1618 38.1501 28.3607C38.7931 23.244 38.0614 22.4166 32.8173 22.3948L28.3049 22.4057ZM43.8266 30.2986C42.4518 30.5599 40.7333 29.7542 39.3918 31.3873C37.0414 34.2396 34.6799 37.0919 32.2408 39.8681C30.6332 41.7079 30.8216 45.0719 32.0745 46.9662C33.1831 48.6319 35.6001 46.8138 37.241 46.0191C41.8937 43.8203 45.5035 39.9442 47.319 35.1976C49.2481 30.5054 49.0818 30.2877 43.8488 30.2986H43.8266ZM12.4395 30.2986C6.99586 30.2986 6.75194 30.5816 8.5702 35.0888C9.65834 37.9324 11.3905 40.4959 13.6358 42.5857C15.8811 44.6754 18.5808 46.2366 21.5308 47.1513C22.451 47.4561 24.2693 48.5013 24.4467 46.6505C24.6684 44.2881 25.766 41.4902 23.5819 39.5523C21.4277 37.5109 19.4854 35.2645 17.7834 32.8461C16.2756 30.7994 14.6015 29.8413 12.4617 30.2986H12.4395ZM44.1148 28.1757C45.5561 27.5987 48.2835 29.199 48.4498 26.8366C48.6161 24.4742 45.9109 25.4213 44.5472 25.5411C43.1835 25.6608 40.3786 24.1367 40.3675 26.9672C40.3675 28.916 42.7844 27.7402 44.137 28.1757H44.1148ZM11.4195 28.1757C12.7056 27.4789 15.311 29.199 15.2667 26.6189C15.2667 24.6375 12.8941 25.4104 11.5858 25.454C10.2776 25.4975 7.57238 24.5068 7.50585 26.7059C7.45042 29.199 10.1224 27.5333 11.4417 28.2192L11.4195 28.1757ZM29.724 44.2554C28.9258 43.2756 30.6886 40.6084 27.9834 40.7934C26.0654 40.935 26.9412 43.2103 26.9634 44.5058C26.9856 45.8014 25.9877 48.0005 28.2051 48.0114C30.4225 48.0223 29.2695 45.7687 29.724 44.2554Z" fill="#969696"/>
<path d="M31.5088 28.3281C31.2317 30.3313 30.2006 31.5941 28.0497 31.6812C27.1676 31.6971 26.3152 31.3683 25.68 30.767C25.0448 30.1657 24.6788 29.3413 24.6627 28.4751C24.6465 27.6089 24.9814 26.7718 25.5937 26.1481C26.2061 25.5244 27.0456 25.1651 27.9278 25.1492C30.1119 25.0403 31.0875 26.3685 31.5088 28.3281Z" fill="#969696"/>
</g>
<defs>
<clipPath id="clip0_25_3419">
<rect width="56" height="55" fill="white" transform="translate(0 0.316406)"/>
</clipPath>
</defs>
</svg>
