<svg width="25" height="25" viewBox="0 0 25 25" fill="none" xmlns="http://www.w3.org/2000/svg">
<path d="M12.4312 24.8798C9.55313 24.8778 6.7648 23.8778 4.54133 22.0504C2.31785 20.223 0.796792 17.6813 0.237323 14.8581C-0.322147 12.0349 0.114589 9.10514 1.47312 6.56789C2.83165 4.03064 5.02791 2.043 7.68769 0.943534C10.3475 -0.155929 13.3062 -0.299194 16.0597 0.53827C18.8132 1.37573 21.1912 3.14209 22.7884 5.53628C24.3856 7.93047 25.1033 10.8044 24.819 13.6684C24.5348 16.5324 23.2663 19.2092 21.2297 21.2428C20.0752 22.3989 18.7035 23.3155 17.1935 23.9397C15.6836 24.5639 14.0651 24.8834 12.4312 24.8798ZM12.4312 0.69257C10.4951 0.688725 8.58801 1.16292 6.8792 2.07308C5.17038 2.98325 3.71271 4.30117 2.63556 5.90996C1.55841 7.51874 0.89511 9.36857 0.70453 11.2953C0.51395 13.2219 0.801988 15.166 1.54308 16.9546C2.28417 18.7432 3.45539 20.3212 4.95277 21.5485C6.45015 22.7758 8.22737 23.6145 10.1267 23.99C12.026 24.3655 13.9887 24.2664 15.8405 23.7013C17.6922 23.1362 19.3759 22.1227 20.7419 20.7506C22.38 19.1053 23.4945 17.0118 23.9449 14.7341C24.3953 12.4564 24.1613 10.0963 23.2726 7.95127C22.3838 5.80629 20.8801 3.97246 18.9508 2.68071C17.0215 1.38897 14.753 0.697181 12.4312 0.69257Z" fill="#949494"/>
<path d="M7.33978 17.8803C7.24725 17.8799 7.15839 17.844 7.0915 17.7801C7.02633 17.7148 6.98975 17.6263 6.98975 17.534C6.98975 17.4418 7.02633 17.3532 7.0915 17.2879L17.1619 7.22187C17.2266 7.15718 17.3143 7.12085 17.4058 7.12085C17.4973 7.12085 17.5851 7.15718 17.6498 7.22187C17.7144 7.28656 17.7508 7.37433 17.7508 7.46582C17.7508 7.55731 17.7144 7.64497 17.6498 7.70966L7.5837 17.7801C7.51815 17.8434 7.43089 17.8792 7.33978 17.8803Z" fill="#949494"/>
<path d="M17.4055 17.8801C17.3142 17.8799 17.2266 17.8439 17.1615 17.7799L7.09113 7.70943C7.05899 7.67745 7.03351 7.63952 7.01611 7.59766C6.99871 7.5558 6.98975 7.51092 6.98975 7.46559C6.98975 7.42025 6.99871 7.37537 7.01611 7.33351C7.03351 7.29165 7.05899 7.25362 7.09113 7.22164C7.15645 7.15648 7.24496 7.11987 7.33723 7.11987C7.4295 7.11987 7.518 7.15648 7.58333 7.22164L17.6581 17.2876C17.7058 17.3363 17.7382 17.3981 17.7513 17.465C17.7643 17.532 17.7575 17.6012 17.7315 17.6643C17.7055 17.7274 17.6616 17.7814 17.6052 17.8198C17.5488 17.8581 17.4824 17.8791 17.4142 17.8801H17.4055Z" fill="#949494"/>
</svg>
