<svg width="21" height="22" viewBox="0 0 21 22" fill="none" xmlns="http://www.w3.org/2000/svg">
<g clip-path="url(#clip0_25_94)">
<path d="M21.0002 11.221C20.9928 13.2963 20.3705 15.3228 19.2118 17.0447C18.0532 18.7666 16.4101 20.1066 14.4903 20.8954C12.5704 21.6843 10.4597 21.8866 8.42489 21.4769C6.39004 21.0673 4.52226 20.0639 3.05742 18.5935C1.59259 17.1232 0.596401 15.2518 0.194669 13.2158C-0.207062 11.1797 0.00368046 9.07032 0.800283 7.15394C1.59689 5.23757 2.94362 3.60019 4.6704 2.44858C6.39719 1.29697 8.42657 0.682786 10.5023 0.683595C13.291 0.6924 15.9624 1.80674 17.9304 3.78217C19.8984 5.7576 21.0024 8.43283 21.0002 11.221ZM10.4108 1.41934C8.4799 1.43415 6.59668 2.02066 4.99895 3.10482C3.40123 4.18899 2.16064 5.72217 1.43386 7.51078C0.707076 9.29939 0.526686 11.2632 0.915468 13.1542C1.30425 15.0453 2.24477 16.7787 3.61826 18.1357C4.99175 19.4927 6.73662 20.4124 8.63252 20.7785C10.5284 21.1447 12.4903 20.941 14.2705 20.1932C16.0507 19.4453 17.5694 18.1868 18.6347 16.5766C19.7 14.9664 20.2641 13.0767 20.256 11.1462C20.2351 8.55274 19.1874 6.07318 17.3423 4.25021C15.4972 2.42725 13.0048 1.40936 10.4108 1.41934Z" fill="#949494"/>
<path d="M10.5934 2.66646C12.284 2.68428 13.9311 3.2044 15.3253 4.16069C16.7194 5.11698 17.7976 6.46622 18.4227 8.03682C19.0478 9.60742 19.1915 11.3284 18.8357 12.9809C18.4798 14.6334 17.6404 16.1428 16.4242 17.317C15.2081 18.4913 13.6701 19.2774 12.0058 19.5753C10.3416 19.8733 8.6263 19.6696 7.07815 18.9903C5.52999 18.3109 4.2189 17.1865 3.31161 15.7602C2.40433 14.3338 1.94185 12.6699 1.98299 10.98C2.00139 9.86857 2.23881 8.77169 2.68167 7.7521C3.12453 6.73252 3.76413 5.81025 4.56388 5.03807C5.36363 4.26589 6.30782 3.65897 7.34243 3.25202C8.37704 2.84507 9.48176 2.64609 10.5934 2.66646ZM16.4722 9.50019C16.7965 9.12192 18.235 10.3024 17.8525 8.6148C17.2164 5.80482 13.7906 3.39805 10.5102 3.38974C7.22988 3.38142 3.82065 5.77988 3.14296 8.59401C3.05981 8.93487 2.8062 9.5085 3.45478 9.47525C4.40687 9.42121 5.492 9.9699 6.2861 8.98059C6.47733 8.77347 6.71494 8.61462 6.97945 8.51708C7.24396 8.41953 7.52783 8.38607 7.80778 8.41943C9.55397 8.41943 11.296 8.3737 13.0422 8.36123C13.6076 8.36123 14.2354 8.36123 14.5763 8.87252C15.0295 9.57085 15.6656 9.55423 16.4722 9.50019ZM10.6142 9.11777H7.91588C7.45439 9.11777 7.03031 9.15102 6.79333 9.6623C6.04912 11.2543 8.19444 14.8707 9.97389 15.0079C11.7533 15.1451 14.0816 13.2247 14.3061 11.3915C14.5472 9.43784 14.2728 9.12192 12.3063 9.11361L10.6142 9.11777ZM16.4348 12.1314C15.9192 12.2312 15.2748 11.9236 14.7717 12.5471C13.8903 13.6362 13.0048 14.7252 12.0901 15.7852C11.4873 16.4877 11.5579 17.7722 12.0277 18.4954C12.4435 19.1314 13.3499 18.4372 13.9652 18.1338C15.7099 17.2943 17.0636 15.8143 17.7444 14.002C18.4678 12.2104 18.4055 12.1273 16.4431 12.1314H16.4348ZM4.66464 12.1314C2.62326 12.1314 2.5318 12.2395 3.21364 13.9604C3.62169 15.0462 4.27126 16.025 5.11325 16.8229C5.95524 17.6207 6.96761 18.2168 8.07387 18.5661C8.41895 18.6825 9.10079 19.0815 9.16731 18.3749C9.25046 17.4729 9.66207 16.4046 8.84302 15.6647C8.03521 14.8852 7.30683 14.0275 6.6686 13.1041C6.10317 12.3226 5.47537 11.9568 4.67296 12.1314H4.66464ZM16.5429 11.3209C17.0834 11.1005 18.1061 11.7116 18.1685 10.8096C18.2309 9.90755 17.2164 10.2692 16.705 10.3149C16.1936 10.3606 15.1418 9.77869 15.1376 10.8595C15.1376 11.6035 16.044 11.1546 16.5512 11.3209H16.5429ZM4.28214 11.3209C4.76442 11.0548 5.74146 11.7116 5.72483 10.7264C5.72483 9.9699 4.8351 10.265 4.34451 10.2817C3.85391 10.2983 2.83946 9.92002 2.81451 10.7597C2.79372 11.7116 3.7957 11.0756 4.29046 11.3375L4.28214 11.3209ZM11.1463 17.4604C10.847 17.0863 11.508 16.0679 10.4936 16.1385C9.77432 16.1926 10.1028 17.0614 10.1111 17.556C10.1194 18.0507 9.74522 18.8903 10.5767 18.8945C11.4083 18.8986 10.9759 18.0382 11.1463 17.4604Z" fill="#949494"/>
<path d="M11.8161 11.3792C11.7121 12.1441 11.3255 12.6263 10.5189 12.6595C10.1881 12.6656 9.86843 12.54 9.63023 12.3104C9.39203 12.0809 9.25481 11.7661 9.24875 11.4354C9.24268 11.1046 9.36827 10.785 9.59789 10.5469C9.82752 10.3087 10.1424 10.1715 10.4732 10.1655C11.2922 10.1239 11.6581 10.631 11.8161 11.3792Z" fill="#949494"/>
</g>
<defs>
<clipPath id="clip0_25_94">
<rect width="21" height="21" fill="white" transform="translate(0 0.683594)"/>
</clipPath>
</defs>
</svg>
