<svg width="24" height="14" viewBox="0 0 24 14" fill="none" xmlns="http://www.w3.org/2000/svg">
<g clip-path="url(#clip0_25_90)">
<path d="M9.59368 13.6706C6.66451 13.6706 3.73136 13.6706 0.814164 13.6706C0.235514 13.6706 0.0160263 13.5533 0.0160263 12.8788C-0.0797502 6.11277 4.8288 0.758595 11.2698 0.699942C15.2605 0.658047 19.2511 0.699942 23.2418 0.674805C23.8644 0.674805 24.04 0.867521 24.016 1.5127C23.9801 3.47339 24.016 5.43826 24.016 7.378C23.9681 11.0396 21.5298 13.5868 18.03 13.6622H9.59368V13.6706ZM2.15504 12.7238C2.19893 12.7992 2.2149 12.8411 2.22687 12.8411C7.65021 12.8411 13.0775 12.8997 18.5049 12.816C19.5281 12.7814 20.5139 12.4036 21.3176 11.7378C22.1213 11.072 22.7005 10.1534 22.9705 9.11664C23.0583 8.78148 23.4374 8.27874 22.9026 8.01899C22.3679 7.75924 21.2265 8.0525 21.0669 8.52592C20.3246 10.6793 18.8042 11.6387 16.6771 11.668C15.4001 11.668 14.1191 11.668 12.8421 11.668C12.5308 11.668 11.9801 11.9236 12.012 11.2491C12.044 10.5746 12.5827 10.8972 12.886 10.8846C14.4424 10.805 16.0027 10.9391 17.5631 10.7882C18.88 10.6584 20.5561 9.00771 20.2967 7.67964C19.2192 9.3303 17.7906 10.2185 15.8511 9.9671C13.9116 9.71573 12.7663 8.40861 11.9841 6.29711C12.0282 7.15821 11.92 8.02044 11.6648 8.84013C11.4015 9.58586 10.8667 10.1179 10.4237 10.7338C10.7111 10.9852 11.3456 10.6877 11.2219 11.3622C11.1101 11.9068 10.6632 11.6638 10.3719 11.6722C8.77559 11.7099 7.17931 11.6722 5.58304 11.7351C4.38156 11.7725 3.2061 12.1116 2.15504 12.7238ZM20.0892 5.4215C20.0982 4.91329 20.0111 4.40825 19.833 3.93558C19.6549 3.46291 19.3894 3.03199 19.0517 2.66773C18.714 2.30348 18.3109 2.01311 17.8656 1.81341C17.4204 1.61372 16.9418 1.50867 16.4577 1.50433C15.4962 1.51469 14.5758 1.91517 13.8892 2.6219C13.2026 3.32863 12.8031 4.28681 12.7743 5.29582C12.7645 6.30445 13.1325 7.27673 13.7991 8.00317C14.4657 8.72962 15.3775 9.15206 16.3379 9.17948C16.8219 9.20208 17.3051 9.12169 17.7587 8.94314C18.2122 8.76458 18.6267 8.49156 18.9771 8.1405C19.3275 7.78943 19.6067 7.36758 19.7978 6.90031C19.9889 6.43304 20.0881 5.93002 20.0892 5.4215ZM4.29803 7.20623C4.30119 8.16522 4.66547 9.08398 5.3114 9.7621C5.95734 10.4402 6.83251 10.8226 7.74599 10.8259C8.66574 10.8204 9.54571 10.4315 10.1923 9.74481C10.8389 9.05812 11.1992 8.1299 11.1939 7.16433C11.1887 6.19877 10.8182 5.27495 10.1641 4.59612C9.51001 3.9173 8.62583 3.53905 7.70608 3.54461C6.79194 3.55676 5.91973 3.94911 5.28081 4.63557C4.64189 5.32202 4.28845 6.24652 4.29803 7.20623ZM0.79022 12.4682C2.1891 11.6503 3.71648 11.1025 5.2997 10.8511C3.3283 8.99933 3.07688 6.95067 4.10249 4.61712C1.92357 6.72443 0.878015 9.29678 0.79022 12.4682ZM6.52484 2.80307C9.15071 2.38412 10.9425 3.4692 11.9721 6.03736C11.9234 5.18324 12.0679 4.32914 12.3939 3.54491C12.7199 2.76069 13.2181 2.06861 13.8478 1.52527C11.1979 1.44567 8.75563 1.38702 6.52484 2.80307ZM22.2282 3.93842C22.5155 3.78341 23.1381 4.2275 23.174 3.56975C23.2139 2.7905 22.5435 3.20526 22.1843 3.12147C21.9702 3.07024 21.7469 3.08037 21.5378 3.1508C21.4765 3.16858 21.4208 3.20314 21.3764 3.25092C21.332 3.2987 21.3005 3.35801 21.2851 3.42277C21.2697 3.48753 21.2709 3.55543 21.2886 3.61953C21.3064 3.68363 21.3401 3.74162 21.3862 3.7876C21.5897 4.03897 21.9249 3.89234 22.2282 3.93842ZM22.2721 7.18109C22.4557 7.18109 22.6432 7.18109 22.8308 7.18109C23.0982 7.18109 23.2658 7.05122 23.1979 6.76214C23.0144 6.01641 22.4317 6.48144 22.0446 6.40184C21.8012 6.35157 21.3822 6.19237 21.3024 6.70349C21.2505 7.02189 21.3902 7.19366 21.7014 7.1769C21.9089 7.17271 22.0965 7.18109 22.2841 7.18109H22.2721ZM22.2282 4.73861C21.9209 4.89363 21.3502 4.504 21.3343 5.11986C21.3343 5.88654 21.9608 5.53881 22.316 5.53881C22.6712 5.53881 23.2538 5.82788 23.1939 5.11986C23.1341 4.41183 22.5395 4.92714 22.2282 4.73861ZM22.2841 2.33385C22.5874 2.14113 23.2219 2.62292 23.1939 1.88138C23.166 1.13984 22.5714 1.52527 22.2442 1.52108C21.9169 1.51689 21.3063 1.19849 21.3303 1.94003C21.3542 2.68157 21.9688 2.14532 22.2841 2.33385ZM20.4045 3.27229C20.588 1.3535 20.4603 1.21944 19.1753 1.68447C19.6649 2.1397 20.0801 2.67608 20.4045 3.27229Z" fill="#949494"/>
<path d="M18.1694 5.37976C18.1509 5.85886 17.9574 6.31207 17.6289 6.64522C17.3004 6.97836 16.8623 7.16584 16.4055 7.16868C15.9482 7.1469 15.5173 6.93765 15.2054 6.58591C14.8935 6.23417 14.7254 5.768 14.7374 5.28759C14.7578 4.82514 14.9462 4.38848 15.2639 4.06742C15.5816 3.74636 16.0045 3.56531 16.4454 3.56152C16.9021 3.56807 17.3382 3.762 17.6604 4.10181C17.9826 4.44162 18.1653 4.90032 18.1694 5.37976ZM16.3975 4.38685C16.1582 4.41015 15.9367 4.52941 15.779 4.71981C15.6214 4.91022 15.5397 5.15712 15.551 5.40914C15.5623 5.66116 15.6657 5.8989 15.8397 6.0729C16.0138 6.24691 16.245 6.34377 16.4853 6.34335C16.6089 6.34733 16.7319 6.32386 16.8463 6.27447C16.9606 6.22508 17.0638 6.15089 17.1489 6.05676C17.2341 5.96262 17.2993 5.85067 17.3404 5.72823C17.3814 5.60579 17.3974 5.47562 17.3872 5.34625C17.3915 5.21213 17.3682 5.07863 17.3189 4.95482C17.2696 4.83101 17.1954 4.71981 17.1015 4.62877C17.0076 4.53774 16.8961 4.46901 16.7747 4.42726C16.6532 4.38552 16.5245 4.37173 16.3975 4.38685Z" fill="#949494"/>
<path d="M10.7311 6.41467C10.8029 6.68699 10.6712 6.74983 10.5156 6.83362C9.85711 7.11851 9.98881 7.36988 10.5555 7.57936C10.8069 7.67571 10.759 7.85167 10.7231 8.04858C10.6872 8.24548 10.5914 8.3586 10.352 8.36279C9.43809 8.38374 8.99512 8.98702 8.83151 9.85006C8.78761 10.0931 8.7916 10.2941 8.50826 10.336C8.46452 10.3506 8.41839 10.3556 8.37273 10.3507C8.32707 10.3458 8.28285 10.3312 8.24282 10.3076C8.20279 10.284 8.16779 10.2521 8.14 10.2137C8.11221 10.1754 8.09222 10.1315 8.08126 10.0847C7.81388 9.27191 7.5904 9.58612 7.39087 10.1224C7.30307 10.3612 7.14344 10.3779 6.94391 10.336C6.66855 10.2774 6.65259 10.1182 6.66456 9.84168C6.6925 9.24677 5.82652 8.33346 5.25585 8.35022C4.99645 8.35022 4.85678 8.32927 4.761 8.06115C4.64128 7.70923 4.82885 7.6422 5.09223 7.5207C5.62698 7.29447 5.52322 7.03053 5.05232 6.85876C4.81687 6.77497 4.65325 6.68699 4.74903 6.38954C4.80889 6.2052 4.86077 6.046 5.11617 6.02924C6.07394 5.97478 6.61268 5.45109 6.64062 4.42048C6.63379 4.3397 6.65697 4.25929 6.70531 4.19604C6.75366 4.1328 6.82342 4.09162 6.90001 4.08113C7.08358 4.03085 7.27514 3.99315 7.37091 4.23614C7.5904 4.80591 7.81388 5.15783 8.09722 4.26965C8.17703 4.02666 8.3646 4.03504 8.55615 4.07275C8.7477 4.11045 8.80357 4.28222 8.83151 4.4917C8.88917 4.89432 9.07535 5.26446 9.35954 5.5415C9.64374 5.81855 10.0091 5.98608 10.3959 6.01667C10.7271 6.046 10.6832 6.27642 10.7311 6.41467ZM9.25851 7.21487C9.27039 6.80095 9.12612 6.39885 8.85709 6.09602C8.58805 5.79318 8.21601 5.6141 7.82186 5.59772C7.61759 5.58346 7.41269 5.61288 7.21957 5.6842C7.02644 5.75552 6.84913 5.86726 6.69835 6.01264C6.54758 6.15802 6.42649 6.33403 6.34242 6.52999C6.25835 6.72595 6.21304 6.9378 6.20926 7.15268C6.20547 7.36756 6.24328 7.58102 6.32039 7.78011C6.3975 7.9792 6.51231 8.15979 6.65786 8.31093C6.80341 8.46206 6.97668 8.58061 7.16715 8.65938C7.35763 8.73814 7.56136 8.7755 7.76599 8.76917C8.15977 8.76918 8.53759 8.60583 8.81715 8.3147C9.09671 8.02357 9.25535 7.62825 9.25851 7.21487Z" fill="#949494"/>
</g>
<defs>
<clipPath id="clip0_25_90">
<rect width="24" height="13" fill="white" transform="translate(0 0.683594)"/>
</clipPath>
</defs>
</svg>
