<svg width="22" height="20" viewBox="0 0 22 20" fill="none" xmlns="http://www.w3.org/2000/svg">
<g clip-path="url(#clip0_25_120)">
<path d="M0.363357 18.7173C-0.157597 18.3005 0.0206243 17.8263 0.0206243 17.424C0.0206243 12.7228 0.0206243 8.02159 0.0206243 3.32039C0.0206243 1.45236 0.706089 0.705148 2.44374 0.697963C6.97467 0.678804 11.5067 0.678804 16.0399 0.697963C17.781 0.697963 18.4391 1.45236 18.4665 3.32039C18.4665 3.85565 18.4836 4.3981 18.4665 4.93336C18.4494 5.46862 18.5282 5.93563 19.2136 5.853C20.0739 5.74523 20.2076 6.24098 20.2076 6.99897C20.2076 7.75695 20.0259 8.13056 19.2651 8.07667C18.7647 8.02997 18.4733 8.20241 18.5042 8.79515C18.535 9.51362 19.0149 9.35556 19.4056 9.3807C19.6866 9.3807 19.9677 9.3807 20.2487 9.3807C21.7739 9.3807 22.3257 10.2393 21.8595 11.7768C21.7224 12.2259 21.4448 12.2366 21.1158 12.2402C20.6017 12.2402 20.0876 12.2223 19.5735 12.2402C19.0594 12.2582 18.4254 12.0355 18.511 12.9335C18.5693 13.5514 18.0689 14.4926 19.3096 14.5357C20.2384 14.5717 19.8374 15.3943 19.8888 15.8972C19.9402 16.4002 20.0088 16.975 19.2719 16.9247C18.6447 16.8851 18.5076 17.1797 18.4562 17.7796C18.35 19.0765 17.5857 19.7123 16.369 19.6082C15.2551 19.5148 13.9698 20.1255 13.0787 18.8286C12.9451 18.6346 12.3658 18.7711 11.9923 18.7675C8.90768 18.7675 5.82309 18.7316 2.73849 18.7675C1.75485 18.7891 1.44639 18.4586 1.4601 17.4312C1.5058 13.7598 1.5058 10.0884 1.4601 6.417C1.4601 5.386 1.77199 5.04472 2.74877 5.07705C4.70909 5.18124 6.67318 5.18124 8.63349 5.07705C10.4397 4.94413 12.3213 5.70212 14.0727 4.35858C14.6279 3.93468 15.7246 4.35858 16.5438 4.21848C16.9653 4.17537 17.8221 5.15608 17.8427 3.81613C17.8667 2.77794 17.9558 1.67868 16.6294 1.3841C16.3517 1.33904 16.0703 1.32459 15.7897 1.341C11.3993 1.341 7.00894 1.341 2.61854 1.341C1.03511 1.341 0.620406 1.77567 0.616979 3.42816C0.599842 7.97968 0.616979 12.5348 0.616979 17.0791C0.616979 17.6 0.760926 18.1533 0.363357 18.7173ZM13.3049 5.8063C12.4412 6.69002 13.3872 8.12697 12.4481 8.60834C11.6084 9.03584 10.4397 8.78437 9.41835 8.78437C7.32768 8.78437 7.43736 9.0071 7.50248 6.87323C7.52989 5.98951 7.26599 5.63746 6.39545 5.69135C5.32234 5.75242 4.24687 5.75242 3.17376 5.69135C2.36149 5.64465 2.14557 5.98233 2.14557 6.7942C2.18327 9.19031 2.14557 11.59 2.14557 13.9789C2.14557 18.649 2.14557 18.649 6.63193 18.1964C7.19744 18.1425 7.4305 17.9808 7.48534 17.3486C7.69098 15.0997 7.71497 15.0997 9.93588 15.0997C10.5459 15.0997 11.1526 15.1393 11.7592 15.0997C12.5681 15.0387 12.8251 15.4266 12.8114 16.2277C12.8114 16.8564 12.6537 17.5354 13.2912 18.085L13.3049 5.8063ZM14.0727 11.8846C14.0727 13.8747 14.0727 15.8937 14.0727 17.8982C14.0727 18.2574 13.939 18.6885 14.3606 18.9436C15.8514 19.8381 17.8427 18.6993 17.8427 16.9354C17.8427 13.8568 17.8427 10.7781 17.8427 7.69588C17.8427 5.01957 17.5925 4.82199 15.0289 4.87588C14.196 4.89384 14.0487 5.25308 14.0727 6.01825C14.0932 7.9725 14.0727 9.92315 14.0727 11.8846ZM10.1964 18.1856C10.3369 18.1856 10.4774 18.1856 10.6179 18.1856C11.3856 18.1389 12.2699 18.5448 12.3007 17.0145C12.3316 15.4015 11.3925 15.7859 10.5871 15.7607C10.1224 15.7859 9.65681 15.7859 9.19215 15.7607C8.29076 15.6386 8.10226 16.0697 8.10568 16.9318C8.10911 17.794 8.24278 18.3688 9.23327 18.2107C9.55339 18.1796 9.87515 18.1712 10.1964 18.1856ZM10.2683 5.69494C7.99258 5.69494 8.03714 5.69494 8.09883 7.32228C8.12625 8.0659 8.44156 8.3461 9.03106 8.17726C10.0901 7.86473 11.6084 9.07176 12.1911 7.49471C12.7394 6.01825 12.287 5.70572 10.2683 5.70572V5.69494ZM19.93 11.6762C20.4715 11.5218 21.3009 12.0606 21.3009 10.832C21.3009 9.53877 20.3995 10.013 19.8203 9.98422C19.2411 9.95548 18.4699 9.62498 18.4699 10.8176C18.4699 12.1576 19.4193 11.4571 19.93 11.6762Z" fill="#949494"/>
<path d="M10.0557 14.0761C7.4783 14.0761 7.5537 14.0761 7.45774 11.3962C7.40976 10.0563 7.83132 9.64674 9.03088 9.81198C9.63459 9.85332 10.2402 9.85332 10.8439 9.81198C12.8078 9.81198 12.8249 9.81198 12.8078 11.8417C12.7804 14.5 13.1608 14.0258 10.0557 14.0761ZM10.1448 13.5157C12.4102 13.5157 12.4753 13.4151 12.2697 11.2346C12.2046 10.5808 11.927 10.4011 11.3889 10.4227C10.8323 10.4694 10.273 10.4694 9.71635 10.4227C8.49279 10.2574 8.11236 10.6742 8.05752 12.0572C7.97184 14.0366 9.2091 13.4008 10.1448 13.5157Z" fill="#949494"/>
</g>
<defs>
<clipPath id="clip0_25_120">
<rect width="22" height="19" fill="white" transform="translate(0 0.683594)"/>
</clipPath>
</defs>
</svg>
