<svg width="20" height="20" viewBox="0 0 20 20" fill="none" xmlns="http://www.w3.org/2000/svg">
<g clip-path="url(#clip0_25_118)">
<path d="M3.54924 0.691564C4.53721 0.691564 5.52517 0.691564 6.51728 0.691564C6.93239 0.691564 7.1441 0.78619 7.10259 1.22383C7.07769 1.56907 7.07769 1.91553 7.10259 2.26077C7.10259 2.46185 6.9822 2.79698 7.29769 2.81275C7.61317 2.82852 8.01168 2.86006 8.15281 2.45396C8.2382 2.12038 8.44313 1.82542 8.73247 1.61967C9.0218 1.41393 9.37749 1.31022 9.73853 1.32634C10.082 1.32124 10.4171 1.42683 10.6893 1.62589C10.9614 1.82495 11.1545 2.10573 11.2371 2.42242C11.3243 2.68658 11.5401 2.72207 11.7684 2.78121C15.4048 3.72352 17.692 5.93539 18.5389 9.42076C18.559 9.56441 18.6204 9.70001 18.7163 9.81269C18.8122 9.92536 18.939 10.0108 19.0827 10.0595C19.38 10.1639 19.6329 10.3582 19.8024 10.6126C19.9719 10.8669 20.0487 11.1672 20.0208 11.467C20.0304 11.7691 19.9329 12.0654 19.7439 12.3084C19.555 12.5515 19.2856 12.7273 18.9789 12.8076C18.4558 12.9337 18.4143 13.2846 18.3023 13.6158C17.7498 15.3363 16.6409 16.8478 15.1327 17.9356C13.6246 19.0235 11.794 19.6325 9.90082 19.6761C8.00763 19.7198 6.14807 19.1959 4.58615 18.1788C3.02424 17.1617 1.83935 15.7031 1.19972 14.0101C0.822895 13.0083 0.634608 11.9513 0.643475 10.8875C0.643475 9.35768 0.643475 7.82396 0.643475 6.29418C0.643475 5.9827 0.805368 5.57266 0.186854 5.56477C-0.0705145 5.56477 0.0166586 5.29667 0.0166586 5.14685C0.0166586 3.81026 0.0166586 2.47762 0.0166586 1.14104C0.0166586 0.774362 0.157796 0.683679 0.518942 0.687622C1.51521 0.703393 2.53223 0.691564 3.54924 0.691564ZM1.2869 8.81752C1.2869 9.58241 1.26614 10.3473 1.2869 11.1161C1.43633 16.3008 6.41765 20.0661 11.5733 18.8557C14.7199 18.1224 16.7954 16.2456 17.7211 13.3241C18.6468 10.4025 17.8996 7.7175 15.6456 5.53718C13.3915 3.35685 10.7016 2.74573 7.61317 3.40022C7.06523 3.5185 7.05692 3.82998 7.10674 4.21636C7.17316 4.70132 7.52185 4.43715 7.77506 4.42533C8.88924 4.30221 10.0181 4.39066 11.0959 4.68555C13.0677 5.31638 14.5372 6.46372 15.0104 8.45085C15.275 9.38278 15.2405 10.3685 14.9114 11.2817C14.5823 12.1949 13.9735 12.994 13.1632 13.5764C11.6646 14.7316 9.93364 15.2323 8.07395 14.432C6.21425 13.6316 5.74933 12.1649 5.79914 10.3946C5.84065 8.98706 5.79914 7.57951 5.79914 6.16801C5.79914 5.77374 5.74103 5.58449 5.25535 5.59632C4.10964 5.62786 2.96394 5.62392 1.81824 5.59632C1.35331 5.59632 1.24954 5.76585 1.26199 6.16407C1.29935 7.03541 1.2869 7.92647 1.2869 8.81752ZM6.45086 8.94764C8.58038 7.32323 10.0623 7.0709 11.6896 7.98955C13.2462 8.86878 13.8025 10.3552 13.35 12.4409C14.4044 11.5222 14.7946 9.73618 14.3047 8.2616C13.433 5.69094 10.2242 4.51601 7.43883 5.16262C7.11919 5.23753 6.45086 5.44649 6.45917 6.08127C6.45917 6.99599 6.45086 7.90676 6.45086 8.94764ZM3.51188 1.2948C2.73148 1.2948 1.94692 1.2948 1.16651 1.2948C0.917448 1.2948 0.606115 1.23172 0.635172 1.63388C0.66423 2.03603 0.958959 1.89015 1.16651 1.8941C2.31222 1.8941 3.45792 1.8941 4.60362 1.8941C4.84854 1.8941 5.16402 1.81918 5.14742 2.22134C5.13081 2.6235 4.84439 2.49733 4.63268 2.50128C3.93115 2.50128 3.22546 2.50128 2.52392 2.50128C0.572906 2.50128 0.589511 2.50128 0.618568 4.38984C0.618568 4.83143 0.734799 4.99702 1.22878 4.98125C2.32052 4.94971 3.41641 4.98125 4.5123 4.98125C6.52143 4.98125 6.52143 4.98125 6.43011 3.0572V2.98229C6.43011 2.75361 6.43011 2.52099 6.09802 2.50916C5.86971 2.50916 5.78254 2.38299 5.79499 2.17009C5.79295 2.133 5.79943 2.09593 5.81396 2.06146C5.8285 2.02698 5.85075 1.99591 5.87918 1.97041C5.90761 1.94491 5.94153 1.92559 5.9786 1.91377C6.01567 1.90195 6.055 1.89793 6.09387 1.90198C6.3803 1.90198 6.45086 1.7561 6.41765 1.50771C6.37614 1.20412 6.12293 1.27903 5.93613 1.27903C5.14327 1.29086 4.3421 1.2948 3.51188 1.2948ZM11.6314 8.7505C11.3617 8.46388 10.9971 8.27332 10.5978 8.21035C10.3903 8.17092 10.0789 7.89887 10.0208 8.36017C9.9959 8.57308 9.91703 8.67165 9.68457 8.6677C9.45211 8.66376 9.38569 8.52971 9.37324 8.33651C9.37324 8.24189 9.37324 8.11966 9.21135 8.12755C8.95137 8.1239 8.69357 8.17301 8.45518 8.27161C8.2168 8.3702 8.00332 8.51599 7.82903 8.69924C7.62978 8.95946 8.12791 9.12112 8.29395 9.34191C8.42892 9.49313 8.57603 9.63418 8.73397 9.76378C9.037 10.0555 9.30682 10.2014 9.37324 9.6179C9.39399 9.42471 9.41475 9.29065 9.66797 9.27882C9.92118 9.267 10.0291 9.39711 10.0167 9.63761C10.0042 9.87812 10.0457 9.98852 10.2989 9.9964C10.8084 9.64922 11.258 9.2289 11.6314 8.7505ZM8.51811 11.6642C8.48075 11.4552 8.33131 11.3961 8.12791 11.4C7.76676 11.4 7.40147 11.4 7.04032 11.4C6.77465 11.4 6.48407 11.4 6.5837 11.7943C6.68333 12.1886 6.79541 12.7051 7.27278 12.9495C7.36826 12.9771 8.52226 11.7785 8.51811 11.6642ZM11.9635 11.404C11.6646 11.404 11.4322 11.404 11.1956 11.404C10.959 11.404 10.7431 11.5814 10.905 11.7785C11.2602 12.1692 11.6386 12.5405 12.0382 12.8904C12.1337 12.9771 12.2333 12.9337 12.2998 12.8509C12.5903 12.4567 12.9058 12.0269 12.7896 11.5735C12.6941 11.2108 12.2001 11.4868 11.9635 11.404ZM9.37739 13.2846C9.38809 13.1192 9.38809 12.9533 9.37739 12.7879C9.37739 12.6065 9.48117 12.3699 9.23625 12.2595C8.99134 12.1491 8.82114 12.3778 8.65925 12.5197C8.41434 12.7405 8.17772 12.9653 7.94526 13.1979C7.84563 13.2965 7.66714 13.4187 7.84563 13.5567C8.01523 13.7291 8.22218 13.8646 8.45222 13.9538C8.68226 14.043 8.92992 14.0837 9.17814 14.0732C9.614 13.9746 9.26116 13.5094 9.37739 13.2846ZM10.0167 14.0732C10.6642 14.0456 11.3409 13.9391 11.5401 13.4502C11.6729 13.123 10.9963 12.8233 10.7099 12.4921C10.6619 12.4353 10.6061 12.3849 10.5438 12.3423C10.2035 12.1097 10.025 12.1925 10.025 12.5947L10.0167 14.0732ZM7.45543 10.7928C7.7294 10.7928 7.93696 10.7928 8.14451 10.7928C8.60528 10.7692 8.62189 10.5602 8.34792 10.2803C8.07395 10.0003 7.76676 9.72041 7.47203 9.44048C7.3309 9.30642 7.19391 9.20391 7.05692 9.44048C6.79956 9.83475 6.47992 10.229 6.64181 10.6588C6.72484 10.9703 7.21052 10.714 7.45543 10.7928ZM11.8141 10.7928C12.0465 10.7928 12.279 10.7928 12.5115 10.7928C12.6609 10.7928 12.8519 10.7928 12.8228 10.5799C12.8274 10.3446 12.7765 10.1112 12.6738 9.897C12.571 9.68278 12.4191 9.49311 12.2292 9.34191C11.9262 9.16449 11.7352 9.65733 11.4861 9.83475C11.3467 9.94355 11.2188 10.065 11.1042 10.1975C10.988 10.3158 10.7971 10.4183 10.8801 10.6233C10.9631 10.8283 11.1748 10.7771 11.3492 10.7849C11.5235 10.7928 11.6605 10.7928 11.8141 10.7889V10.7928ZM10.328 11.1004C10.2657 10.7297 10.0499 10.4971 9.65967 10.5208C9.5748 10.5191 9.49058 10.5352 9.41302 10.568C9.33547 10.6007 9.26647 10.6494 9.21097 10.7104C9.15547 10.7714 9.11482 10.8432 9.09192 10.9209C9.06903 10.9985 9.06445 11.08 9.07851 11.1595C9.07814 11.2334 9.09411 11.3066 9.12537 11.3743C9.15664 11.442 9.20251 11.5027 9.26002 11.5524C9.31753 11.6022 9.3854 11.64 9.45925 11.6633C9.53309 11.6867 9.61127 11.695 9.68872 11.6878C10.0955 11.6839 10.2823 11.4552 10.328 11.0964V11.1004ZM18.7713 10.6233C18.7298 11.2068 18.6925 11.7075 18.6551 12.2438C19.5559 11.7706 19.5974 11.2384 18.7713 10.6194V10.6233ZM8.8502 2.52493C9.21135 2.52493 9.51437 2.54465 9.8091 2.52493C10.0374 2.50522 10.4318 2.73784 10.4525 2.39482C10.4733 2.05181 10.0665 1.94929 9.75514 1.93747C9.55491 1.91426 9.35262 1.96108 9.18609 2.06919C9.01955 2.1773 8.90015 2.33931 8.8502 2.52493Z" fill="#949494"/>
</g>
<defs>
<clipPath id="clip0_25_118">
<rect width="20" height="19" fill="white" transform="translate(0 0.683594)"/>
</clipPath>
</defs>
</svg>
