<svg width="148" height="29" viewBox="0 0 148 29" fill="none" xmlns="http://www.w3.org/2000/svg">
<g clip-path="url(#clip0_25_367)">
<path fill-rule="evenodd" clip-rule="evenodd" d="M57.2077 24.6154H59.1054C59.4255 24.5796 59.7273 24.4486 59.9712 24.2396C60.1454 23.9993 60.2378 23.7101 60.2349 23.414C60.2349 23.414 60.1947 20.8858 61.3815 20.51C62.5683 20.1342 64.0418 22.9527 65.6299 24.0346C66.2256 24.5067 66.9803 24.7348 67.7398 24.6723L71.9767 24.6154C71.9767 24.6154 74.1955 24.4787 73.1234 22.7477C73.0374 22.6054 72.5099 21.4666 69.97 19.1263C67.3098 16.6778 67.6768 17.0707 70.8702 12.8628C72.8195 10.2834 73.5993 8.70613 73.3585 8.02853C73.1177 7.35094 71.69 7.55591 71.69 7.55591H66.9142C66.7035 7.53222 66.4903 7.56981 66.3007 7.6641C66.1182 7.79685 65.9723 7.9731 65.8764 8.17659C65.3848 9.45091 64.7965 10.6863 64.1163 11.872C61.9893 15.4536 61.1407 15.6415 60.791 15.4252C59.9826 14.9013 60.1833 13.3354 60.1833 12.2251C60.1833 8.75168 60.7165 7.30539 59.1513 6.92958C58.4234 6.7553 57.675 6.68058 56.9267 6.7075C55.2067 6.7075 53.7791 6.70751 52.965 7.11179C52.3917 7.37372 52.0018 7.9659 52.2541 7.99437C52.7972 8.04404 53.3012 8.29634 53.6645 8.70043C54.1576 9.36095 54.1403 10.8471 54.1403 10.8471C54.1403 10.8471 54.4213 14.9355 53.481 15.4422C52.8389 15.7953 51.9559 15.0778 50.041 11.8265C49.3922 10.6953 48.8176 9.52371 48.321 8.31894C48.2355 8.11566 48.1018 7.93591 47.9312 7.79506C47.7083 7.64984 47.459 7.54928 47.1973 7.49899H42.6622C42.3251 7.50223 41.9978 7.61191 41.7277 7.81216C41.5098 8.07408 41.7277 8.61501 41.7277 8.61501C41.7277 8.61501 45.2767 16.8658 49.3015 21.0225C52.988 24.8375 57.1733 24.587 57.1733 24.587L57.2077 24.6154Z" fill="#0A5BFC"/>
<path d="M105.459 14.429L106.107 9.5321H101.405V6.11564C101.405 5.66259 101.587 5.22809 101.909 4.90773C102.232 4.58738 102.669 4.40741 103.125 4.40741H106.17V0.00585938H101.916C100.47 0.00585937 99.0828 0.576402 98.0603 1.59193C97.0377 2.60745 96.4632 3.98478 96.4632 5.42094V9.5321H92.3926V14.429H96.4632V26.4208H101.394V14.429H105.459Z" fill="#0A5BFC"/>
<path d="M17.7905 3.78125H7.55078C5.54964 3.78276 3.63081 4.57255 2.21526 5.97735C0.799705 7.38215 0.00303605 9.28725 0 11.2747V21.45C0.00303283 23.438 0.799519 25.3437 2.21491 26.7494C3.6303 28.1551 5.54911 28.9461 7.55078 28.9491H17.7905C19.7921 28.9461 21.711 28.1551 23.1263 26.7494C24.5417 25.3437 25.3383 23.438 25.3413 21.45V11.2747C25.3383 9.28725 24.5416 7.38215 23.126 5.97735C21.7104 4.57255 19.7916 3.78276 17.7905 3.78125ZM22.7899 21.4329C22.7899 22.7498 22.2632 24.0127 21.3257 24.9439C20.3881 25.875 19.1164 26.3982 17.7905 26.3982H7.55078C6.22484 26.3982 4.95322 25.875 4.01564 24.9439C3.07806 24.0127 2.55134 22.7498 2.55134 21.4329V11.2747C2.55134 9.95783 3.07806 8.69487 4.01564 7.76371C4.95322 6.83254 6.22484 6.30943 7.55078 6.30943H17.7905C19.1164 6.30943 20.3881 6.83254 21.3257 7.76371C22.2632 8.69487 22.7899 9.95783 22.7899 11.2747V21.4329Z" fill="#0A5BFC"/>
<path d="M12.6704 9.87402C11.3743 9.87402 10.1073 10.2557 9.02963 10.9709C7.95197 11.686 7.11203 12.7025 6.61603 13.8917C6.12003 15.081 5.99025 16.3896 6.24311 17.6521C6.49596 18.9146 7.12011 20.0742 8.03659 20.9845C8.95307 21.8947 10.1207 22.5145 11.3919 22.7657C12.6631 23.0168 13.9807 22.8879 15.1782 22.3953C16.3756 21.9027 17.3991 21.0685 18.1192 19.9982C18.8392 18.9279 19.2236 17.6696 19.2236 16.3824C19.222 14.6567 18.5311 13.0022 17.3025 11.7819C16.0739 10.5617 14.4079 9.87553 12.6704 9.87402ZM12.6704 20.3568C11.8766 20.3568 11.1007 20.1231 10.4407 19.6851C9.78072 19.2471 9.26631 18.6246 8.96255 17.8963C8.65879 17.168 8.57933 16.3666 8.73418 15.5934C8.88904 14.8202 9.27128 14.11 9.83256 13.5526C10.3938 12.9951 11.1089 12.6155 11.8874 12.4617C12.6659 12.3079 13.4729 12.3869 14.2062 12.6885C14.9395 12.9902 15.5663 13.5011 16.0073 14.1565C16.4483 14.812 16.6837 15.5826 16.6837 16.371C16.6837 17.4281 16.2609 18.4419 15.5082 19.1894C14.7556 19.9369 13.7348 20.3568 12.6704 20.3568Z" fill="#0A5BFC"/>
<path d="M20.8059 9.90197C20.8059 10.2105 20.7138 10.5122 20.5412 10.7688C20.3685 11.0253 20.1232 11.2253 19.8362 11.3434C19.5491 11.4615 19.2333 11.4924 18.9285 11.4322C18.6238 11.372 18.3439 11.2234 18.1242 11.0052C17.9045 10.787 17.7549 10.509 17.6942 10.2063C17.6336 9.9037 17.6648 9.59002 17.7837 9.30493C17.9026 9.01985 18.1039 8.77618 18.3623 8.60475C18.6206 8.43331 18.9243 8.3418 19.235 8.3418C19.6516 8.3418 20.0512 8.50619 20.3458 8.79878C20.6404 9.09137 20.8059 9.48819 20.8059 9.90197Z" fill="#0A5BFC"/>
<path d="M147.845 5.47203C147.72 5.20593 147.517 4.98386 147.262 4.83537C147.007 4.68687 146.712 4.61897 146.417 4.64068C146.085 4.64346 145.755 4.70318 145.443 4.81719C145.299 4.86844 131.006 10.2949 125.141 12.6864C124.925 12.7556 124.725 12.8687 124.555 13.0187C124.386 13.1688 124.249 13.3523 124.155 13.5576C124.077 13.8128 124.092 14.0871 124.196 14.3327C124.301 14.5783 124.489 14.7796 124.728 14.9014C126.51 15.5897 128.326 16.1864 130.169 16.6894C130.479 17.7257 131.574 21.3301 132.084 22.8732C132.162 23.0795 132.307 23.2544 132.496 23.3707C132.685 23.487 132.907 23.5383 133.128 23.5166H133.254C133.391 23.4987 133.517 23.4319 133.609 23.3287C133.687 23.2442 133.734 23.1357 133.741 23.0212L134.045 18.6652L136.373 20.3735C138.196 21.7286 140.386 23.3344 141.584 24.2056C141.938 24.4886 142.374 24.6521 142.828 24.6725C143.205 24.6426 143.561 24.4903 143.842 24.2392C144.123 23.988 144.313 23.6521 144.382 23.2831C145.385 19.3941 146.865 12.0316 147.748 7.63577L147.942 6.67347C148.046 6.27341 148.012 5.85049 147.845 5.47203ZM133.042 17.6004L132.772 21.4667C132.107 19.3656 131.132 16.1427 131.121 16.1029C131.109 16.063 131.121 16.1029 131.121 16.0744L142.295 8.84862C142.623 8.62173 142.975 8.43081 143.344 8.27921C143.74 8.1938 143.832 8.34752 143.763 8.43863C143.273 8.95283 142.754 9.43948 142.209 9.89631L133.259 17.1904C133.194 17.2382 133.141 17.2998 133.103 17.3708C133.066 17.4418 133.045 17.5202 133.042 17.6004Z" fill="#0A5BFC"/>
</g>
<defs>
<clipPath id="clip0_25_367">
<rect width="148" height="29" fill="white"/>
</clipPath>
</defs>
</svg>
