<svg width="29" height="18" viewBox="0 0 29 18" fill="none" xmlns="http://www.w3.org/2000/svg">
<g clip-path="url(#clip0_25_132)">
<path d="M28.9011 9.40665C28.9651 9.80571 28.9456 10.2138 28.8436 10.6048C28.7417 10.9959 28.5597 11.3614 28.3091 11.678C27.2155 13.3475 26.1179 15.0252 25.1312 16.7359C24.3336 18.1251 23.0756 17.5604 22.0314 17.4986C20.9872 17.4367 21.6203 16.402 21.4846 15.8084C21.4558 15.4931 21.4558 15.1757 21.4846 14.8603C21.4846 14.2461 21.6573 13.4505 20.9296 13.2115C20.2019 12.9724 20.2718 13.8504 19.9512 14.1925C19.6193 14.5666 19.2112 14.8647 18.7544 15.0667C18.2976 15.2687 17.8028 15.3698 17.3036 15.3632C13.102 15.3632 8.9004 15.388 4.69881 15.3632C2.96802 15.3632 1.87446 14.4976 1.31945 12.8198C0.90834 11.5832 0.526004 10.3094 0.180668 9.0439C-0.0524999 8.33513 -0.0490199 7.56949 0.190582 6.86288C0.430184 6.15627 0.892861 5.54717 1.50857 5.1278C3.15302 3.89113 4.79748 2.65447 6.44194 1.44666C7.12162 0.93903 7.95026 0.672225 8.79762 0.688176C11.6343 0.688176 14.471 0.688176 17.3077 0.712909C18.9768 0.712909 20.1156 1.53735 20.5966 3.14501C21.0776 4.75268 22.5288 5.32566 23.3387 6.52111C24.3336 7.99273 25.7808 7.75777 27.158 7.67532C28.5352 7.59288 29.2876 7.88968 28.9011 9.40665ZM10.9272 14.6748C12.9828 14.6748 15.0137 14.6955 17.0528 14.6748C19.0097 14.6501 19.9306 13.7391 19.9635 11.7687C19.9964 9.29535 19.9964 6.82203 19.9635 4.3487C19.9388 2.33706 18.9809 1.42193 16.9212 1.3972C15.0877 1.37659 13.2212 1.53735 11.4246 1.35597C8.73184 1.07154 6.63105 2.01553 4.53437 3.65617C-0.0701115 7.25898 0.0902232 6.57882 1.87857 12.3128C2.42946 14.0854 3.20647 14.6295 5.10993 14.6419C7.01339 14.6542 8.98674 14.6748 10.9272 14.6748ZM22.1013 14.8809C22.3808 15.5611 21.6326 16.501 22.5905 16.8555C23.6717 17.2677 24.4117 16.7071 24.9709 15.6889C25.7645 14.2703 26.6318 12.8943 27.5691 11.5667C28.1899 10.6722 28.5147 9.63338 28.0624 8.75947C27.6513 7.95564 26.5578 8.50389 25.7684 8.42969C25.7026 8.42969 25.6286 8.54923 25.5629 8.61107C25.6369 9.14283 26.5372 9.29948 26.1302 10.3094L20.7857 5.01238C20.7569 8.77183 19.7949 12.3746 23.4168 14.7078C23.458 14.7326 23.5032 14.7985 23.495 14.8356C23.4803 14.9611 23.4555 15.0851 23.421 15.2066C22.8947 15.4168 22.7673 14.6748 22.1013 14.8686V14.8809Z" fill="#949494"/>
<path d="M10.9108 13.6311C9.12653 13.6311 7.3423 13.5982 5.56628 13.6311C4.03283 13.6682 3.14893 13.0169 2.68848 11.5164C1.43047 7.36949 1.48392 7.48904 4.80572 4.73128C6.91885 2.98346 9.08953 2.07245 11.8358 2.3775C13.3405 2.54651 14.878 2.3775 16.395 2.4146C18.1258 2.46406 18.9028 3.23904 18.9316 4.94976C18.9686 7.01086 18.9645 9.07197 18.9316 11.1042C18.9028 12.8397 18.134 13.5982 16.4115 13.6146C14.5861 13.6476 12.7484 13.6311 10.9108 13.6311ZM10.9108 13.0087H16.2553C17.6037 13.0087 18.2862 12.378 18.2615 10.9764C18.2286 9.03487 18.2327 7.08919 18.2615 5.1435C18.2862 3.74195 17.653 3.14011 16.2511 3.1937C14.7864 3.29058 13.3169 3.29058 11.8522 3.1937C9.31153 2.94636 7.23952 3.65951 5.27439 5.329C2.00192 8.02905 2.10881 6.99437 3.3956 11.3763C3.72449 12.5181 4.38227 13.0252 5.54573 13.0252C7.32996 12.9881 9.09775 13.0252 10.8943 13.0252L10.9108 13.0087Z" fill="#949494"/>
<path d="M11.322 4.26562C9.25819 6.3762 7.20262 8.48814 5.15527 10.6015L5.52528 10.9683L11.7249 4.67785L11.322 4.26562Z" fill="#949494"/>
<path d="M14.3025 4.30273L10.4668 8.1199L10.8779 8.53212C12.1359 7.24324 13.3926 5.95437 14.6478 4.66549L14.3025 4.30273Z" fill="#949494"/>
</g>
<defs>
<clipPath id="clip0_25_132">
<rect width="29" height="17" fill="white" transform="translate(0 0.683594)"/>
</clipPath>
</defs>
</svg>
