<svg width="30" height="31" viewBox="0 0 30 31" fill="none" xmlns="http://www.w3.org/2000/svg">
<g clip-path="url(#clip0_25_1753)">
<path d="M29.5812 30.9947H0.418874C0.364118 30.9954 0.309756 30.985 0.258968 30.9641C0.20818 30.9432 0.162057 30.9122 0.123093 30.8729C0.0841291 30.8337 0.053196 30.787 0.0320834 30.7355C0.0109708 30.684 -4.38596e-06 30.6286 1.31472e-09 30.5728V15.6176C-4.38596e-06 15.5617 0.0109708 15.5064 0.0320834 15.4548C0.053196 15.4033 0.0841291 15.3565 0.123093 15.3173C0.162057 15.278 0.20818 15.247 0.258968 15.2261C0.309756 15.2052 0.364118 15.1949 0.418874 15.1956C0.528571 15.1956 0.633764 15.2401 0.711331 15.3192C0.788899 15.3983 0.832507 15.5057 0.832507 15.6176V30.1401H29.1676V15.6336C29.1676 15.5217 29.2111 15.4144 29.2887 15.3352C29.3663 15.2561 29.4715 15.2116 29.5812 15.2116C29.6359 15.2109 29.6903 15.2213 29.7411 15.2421C29.7918 15.263 29.8381 15.294 29.8771 15.3333C29.916 15.3725 29.947 15.4193 29.9681 15.4709C29.9892 15.5224 30 15.5777 30 15.6336V30.5888C29.9959 30.6988 29.9498 30.8028 29.8716 30.8787C29.7933 30.9545 29.6891 30.9962 29.5812 30.9947Z" fill="#0A5BFC"/>
<path d="M14.9999 23.7788C14.8888 23.7788 14.7823 23.7337 14.7038 23.6536C14.6252 23.5734 14.5811 23.4648 14.5811 23.3514V0.421947C14.5811 0.308622 14.6252 0.199945 14.7038 0.119812C14.7823 0.0396793 14.8888 -0.00537109 14.9999 -0.00537109C15.111 -0.00537109 15.2175 0.0396793 15.2961 0.119812C15.3746 0.199945 15.4188 0.308622 15.4188 0.421947V23.3514C15.4188 23.4648 15.3746 23.5734 15.2961 23.6536C15.2175 23.7337 15.111 23.7788 14.9999 23.7788Z" fill="#0A5BFC"/>
<path d="M15.0003 24.4251C14.9338 24.4257 14.8682 24.41 14.8089 24.3793C14.7497 24.3486 14.6986 24.3039 14.6599 24.2488L11.5762 19.8263C11.5125 19.7355 11.4868 19.6228 11.5045 19.5127C11.5221 19.4026 11.5817 19.3041 11.6704 19.2388C11.7602 19.1736 11.8716 19.1471 11.9803 19.1651C12.0891 19.1831 12.1866 19.2441 12.2516 19.3349L15.0003 23.2713L17.749 19.3349C17.7807 19.2894 17.821 19.2507 17.8675 19.2212C17.914 19.1917 17.9658 19.1719 18.0198 19.1629C18.0739 19.154 18.1291 19.156 18.1824 19.1691C18.2357 19.1821 18.2858 19.2059 18.33 19.2388C18.3745 19.2707 18.4124 19.3113 18.4412 19.3583C18.4701 19.4052 18.4895 19.4575 18.4983 19.5123C18.507 19.567 18.5051 19.623 18.4924 19.677C18.4797 19.7309 18.4566 19.7816 18.4244 19.8263L15.3405 24.2488C15.3019 24.3039 15.2507 24.3486 15.1915 24.3793C15.1323 24.41 15.0667 24.4257 15.0003 24.4251Z" fill="#0A5BFC"/>
</g>
<defs>
<clipPath id="clip0_25_1753">
<rect width="30" height="31" fill="white"/>
</clipPath>
</defs>
</svg>
