<svg width="34" height="28" viewBox="0 0 34 28" fill="none" xmlns="http://www.w3.org/2000/svg">
<path d="M33.5416 8.05999H11.2073L9.57185 0.609423C9.55177 0.513634 9.49605 0.427357 9.41431 0.365471C9.33258 0.303585 9.22997 0.269975 9.12424 0.270514H0.459083C0.338315 0.270506 0.222407 0.314445 0.136475 0.392749C0.050544 0.471053 0.0015096 0.577433 0 0.688866C0 0.801219 0.048367 0.908964 0.134461 0.988409C0.220556 1.06785 0.337327 1.11252 0.459083 1.11252H8.75124L12.7682 19.4714V27.4144C12.7674 27.4698 12.7786 27.5247 12.8011 27.5761C12.8235 27.6275 12.8568 27.6743 12.8989 27.7137C12.9411 27.7531 12.9913 27.7844 13.0467 27.8057C13.1021 27.8271 13.1615 27.838 13.2215 27.838H25.1978C25.3196 27.838 25.4364 27.7934 25.5225 27.7139C25.6085 27.6345 25.6569 27.5267 25.6569 27.4144C25.6569 27.359 25.645 27.3042 25.6219 27.2531C25.5987 27.202 25.5648 27.1556 25.5221 27.1167C25.4794 27.0778 25.4287 27.0471 25.3731 27.0264C25.3174 27.0057 25.2578 26.9954 25.1978 26.9961H13.6978V19.8368H26.1447C26.2214 19.8364 26.2968 19.8182 26.364 19.784C26.4311 19.7498 26.4879 19.7006 26.5292 19.6409L33.9376 8.6901C33.9785 8.62588 34 8.55275 34 8.47828C34 8.4038 33.9785 8.33073 33.9376 8.26651C33.8963 8.20367 33.8382 8.15168 33.7689 8.11552C33.6995 8.07935 33.6213 8.06023 33.5416 8.05999ZM11.391 8.90193H18.478V11.5496H11.9763L11.391 8.90193ZM12.9059 15.7859L12.1542 12.3492H18.4666V15.717H13.124C13.0425 15.7277 12.9665 15.761 12.9059 15.8124V15.7859ZM13.606 18.9631L13.0723 16.5325H13.1355H18.478V18.873C18.4753 18.8994 18.4753 18.926 18.478 18.9525L13.606 18.9631ZM25.5536 18.9631H19.3732C19.3759 18.9366 19.3759 18.91 19.3732 18.8836V16.5431H25.5364L25.5536 18.9631ZM25.5536 15.7011H19.3905V12.3333H25.5536V15.7011ZM25.5536 11.4648H19.3905V8.81718H25.5536V11.4648ZM26.466 18.0787V16.4901H27.5219L26.466 18.0787ZM28.09 15.6747H26.466V12.3069H30.3682L28.09 15.6747ZM30.9593 11.4755H30.9019H26.4947V8.82779H32.7497L30.9593 11.4755Z" fill="black"/>
</svg>
