<svg width="21" height="21" viewBox="0 0 21 21" fill="none" xmlns="http://www.w3.org/2000/svg">
<g clip-path="url(#clip0_25_1790)">
<path d="M0.0158388 0.295098C0.0123841 0.318797 0.0123841 0.342874 0.0158388 0.366574L1.13271 4.55514C1.15704 4.62224 1.2055 4.67777 1.26853 4.71079C1.33156 4.74381 1.40461 4.75193 1.47329 4.73356C1.54198 4.71518 1.60133 4.67164 1.63968 4.6115C1.67802 4.55137 1.69259 4.47899 1.68049 4.40861L0.833945 1.24575L7.35019 7.78233C7.40301 7.83541 7.47468 7.86523 7.54939 7.86523C7.6241 7.86523 7.69573 7.83541 7.74856 7.78233C7.80139 7.72925 7.83105 7.65726 7.83105 7.5822C7.83105 7.50713 7.80139 7.43514 7.74856 7.38206L1.23588 0.834749L4.38374 1.68176C4.42015 1.69367 4.4586 1.69787 4.49671 1.69411C4.53482 1.69035 4.57176 1.67871 4.60517 1.65991C4.63859 1.64111 4.66774 1.61556 4.69084 1.58488C4.71394 1.5542 4.73051 1.51904 4.73943 1.48162C4.75022 1.44502 4.75359 1.40661 4.74937 1.36867C4.74515 1.33073 4.73342 1.29401 4.71485 1.2607C4.69629 1.22739 4.67129 1.19816 4.6413 1.17472C4.61131 1.15128 4.57692 1.13412 4.54022 1.12424L0.37153 0.0020383C0.347964 -0.00170726 0.323975 -0.00170726 0.300409 0.00203829C0.26377 0.00194292 0.227468 0.00923901 0.193684 0.0234859C0.160258 0.0365637 0.129779 0.0562776 0.10411 0.0814546C0.0784418 0.106631 0.0580957 0.136749 0.0442783 0.17001L0.0442783 0.191458C0.0389053 0.223396 0.0389053 0.25601 0.0442783 0.287948L0.0158388 0.295098Z" fill="#949494"/>
<path d="M20.9822 0.1989C20.9807 0.191836 20.9807 0.184516 20.9822 0.177452C20.9687 0.145555 20.9494 0.11647 20.9253 0.0916829C20.8982 0.0661983 20.8669 0.0456409 20.8328 0.0309281C20.7989 0.0169496 20.7627 0.00966404 20.7261 0.00948045L20.6514 0.00948045L16.4863 1.13168C16.4141 1.15111 16.3525 1.19855 16.3152 1.26356C16.2778 1.32857 16.2677 1.40583 16.287 1.47834C16.3064 1.55085 16.3536 1.61267 16.4183 1.6502C16.483 1.68773 16.5599 1.69791 16.6321 1.67848L19.78 0.831469L13.2637 7.37878C13.2374 7.40502 13.2166 7.4362 13.2024 7.47055C13.1882 7.5049 13.1809 7.54172 13.1809 7.57892C13.1809 7.61611 13.1882 7.65294 13.2024 7.68729C13.2166 7.72163 13.2374 7.75282 13.2637 7.77905C13.317 7.83252 13.3893 7.86255 13.4647 7.86255C13.54 7.86255 13.6123 7.83252 13.6656 7.77905L20.1641 1.24604L19.3211 4.40891C19.3103 4.44551 19.3069 4.48392 19.3111 4.52186C19.3153 4.5598 19.3271 4.59651 19.3457 4.62982C19.3642 4.66313 19.3892 4.69237 19.4192 4.71581C19.4492 4.73924 19.4836 4.75641 19.5203 4.76629C19.5567 4.77664 19.5948 4.77966 19.6324 4.7752C19.67 4.77074 19.7064 4.75888 19.7394 4.7403C19.7724 4.72171 19.8015 4.69676 19.8249 4.66688C19.8484 4.637 19.8657 4.60277 19.876 4.56615L20.9928 0.377593C20.9946 0.353799 20.9946 0.329905 20.9928 0.306111C20.996 0.270017 20.9924 0.233653 20.9822 0.1989Z" fill="#949494"/>
<path d="M19.8015 20.1501L16.6537 19.3031C16.5815 19.2837 16.5046 19.2938 16.4399 19.3314C16.3752 19.3689 16.328 19.4307 16.3086 19.5032C16.2893 19.5758 16.2994 19.653 16.3368 19.718C16.3741 19.783 16.4357 19.8305 16.5078 19.8499L20.673 20.9721C20.7272 20.9901 20.7858 20.9901 20.8401 20.9721L20.865 20.9721C20.8951 20.9589 20.9227 20.9408 20.9469 20.9185C20.971 20.8937 20.9903 20.8646 21.0038 20.8327C21.0022 20.8257 21.0022 20.8183 21.0038 20.8113C21.0092 20.7805 21.0092 20.7491 21.0038 20.7184C21.0055 20.6946 21.0055 20.6707 21.0038 20.6469L19.8869 16.4583C19.87 16.3982 19.8342 16.3451 19.7848 16.3071C19.7355 16.2691 19.6752 16.2482 19.613 16.2475C19.5882 16.244 19.5631 16.244 19.5383 16.2475C19.5019 16.2578 19.4678 16.2752 19.4381 16.2987C19.4083 16.3223 19.3835 16.3515 19.365 16.3847C19.3465 16.4179 19.3347 16.4544 19.3303 16.4922C19.3258 16.5299 19.3288 16.5682 19.3391 16.6048L20.1928 19.757L13.6801 13.2133C13.6263 13.1606 13.5542 13.1312 13.4791 13.1312C13.4041 13.1312 13.332 13.1606 13.2782 13.2133C13.2519 13.2395 13.2311 13.2707 13.2169 13.305C13.2027 13.3394 13.1954 13.3762 13.1954 13.4134C13.1954 13.4506 13.2027 13.4874 13.2169 13.5218C13.2311 13.5561 13.2519 13.5873 13.2782 13.6135L19.8015 20.1501Z" fill="#949494"/>
<path d="M0.022594 20.8146L0.022594 20.836C0.0360918 20.8679 0.0553608 20.897 0.079473 20.9218C0.102334 20.9457 0.130305 20.964 0.161275 20.9754L0.182638 20.9754C0.21349 20.9865 0.245923 20.9925 0.278681 20.9933C0.302247 20.997 0.326236 20.997 0.349802 20.9933L4.51849 19.8711C4.55422 19.8615 4.58775 19.8449 4.6171 19.8222C4.64644 19.7996 4.67107 19.7714 4.68956 19.7392C4.70806 19.707 4.72008 19.6715 4.72491 19.6346C4.72973 19.5978 4.72727 19.5603 4.7177 19.5244C4.70812 19.4885 4.69159 19.4549 4.66907 19.4254C4.64655 19.3959 4.61848 19.3712 4.58644 19.3526C4.5544 19.334 4.51904 19.3219 4.48237 19.3171C4.44569 19.3122 4.40842 19.3147 4.37269 19.3243L1.22483 20.1713L7.73751 13.624C7.76375 13.5978 7.78457 13.5666 7.79878 13.5322C7.81299 13.4979 7.82031 13.461 7.82031 13.4239C7.82031 13.3867 7.81299 13.3498 7.79878 13.3155C7.78457 13.2811 7.76375 13.25 7.73751 13.2237C7.68432 13.1713 7.61283 13.142 7.53835 13.142C7.46387 13.142 7.39233 13.1713 7.33914 13.2237L0.833537 19.7782L1.68008 16.6189C1.69082 16.582 1.69408 16.5434 1.68964 16.5053C1.68519 16.4671 1.67313 16.4303 1.65421 16.397C1.63528 16.3636 1.60991 16.3344 1.57952 16.3111C1.54914 16.2879 1.51438 16.271 1.47736 16.2615L1.40619 16.2615C1.34386 16.2616 1.2833 16.2824 1.23382 16.3205C1.18434 16.3586 1.14871 16.4119 1.13235 16.4724L0.0154734 20.6609C0.0120182 20.6846 0.0120182 20.7087 0.0154734 20.7324C0.0136647 20.76 0.0160704 20.7877 0.022594 20.8146Z" fill="#949494"/>
</g>
<defs>
<clipPath id="clip0_25_1790">
<rect width="21" height="21" fill="white"/>
</clipPath>
</defs>
</svg>
