<svg width="205" height="40" viewBox="0 0 205 40" fill="none" xmlns="http://www.w3.org/2000/svg">
<g clip-path="url(#clip0_25_239)">
<path d="M201.327 17.6291C201.372 17.9494 201.349 18.2757 201.257 18.5861C201.166 18.8964 201.009 19.1837 200.797 19.4286C200.622 19.6038 200.413 19.7411 200.182 19.832C199.951 19.923 199.704 19.9657 199.456 19.9574H183.415V11.9148H199.508C200.007 11.9069 200.489 12.0971 200.849 12.4436C201.054 12.6923 201.207 12.98 201.298 13.2893C201.389 13.5985 201.416 13.923 201.378 14.2431V17.6547L201.327 17.6291ZM203.343 22.354C204.473 20.9477 205.061 19.1837 205 17.3817V14.4905C205.067 12.685 204.479 10.916 203.343 9.50966C202.912 9.03148 202.385 8.64972 201.796 8.38953C201.207 8.12934 200.57 7.99661 199.926 8.00007H179.742V32.0171H183.415V23.9404H192.922L200.054 32.0854H205L198.038 23.9404H199.952C200.597 23.9317 201.234 23.7857 201.819 23.5122C202.403 23.2386 202.923 22.8438 203.343 22.354Z" fill="black"/>
<path d="M143.748 32.0171H167.767V28.1365H147.404V21.9276H165.341V18.047H147.404V11.9148H167.784V8.03418H143.748V32.0171Z" fill="black"/>
<path d="M128.517 32.0171H131.729V8.03418H128.056V25.5949L109.725 8.03418H106.514V32.0171H110.152V14.4478L128.517 32.0171Z" fill="black"/>
<path d="M94.4971 8.03418H90.8242V32.0171H94.4971V8.03418Z" fill="black"/>
<path d="M54.7949 32.0171H78.8141V28.1365H58.4337V21.9276H76.3712V18.047H58.4337V11.9148H78.8141V8.03418H54.7949V32.0171Z" fill="black"/>
<path d="M40.0604 0L34.0812 5.97015L22.1229 17.9104H30.5194L34.0556 14.4136V33.919H6.00479V5.99573H25.5396L31.5187 0.0255853H0V40.0171H40.0604V0Z" fill="#0B54E4"/>
</g>
<defs>
<clipPath id="clip0_25_239">
<rect width="205" height="40" fill="white"/>
</clipPath>
</defs>
</svg>
