<svg width="11" height="11" viewBox="0 0 11 11" fill="none" xmlns="http://www.w3.org/2000/svg">
<g clip-path="url(#clip0_25_2295)">
<path d="M1.48863 9.11676C1.71466 9.38631 2.61882 10.6053 2.78027 10.8583L2.87553 11.0018L2.96837 10.8555C3.12982 10.6034 4.40775 8.67886 4.8461 8.04868C5.49193 7.12872 6.13775 6.20876 6.80134 5.30903C7.46492 4.40931 8.14869 3.5243 8.84618 2.65678C9.54367 1.78925 10.2621 0.943808 11 0.119521L10.9039 0.00268555C10.4043 0.247488 9.92194 0.535991 9.46133 0.865611C9.00626 1.18688 8.56573 1.53415 8.14142 1.90609C7.30309 2.64209 6.51631 3.45134 5.7882 4.32651C5.06503 5.196 4.38838 6.11424 3.76193 7.07628L3.3042 7.81225C3.15727 8.05758 3.01196 8.3075 2.86827 8.56202C2.78754 8.71106 2.70116 8.86377 2.62043 9.01648C2.42749 8.84353 2.22729 8.67978 2.02547 8.52246C1.72636 8.29547 1.41433 8.0914 1.09144 7.91161C0.767641 7.72605 0.42713 7.58108 0.0758845 7.47923L0 7.61354C0.270428 7.83354 0.528958 8.07194 0.774182 8.32743C1.02202 8.57582 1.26016 8.84169 1.48863 9.11676Z" fill="#0A5BFC"/>
</g>
<defs>
<clipPath id="clip0_25_2295">
<rect width="11" height="11" fill="white"/>
</clipPath>
</defs>
</svg>
