<svg width="28" height="30" viewBox="0 0 28 30" fill="none" xmlns="http://www.w3.org/2000/svg">
<g clip-path="url(#clip0_25_250)">
<path d="M14.1205 15.7694L20.9713 25.0915C21.0266 25.1668 21.1101 25.2165 21.2035 25.2298C21.2969 25.2431 21.3926 25.2188 21.4694 25.1624C21.5073 25.1346 21.5393 25.0996 21.5637 25.0597C21.5882 25.0197 21.6044 24.9755 21.6117 24.9295C21.6189 24.8836 21.6169 24.8369 21.6057 24.7921C21.5946 24.7473 21.5746 24.7053 21.5469 24.6686L14.7039 15.3571C16.1534 14.1786 17.0931 12.4927 17.3226 10.6593C17.5521 8.82581 17.0531 6.98995 15.9322 5.54338C14.8113 4.09681 13.1572 3.1541 11.3228 2.91644C9.4885 2.67878 7.61921 3.16501 6.11382 4.27131C4.60843 5.37762 3.58615 7.0164 3.26515 8.838C2.94416 10.6596 3.34986 12.5198 4.39567 14.0215C5.44147 15.5233 7.04456 16.5477 8.86289 16.8763C10.6812 17.2048 12.5708 16.8114 14.1283 15.78L14.1205 15.7694ZM6.63815 4.77618C7.66317 4.02182 8.88436 3.58223 10.1472 3.51304C11.41 3.44385 12.6578 3.74816 13.7325 4.38748C14.8073 5.02679 15.6607 5.97238 16.1849 7.10459C16.7091 8.2368 16.8805 9.50478 16.6774 10.748C16.4743 11.9913 15.9057 13.154 15.0438 14.089C14.1818 15.024 13.0651 15.6894 11.8351 16.0008C10.605 16.3122 9.31671 16.2558 8.13334 15.8386C6.94998 15.4214 5.92467 14.6623 5.18713 13.6571C4.20048 12.3106 3.79915 10.6195 4.07115 8.95469C4.34316 7.2899 5.26629 5.78725 6.63815 4.77618Z" fill="black"/>
<path d="M14.4175 13.5575C14.4553 13.5297 14.4874 13.4948 14.5118 13.4548C14.5362 13.4148 14.5525 13.3706 14.5597 13.3247C14.5669 13.2787 14.565 13.232 14.5538 13.1872C14.5427 13.1424 14.5227 13.1004 14.495 13.0637C14.4404 12.9894 14.3579 12.9403 14.2656 12.9272C14.1734 12.9141 14.079 12.938 14.0031 12.9937C13.2424 13.6011 12.3327 13.9927 11.3731 14.126C10.4134 14.2593 9.44057 14.1292 8.56028 13.7499C7.66743 13.3837 6.85524 12.8524 6.1661 12.1837C6.13585 12.145 6.09766 12.1133 6.05401 12.0904C6.01036 12.0675 5.9622 12.0541 5.91263 12.0509C5.86305 12.0478 5.81316 12.055 5.76615 12.072C5.71913 12.0891 5.67605 12.1157 5.63965 12.1501C5.60324 12.1845 5.5743 12.226 5.55474 12.2718C5.53517 12.3176 5.52541 12.3669 5.52604 12.4163C5.52666 12.4657 5.53767 12.5142 5.55838 12.5588C5.57908 12.6033 5.60902 12.6429 5.64626 12.6749C5.68376 12.7183 9.80215 16.9493 14.4175 13.5575Z" fill="black"/>
</g>
<defs>
<clipPath id="clip0_25_250">
<rect width="14.2853" height="25.8921" fill="white" transform="translate(0.474609 8.45898) rotate(-36.312)"/>
</clipPath>
</defs>
</svg>
