<svg width="24" height="21" viewBox="0 0 24 21" fill="none" xmlns="http://www.w3.org/2000/svg">
<path d="M9.83 3.89V7.64C9.83 8.3 9.7 8.84 9.44 9.26C9.2 9.68 8.83 9.98 8.33 10.16C7.85 10.34 7.37 10.46 6.89 10.52C6.43 10.58 5.84 10.61 5.12 10.61C4.4 10.61 3.8 10.58 3.32 10.52C2.86 10.46 2.38 10.34 1.88 10.16C1.38 9.98 1 9.68 0.74 9.26C0.5 8.84 0.38 8.3 0.38 7.64V3.89C0.38 2.55 0.8 1.66 1.64 1.22C2.5 0.759999 3.66 0.529999 5.12 0.529999C6.58 0.529999 7.73 0.759999 8.57 1.22C9.41 1.66 9.83 2.55 9.83 3.89ZM7.49 7.52V3.77C7.49 3.05 7.3 2.59 6.92 2.39C6.56 2.19 5.96 2.09 5.12 2.09C4.26 2.09 3.64 2.19 3.26 2.39C2.9 2.59 2.72 3.05 2.72 3.77V7.52C2.72 8.16 2.91 8.58 3.29 8.78C3.67 8.96 4.28 9.05 5.12 9.05C5.96 9.05 6.56 8.96 6.92 8.78C7.3 8.58 7.49 8.16 7.49 7.52ZM17.96 0.199999L8.24 20.3H5.93L15.65 0.199999H17.96ZM23.27 13.58V17.33C23.27 17.99 23.14 18.53 22.88 18.95C22.64 19.37 22.27 19.67 21.77 19.85C21.29 20.03 20.81 20.15 20.33 20.21C19.87 20.27 19.28 20.3 18.56 20.3C17.84 20.3 17.24 20.27 16.76 20.21C16.3 20.15 15.82 20.03 15.32 19.85C14.82 19.67 14.44 19.37 14.18 18.95C13.94 18.53 13.82 17.99 13.82 17.33V13.58C13.82 12.24 14.24 11.35 15.08 10.91C15.94 10.45 17.1 10.22 18.56 10.22C20.02 10.22 21.17 10.45 22.01 10.91C22.85 11.35 23.27 12.24 23.27 13.58ZM20.93 17.21V13.46C20.93 12.74 20.74 12.28 20.36 12.08C20 11.88 19.4 11.78 18.56 11.78C17.7 11.78 17.08 11.88 16.7 12.08C16.34 12.28 16.16 12.74 16.16 13.46V17.21C16.16 17.85 16.35 18.27 16.73 18.47C17.11 18.65 17.72 18.74 18.56 18.74C19.4 18.74 20 18.65 20.36 18.47C20.74 18.27 20.93 17.85 20.93 17.21Z" fill="white"/>
</svg>
