<svg width="22" height="21" viewBox="0 0 22 21" fill="none" xmlns="http://www.w3.org/2000/svg">
<g clip-path="url(#clip0_25_123)">
<path d="M0.000208048 5.85434C0.0757957 3.9842 1.14596 2.21126 3.338 1.25092C5.53005 0.290574 7.68628 0.523855 9.45663 2.11406C11.772 4.1786 13.8885 6.42588 16.1481 8.55263C16.9239 9.29135 16.3152 9.71904 15.8378 10.0456C14.6085 10.9243 14.7 11.6008 15.8378 12.5767C17.827 14.3302 19.6371 16.2742 21.5586 18.0977C22.223 18.7276 22.227 19.0814 21.304 19.3691C20.2044 19.6645 19.1265 20.0321 18.0776 20.4694C17.1228 20.9049 16.546 20.6483 15.8935 19.9562C15.3923 19.4197 15.2212 19.0425 15.8935 18.5565C16.0885 18.4088 16.2436 18.2105 16.4266 18.0472C16.8244 17.7011 17.1387 17.4057 16.5738 16.8808C16.0089 16.3559 15.814 16.7758 15.5036 17.0791L14.8711 17.6934C14.5489 18.0161 14.2346 18.3466 13.785 17.8372C13.4469 17.4484 12.8183 17.1296 13.5065 16.562C13.964 16.1732 13.9044 15.8893 13.5065 15.4966C13.1087 15.1039 12.8382 15.3061 12.5358 15.6172C12.3409 15.8193 12.0306 16.1421 11.7919 15.8427C10.7297 14.4974 10.1568 15.6327 9.54813 16.2626C8.93945 16.8924 8.55355 17.0596 7.86531 16.3598C5.80057 14.2602 3.65627 12.2385 1.57959 10.1389C0.489539 9.10861 -0.0117269 7.81001 0.000208048 5.85434ZM5.37091 1.37533C3.64433 1.44921 2.06097 2.359 1.13005 4.23692C0.674144 5.13402 0.517976 6.14838 0.683575 7.13687C0.849175 8.12536 1.32818 9.03808 2.05301 9.74625C3.97055 11.6903 5.97959 13.5721 7.90907 15.5161C8.45012 16.0604 8.79225 16.0682 9.33728 15.5161C11.2256 13.6058 13.1498 11.7188 15.1098 9.85512C15.6508 9.3419 15.7225 9.02308 15.1416 8.47487C13.1525 6.59306 11.215 4.64905 9.23782 2.75169C8.27905 1.84967 7.10943 1.37922 5.37091 1.37533ZM14.2743 17.2424C14.6148 16.9691 14.9351 16.6729 15.2331 16.3559C15.7821 15.6949 16.172 15.6716 16.8921 16.2859C17.9423 17.1802 17.8349 17.7945 16.8205 18.5449C16.534 18.7626 15.9651 19.0192 16.4545 19.5752C16.575 19.7588 16.759 19.8939 16.973 19.956C17.1869 20.0181 17.4166 20.003 17.6201 19.9134C18.7102 19.5013 19.8241 19.1358 21.2682 18.6459C19.4342 16.9041 17.7713 15.3372 16.1481 13.7431C14.0555 11.7136 14.0635 11.7097 12.0266 13.8248C11.9891 13.8568 11.9545 13.892 11.9232 13.9298C11.7123 14.2058 11.1912 14.3924 11.6566 14.8629C12.0545 15.2517 12.2812 14.9601 12.512 14.7074C12.9098 14.2797 13.2201 14.3613 13.6259 14.7074C14.3937 15.4267 15.2411 16.076 14.2743 17.2424Z" fill="#949494"/>
<path d="M9.21783 6.35601C9.21151 7.03174 9.00037 7.69047 8.61107 8.24895C8.22178 8.80742 7.67181 9.24058 7.03069 9.49365C6.38956 9.74673 5.68606 9.80838 5.00909 9.67079C4.33213 9.53321 3.71209 9.20258 3.22735 8.7207C2.74261 8.23881 2.41493 7.62729 2.28572 6.96344C2.15651 6.29958 2.23158 5.6132 2.50143 4.99103C2.77128 4.36886 3.2238 3.83884 3.8018 3.46796C4.3798 3.09707 5.05733 2.90198 5.74875 2.90733C6.67003 2.93527 7.5448 3.30936 8.19098 3.95174C8.83716 4.59412 9.20496 5.45529 9.21783 6.35601ZM8.54152 6.37934C8.54796 5.64287 8.25717 4.93358 7.73217 4.40521C7.20717 3.87684 6.49026 3.57195 5.73682 3.55663C5.0089 3.55796 4.30952 3.83349 3.78417 4.32592C3.25882 4.81835 2.94794 5.48976 2.9162 6.20049C2.89077 6.56549 2.94167 6.93174 3.06578 7.27689C3.1899 7.62205 3.38464 7.93888 3.63813 8.20808C3.89163 8.47729 4.19856 8.69322 4.54022 8.84271C4.88189 8.99221 5.25112 9.07214 5.62542 9.07763C5.99969 9.09491 6.37368 9.03819 6.72499 8.91088C7.07631 8.78358 7.39772 8.58829 7.66999 8.33672C7.94226 8.08515 8.15978 7.78247 8.30953 7.44681C8.45929 7.11115 8.53819 6.7494 8.54152 6.38323V6.37934Z" fill="#949494"/>
<path d="M12.5315 7.40625C12.0807 8.4667 11.2243 9.31342 10.1445 9.76628C10.6677 8.75474 11.5026 7.92925 12.5315 7.40625Z" fill="#949494"/>
<path d="M13.8086 8.68945C13.3116 9.71956 12.4886 10.5661 11.4614 11.1039C11.8235 9.92196 12.7942 9.28821 13.8086 8.68945Z" fill="#949494"/>
<path d="M9.19775 10.5977C8.91131 11.8224 7.83717 12.3512 6.90625 13.0082C7.3558 11.9274 8.21511 11.2081 9.19775 10.5977Z" fill="#949494"/>
<path d="M10.9007 11.6982C10.1967 12.773 9.2958 13.7115 8.24316 14.4665C8.31477 13.4634 9.16613 12.5264 10.9007 11.6982Z" fill="#949494"/>
</g>
<defs>
<clipPath id="clip0_25_123">
<rect width="22" height="20" fill="white" transform="translate(0 0.683594)"/>
</clipPath>
</defs>
</svg>
