<svg width="24" height="15" viewBox="0 0 24 15" fill="none" xmlns="http://www.w3.org/2000/svg">
<g clip-path="url(#clip0_25_130)">
<path d="M23.9027 7.51368C23.9292 8.91058 23.9292 10.3031 23.9956 11.6956C24.0266 12.3012 23.854 12.5797 23.2347 12.478C22.6153 12.3763 22.372 12.5222 22.4251 13.2428C22.4334 13.3846 22.4135 13.5267 22.3666 13.6607C22.3196 13.7948 22.2465 13.9183 22.1514 14.024C22.0564 14.1296 21.9413 14.2154 21.8129 14.2763C21.6844 14.3372 21.5452 14.3721 21.4031 14.3788C21.1247 14.4369 20.8347 14.3894 20.5894 14.2456C20.3441 14.1018 20.1611 13.872 20.076 13.6008C19.9786 13.3754 19.9255 13.1278 19.8503 12.8935C19.6822 12.3763 19.2487 12.5885 18.908 12.5664C18.5674 12.5443 18.5984 12.8449 18.6028 13.0836C18.6028 13.8395 18.2754 14.3567 17.5056 14.454C16.7359 14.5513 16.3333 14.065 16.1121 13.3665C16.0103 13.0571 16.0723 12.5797 15.4883 12.6195C15.0459 12.6504 14.6389 12.5531 14.7274 13.2737C14.7511 13.4216 14.7437 13.5728 14.7057 13.7176C14.6677 13.8625 14.6 13.9979 14.5068 14.1152C14.4135 14.2324 14.2969 14.329 14.1643 14.3988C14.0316 14.4685 13.8859 14.5099 13.7364 14.5203C13.0065 14.6441 12.5685 14.2462 12.3252 13.5964C12.2664 13.3561 12.188 13.121 12.0907 12.8935C11.8695 12.5178 11.4802 12.73 11.1661 12.7211C10.7237 12.7211 10.9493 13.0527 10.9405 13.2604C10.9007 13.9545 10.6131 14.4761 9.88757 14.5866C9.16204 14.6971 8.68425 14.2595 8.44978 13.5699C8.32591 13.2207 8.39227 12.7255 7.76849 12.7609C7.3261 12.7609 7.00315 12.7388 7.06066 13.3798C7.08444 13.5354 7.07509 13.6942 7.03323 13.8459C6.99136 13.9977 6.91792 14.1389 6.81771 14.2603C6.71749 14.3817 6.59276 14.4806 6.45166 14.5506C6.31057 14.6205 6.15629 14.6599 5.99891 14.6662C5.84636 14.6938 5.68977 14.6898 5.53883 14.6545C5.38788 14.6192 5.2458 14.5533 5.12138 14.4609C4.99696 14.3685 4.89285 14.2515 4.81551 14.1173C4.73816 13.983 4.68922 13.8343 4.67172 13.6804C4.52573 12.9466 4.15412 12.7609 3.4507 12.8316C2.619 12.9156 1.77402 12.8537 0.942317 12.9068C0.39817 12.9422 0.181394 12.814 0.176971 12.2128C0.150426 9.32464 0.0958669 6.44242 0.0132865 3.56609C0.0132865 3.0312 0.168125 2.84111 0.690153 2.8809C1.21218 2.92068 1.6767 2.96489 1.57495 2.12056C1.56475 1.97869 1.58321 1.83623 1.62922 1.70163C1.67524 1.56704 1.74787 1.44306 1.84279 1.33708C1.93772 1.23109 2.053 1.14526 2.18178 1.08468C2.31057 1.02411 2.45023 0.99003 2.59246 0.984468C2.87078 0.927473 3.16037 0.975421 3.40542 1.11907C3.65047 1.26273 3.83364 1.49192 3.91965 1.76249C4.01255 1.99236 4.06564 2.23549 4.14084 2.46978C4.31338 2.99141 4.74693 2.77481 5.08757 2.79691C5.42822 2.81901 5.39282 2.51841 5.39282 2.2797C5.39282 1.52378 5.71577 1.00657 6.48554 0.909318C7.25531 0.812065 7.65789 1.29833 7.87909 1.99678C7.98084 2.30622 7.92333 2.78365 8.50287 2.74386C8.94527 2.71292 9.3567 2.81459 9.26379 2.09404C9.24079 1.94659 9.24852 1.79599 9.28651 1.65168C9.3245 1.50736 9.39192 1.37245 9.48455 1.2554C9.57718 1.13835 9.69302 1.04169 9.8248 0.971489C9.95658 0.901284 10.1015 0.859048 10.2503 0.84743C10.9803 0.723654 11.4183 1.12151 11.666 1.77133C11.7213 2.01209 11.7983 2.24734 11.896 2.47421C12.1172 2.84996 12.5066 2.63777 12.8207 2.64661C13.2631 2.64661 13.0419 2.32391 13.0507 2.11172C13.0817 1.42211 13.3692 0.896057 14.0903 0.785542C14.8114 0.675028 15.3069 1.0994 15.5325 1.79786C15.652 2.17361 15.652 2.66871 16.3023 2.61567C16.7447 2.5803 16.9748 2.54936 16.9261 2.0012C16.9017 1.84577 16.9103 1.68695 16.9513 1.53504C16.9923 1.38313 17.0648 1.24153 17.164 1.11941C17.2633 0.997286 17.3872 0.897375 17.5275 0.826152C17.6679 0.754929 17.8218 0.713985 17.979 0.705972C18.133 0.674269 18.292 0.674848 18.4458 0.707673C18.5996 0.740498 18.745 0.804855 18.8726 0.896674C19.0002 0.988493 19.1074 1.10578 19.1874 1.24111C19.2674 1.37645 19.3184 1.52689 19.3372 1.68292C19.4831 2.4079 19.8415 2.61567 20.5537 2.54052C21.381 2.4521 22.226 2.54052 23.0577 2.46095C23.6992 2.4079 23.8408 2.65987 23.8363 3.24781C23.8275 4.6624 23.8761 6.09025 23.9027 7.51368ZM16.6518 3.36274C16.1386 3.30528 15.9749 3.43789 16.1342 3.98605C16.6739 5.82501 17.1561 7.68166 17.6605 9.53389C17.7313 9.80796 17.9834 10.1086 17.4747 10.2677C16.9659 10.4268 16.9792 9.97594 16.9349 9.74607C16.497 8.22981 16.0944 6.70471 15.652 5.18403C15.3644 4.13635 15.0902 3.08867 14.7893 2.04983C14.7008 1.75807 14.5504 1.41769 14.139 1.56799C14.0756 1.5956 14.0184 1.63573 13.971 1.68598C13.9235 1.73622 13.8866 1.79553 13.8627 1.86036C13.8387 1.92518 13.8281 1.99418 13.8315 2.0632C13.8349 2.13222 13.8522 2.19985 13.8824 2.26202C13.9355 2.47421 13.9842 2.70408 14.0417 2.89416L15.5414 8.36243C15.9838 9.91406 16.3819 11.4568 16.8199 13.0173C16.9084 13.3312 16.988 13.7776 17.4437 13.6804C17.8994 13.5831 17.8861 13.1764 17.7578 12.7963C17.6405 12.4761 17.5516 12.1463 17.4924 11.8105C17.4481 11.5541 17.165 11.2226 17.6782 11.0634C18.1206 10.9264 18.1206 11.2579 18.209 11.5055C18.417 12.0757 18.8992 11.837 19.2398 11.784C19.7309 11.7132 19.3991 11.3419 19.3416 11.1297C18.709 8.76912 18.0542 6.41295 17.4172 4.05678C17.3021 3.60146 17.196 3.22571 16.6518 3.36274ZM7.36149 12.0094C7.60923 11.9564 8.07375 12.1465 7.91448 11.5674C7.2155 9.02994 6.50324 6.49694 5.82195 3.95952C5.68481 3.46 5.33974 3.57493 5.01679 3.56609C4.69384 3.55725 4.4284 3.54399 4.57439 4.00815C4.6673 4.33969 4.36204 4.34854 4.18066 4.39274C3.87541 4.46789 3.84444 4.19381 3.78693 3.99489C3.64094 3.48652 3.51264 2.97815 3.34453 2.47421C3.24278 2.12056 3.17642 1.64314 2.66767 1.78902C2.15891 1.93489 2.32259 2.37253 2.41992 2.7306C3.37255 6.22286 4.33107 9.72102 5.2955 13.2251C5.3884 13.561 5.46803 14.0606 5.99006 13.8837C6.51209 13.7069 6.32186 13.3135 6.21568 12.9377C5.5919 10.7009 4.95928 8.4641 4.38859 6.21402C4.30895 5.909 3.73384 5.32991 4.51246 5.17076C5.14066 5.02931 4.99467 5.66587 5.08315 5.97973C5.61402 7.79217 6.11983 9.61198 6.60057 11.4392C6.71559 11.8414 6.866 12.1111 7.35706 12.0094L7.36149 12.0094ZM0.849415 7.92037L0.884807 9.77702C0.937896 12.4692 0.937894 12.4603 3.62766 12.1155C4.07006 12.058 4.14084 11.8812 4.03909 11.5143C3.35485 9.04173 2.67356 6.56914 1.99522 4.09656C1.87135 3.6545 1.57937 3.6545 1.21661 3.6545C0.734394 3.6545 0.77421 3.98163 0.77421 4.29549L0.849415 7.92037ZM23.1462 7.61093L23.1108 5.66145C23.0621 3.10635 23.0621 3.10635 20.5007 3.29644C20.4697 3.29863 20.4387 3.29863 20.4078 3.29644C19.9919 3.26549 19.8371 3.44232 19.9654 3.84901C20.6555 6.35106 21.3545 8.85311 22.0402 11.364C22.1685 11.837 22.5224 11.7442 22.8542 11.7398C23.2966 11.7398 23.2302 11.4126 23.2258 11.143C23.1727 9.945 23.1727 8.76912 23.1462 7.59325L23.1462 7.61093ZM10.1574 13.2649C10.122 13.1322 10.0999 13.0085 10.0645 12.8891C9.1001 9.37032 8.13568 5.85301 7.17126 2.33717C7.08278 2.01889 6.98988 1.58125 6.52978 1.70502C6.06969 1.8288 6.13605 2.22665 6.24665 2.62008C7.20813 6.1094 8.16665 9.59725 9.12223 13.0836C9.15175 13.2037 9.18868 13.3218 9.23282 13.4373C9.339 13.6716 9.47614 13.8793 9.78582 13.8219C10.0955 13.7644 10.1486 13.5168 10.1574 13.2649ZM17.6782 2.09404L17.7224 2.27528L20.682 13.004C20.7705 13.3312 20.89 13.7334 21.3501 13.5787C21.8102 13.424 21.6907 13.0527 21.5978 12.6946C21.1908 11.2049 20.7882 9.71071 20.3768 8.22097L18.6736 2.03215C18.5895 1.73597 18.4922 1.38674 18.0896 1.43537C17.7711 1.51052 17.6472 1.77133 17.6782 2.09404ZM10.0159 2.23549C10.0159 2.32833 10.0424 2.42116 10.0645 2.50957L12.9976 13.1411C13.0905 13.4815 13.2011 13.8661 13.6524 13.729C14.1036 13.592 14.0063 13.1897 13.9134 12.8449C13.5373 11.4436 13.1392 10.0467 12.7543 8.64535L10.9847 2.21339C10.9007 1.90395 10.8122 1.57241 10.414 1.60335C10.0159 1.63429 9.99375 1.92605 10.0159 2.23549ZM11.2059 11.921C11.8474 12.0934 11.8164 11.7132 11.6837 11.2402C11.3062 9.89932 10.9346 8.55841 10.5689 7.2175C10.2725 6.14329 9.95835 5.07351 9.68407 3.99047C9.52923 3.34948 9.06914 3.46442 8.66213 3.54841C8.12683 3.62798 8.41439 4.01699 8.48075 4.26897C9.1178 6.62956 9.76812 8.98573 10.414 11.3419C10.529 11.6911 10.6352 12.0625 11.2059 11.921ZM12.7455 3.44231C12.1703 3.31412 12.1792 3.6545 12.3031 4.08772C12.4269 4.52094 12.5729 5.03815 12.7012 5.51557C13.2365 7.45621 13.7939 9.38801 14.2894 11.3331C14.4487 11.9564 14.8513 11.8901 15.2848 11.8591C15.7184 11.8282 15.6166 11.501 15.5458 11.2447C14.8778 8.79565 14.2186 6.35548 13.5285 3.90648C13.5178 3.81927 13.4872 3.73568 13.4391 3.66212C13.391 3.58857 13.3267 3.52701 13.2511 3.48219C13.1755 3.43736 13.0906 3.41046 13.0029 3.40355C12.9152 3.39663 12.8272 3.4099 12.7455 3.44231Z" fill="#949494"/>
</g>
<defs>
<clipPath id="clip0_25_130">
<rect width="14" height="24" fill="white" transform="translate(24 0.683594) rotate(90)"/>
</clipPath>
</defs>
</svg>
