<svg width="24" height="19" viewBox="0 0 24 19" fill="none" xmlns="http://www.w3.org/2000/svg">
<g clip-path="url(#clip0_25_110)">
<path d="M-0.000137524 14.1128C0.00078758 13.185 0.282522 12.2808 0.805489 11.5273C1.32846 10.7738 2.06637 10.2089 2.91556 9.91176C3.76133 9.58668 4.68693 9.55849 5.54971 9.83153C6.41249 10.1046 7.16457 10.6637 7.69006 11.4228C7.92116 11.8193 8.26032 12.1363 8.66493 12.3339C9.06955 12.5316 9.52157 12.601 9.96422 12.5337C10.9878 12.4443 12.0168 12.4443 13.0403 12.5337C15.3844 12.8231 17.4077 12.2868 19.0074 10.4055C19.7065 9.58828 20.4591 9.55423 21.2651 10.2395C22.0711 10.9248 23.9629 11.1674 23.7819 12.2187C23.5804 13.4147 21.9437 12.6145 20.9485 12.7294C19.9533 12.8444 20.0972 13.636 20.052 14.1979C20.0067 14.7597 20.0273 15.594 21.0266 15.5471C21.7833 15.5131 22.54 15.5471 23.2966 15.5727C23.4328 15.561 23.5689 15.5964 23.6836 15.6735C23.7982 15.7505 23.8849 15.8648 23.93 15.9983C23.9637 16.1355 23.9491 16.2807 23.8889 16.4079C23.8286 16.535 23.7265 16.6358 23.601 16.6921C22.577 17.322 21.5448 17.9179 20.5167 18.5478C19.9368 18.9011 19.542 18.4883 19.2583 18.1222C16.3796 14.5256 12.4029 16.0877 8.8292 15.811C8.13831 15.7557 8.07663 16.5218 7.75174 16.9262C7.19455 17.6733 6.42405 18.2198 5.5497 18.4879C4.67534 18.756 3.74159 18.7322 2.88108 18.4198C2.02057 18.1073 1.27705 17.5222 0.756139 16.7475C0.235227 15.9728 -0.0365889 15.0479 -0.0207006 14.1042L-0.000137524 14.1128ZM4.31378 17.9094C5.03196 17.9136 5.73511 17.6965 6.33372 17.2858C6.93233 16.8751 7.39933 16.2893 7.67528 15.603C7.95122 14.9168 8.02364 14.161 7.88331 13.432C7.74298 12.703 7.39624 12.0337 6.88724 11.5093C6.37824 10.9849 5.72998 10.6291 5.025 10.4872C4.32001 10.3453 3.59017 10.4237 2.92837 10.7125C2.26658 11.0012 1.70276 11.4872 1.30868 12.1087C0.914602 12.7301 0.708086 13.4588 0.71542 14.2021C0.718687 15.1873 1.09937 16.1308 1.77396 16.8258C2.44854 17.5208 3.36194 17.9105 4.31378 17.9094ZM22.4988 16.309C20.4755 16.658 19.2706 16.2452 19.2541 14.1809C19.2541 12.0016 20.6277 11.8569 22.4001 12.0016C19.7517 9.99688 20.6112 10.1288 17.5269 12.6997C16.5811 13.4871 16.7045 14.6533 17.3583 15.5088C19.2048 17.8966 20.1877 18.0711 22.4988 16.309ZM12.4646 15.1087C13.4351 15.1087 14.4056 15.1087 15.3761 15.1087C15.9848 15.1087 16.2521 14.8874 16.2603 14.2362C16.2685 13.585 16.0136 13.3381 15.409 13.3424C13.4639 13.3424 11.5228 13.3424 9.57765 13.3424C8.90733 13.3424 8.63591 13.5552 8.64002 14.3043C8.64414 15.0534 9.01426 15.1343 9.54887 15.1343C10.5194 15.1045 11.4899 15.1343 12.4646 15.1087Z" fill="#949494"/>
<path d="M0.0368251 3.60352C0.0368251 3.10127 0.0121516 2.59477 0.0368251 2.09678C0.0615005 1.59879 -0.168793 0.819882 0.645464 0.819882C1.27877 0.819882 2.26164 0.245278 2.45492 1.52643C2.56595 2.24149 2.89906 1.92653 3.24039 1.75627C4.47563 1.115 5.836 0.773999 7.21785 0.759247C8.59971 0.744495 9.96658 1.05638 11.2143 1.67115C11.4858 1.79458 11.8929 2.30534 12.0368 1.52218C12.2548 0.245278 13.2212 0.824139 13.8504 0.819882C14.6729 0.819882 14.4878 1.59028 14.4549 2.09678C14.3932 3.03317 14.7099 3.41624 15.6475 3.37368C16.5851 3.33111 17.5886 3.37368 18.5632 3.3524C18.8305 3.3524 19.2705 3.41199 19.3405 3.28004C20.5989 0.89224 22.0999 3.21619 23.4775 3.01189C23.8271 2.96081 24.0245 3.33537 24.0121 3.71418C24.0128 3.88281 23.9544 4.04597 23.8478 4.1735C23.7412 4.30103 23.5936 4.38432 23.4323 4.40796C22.4371 4.65483 21.4419 4.91447 20.4385 5.14005C20.2534 5.18262 19.9203 5.18262 19.8586 5.07195C18.6249 2.97784 16.6921 4.45904 15.1211 4.11428C14.2986 3.93551 14.5331 4.82083 14.4755 5.33159C14.4179 5.84235 14.6523 6.60849 13.8298 6.60849C13.2294 6.60849 12.3165 7.13627 12.0821 6.02962C11.9587 5.44651 11.7942 5.44651 11.3459 5.66784C10.0894 6.32775 8.70018 6.67168 7.29111 6.67168C5.88204 6.67168 4.49283 6.32775 3.23628 5.66784C2.8785 5.48907 2.57829 5.2422 2.46315 5.93173C2.25341 7.17883 1.27466 6.62125 0.64135 6.617C-0.181132 6.617 0.0861757 5.82532 0.0532759 5.31456C0.020376 4.8038 0.036825 4.1611 0.0368251 3.60352ZM5.32949 3.02892C4.40831 3.14384 5.11565 1.75202 4.17802 2.10955C3.52415 2.35641 2.85382 2.69266 2.68933 3.50562C2.54128 4.23345 3.02243 4.68037 3.55704 4.95703C4.71175 5.57059 5.99106 5.89062 7.28905 5.89062C8.58704 5.89062 9.86636 5.57059 11.0211 4.95703C11.5516 4.71016 12.0862 4.26325 11.9628 3.54819C11.8106 2.76077 11.1403 2.40749 10.4906 2.11806C9.45012 1.65412 10.1821 3.19065 9.29385 3.08425C8.93196 2.748 9.4748 1.66689 8.40146 1.58602C7.16774 1.49238 8.03545 2.94805 7.35691 3.13532C6.56321 2.82887 7.43916 1.66263 6.37404 1.59028C5.21023 1.51366 5.7284 2.68415 5.32949 3.02892ZM1.93265 3.53542C1.40215 2.96933 2.40968 1.57751 1.24998 1.56474C0.172533 1.56474 0.715374 2.89271 0.719486 3.59501C0.719486 4.3654 0.143749 5.80404 1.23354 5.81255C2.40146 5.82106 1.49673 4.36114 1.93265 3.53542ZM13.8586 3.68865C13.5008 2.99061 14.459 1.56048 13.1842 1.56048C12.2219 1.56048 12.7154 2.93953 12.7729 3.66311C12.8305 4.38668 12.0574 5.79127 13.324 5.79127C14.3028 5.81255 13.6078 4.43776 13.8627 3.68865L13.8586 3.68865ZM22.3877 3.71418C21.7215 3.47157 21.1129 2.86292 20.3891 3.3524C20.3405 3.44671 20.3151 3.55196 20.3151 3.65885C20.3151 3.76574 20.3405 3.87099 20.3891 3.96531C21.08 4.62078 21.701 3.8291 22.3919 3.71418L22.3877 3.71418Z" fill="#949494"/>
<path d="M6.68697 14.2826C6.68697 15.5254 5.42035 16.896 4.30589 16.8704C3.07216 16.8449 1.94948 15.4829 1.96593 14.074C1.96593 12.844 3.26545 11.4309 4.3429 11.4564C5.52316 11.4777 6.69519 12.8908 6.68697 14.2826ZM2.70616 14.1592C2.47998 15.3637 3.45873 15.934 4.26888 15.9681C4.49704 15.9851 4.72606 15.9512 4.9405 15.8687C5.15493 15.7863 5.34979 15.6572 5.51193 15.4902C5.67407 15.3232 5.79972 15.1222 5.8804 14.9006C5.96109 14.6791 5.99492 14.4422 5.97963 14.206C6.00357 13.9701 5.97734 13.7316 5.90279 13.5073C5.82823 13.283 5.70716 13.0783 5.54807 12.9075C5.38897 12.7368 5.19571 12.6041 4.98184 12.5189C4.76796 12.4336 4.53865 12.3979 4.31 12.4141C4.08751 12.3933 3.86336 12.4248 3.65425 12.5062C3.44515 12.5875 3.25649 12.7167 3.10233 12.884C2.94816 13.0514 2.83247 13.2526 2.76388 13.4726C2.69528 13.6926 2.67555 13.9259 2.70616 14.1549L2.70616 14.1592Z" fill="#949494"/>
</g>
<defs>
<clipPath id="clip0_25_110">
<rect width="18" height="24" fill="white" transform="translate(24 0.683594) rotate(90)"/>
</clipPath>
</defs>
</svg>
