<svg width="22" height="23" viewBox="0 0 22 23" fill="none" xmlns="http://www.w3.org/2000/svg">
<g clip-path="url(#clip0_25_98)">
<path d="M14.2973 0.687483C16.3592 0.687483 18.4211 0.687483 20.483 0.687483C21.6501 0.687483 21.9846 1.02971 21.9963 2.15363C21.9963 3.09477 21.9963 4.03979 21.9963 4.98481C21.9963 5.92984 21.6306 6.37318 20.6502 6.33429C19.95 6.30318 19.8722 6.59096 19.8722 7.1782C19.9072 8.43823 19.8722 9.69827 19.8722 10.9544C19.8722 11.4989 19.7477 11.7322 19.1563 11.6894C18.1837 11.6428 17.2112 11.6894 16.2347 11.6894C14.8458 11.6894 14.4023 12.405 14.8692 13.6767C15.0948 14.2834 15.5072 14.1784 15.9001 14.1473C16.5109 14.0967 16.7288 14.3301 16.6548 14.9251C16.6373 15.21 16.6373 15.4957 16.6548 15.7806C16.6548 16.9473 16.6548 16.9785 15.5305 16.994C14.7524 16.994 14.947 17.7212 14.6513 18.0751C14.3556 18.429 14.5618 18.6702 14.8458 18.8529C15.5967 19.3663 15.5227 19.8485 14.8458 20.3424C14.7349 20.4332 14.6321 20.5334 14.5385 20.6419C13.667 21.513 13.6476 21.5363 12.7606 20.7469C12.7075 20.6909 12.6436 20.6462 12.5727 20.6158C12.5018 20.5853 12.4254 20.5695 12.3482 20.5695C12.271 20.5695 12.1946 20.5853 12.1237 20.6158C12.0528 20.6462 11.9889 20.6909 11.9358 20.7469C11.6013 20.9802 10.936 20.813 10.9905 21.5247C10.9905 21.723 10.9905 21.9136 10.9905 22.1236C11.0566 22.598 10.8271 22.7264 10.3991 22.6875C10.119 22.668 9.8467 22.668 9.54325 22.668C8.32557 22.668 8.30223 22.668 8.14661 21.443C8.06102 20.7469 7.39966 20.9452 7.05342 20.6652C6.77331 20.428 6.50488 20.5835 6.32981 20.8441C5.75015 21.7075 5.23273 21.4858 4.7192 20.7819C4.60192 20.6117 4.45886 20.4608 4.29515 20.3346C3.63379 19.8485 3.47429 19.3702 4.26014 18.8529C4.34214 18.8102 4.41313 18.749 4.46754 18.6743C4.52195 18.5995 4.5583 18.5131 4.57375 18.422C4.5892 18.3308 4.58333 18.2373 4.55659 18.1488C4.52986 18.0603 4.48298 17.9792 4.41964 17.9118C4.17066 17.5229 4.24069 16.8229 3.45483 16.9862C2.59506 17.1612 2.33052 16.7529 2.4589 15.9556C2.56783 15.2595 2.41222 14.8395 1.57968 14.6373C1.14793 14.5193 0.764711 14.2675 0.485103 13.9181C0.205496 13.5688 0.0438979 13.1398 0.0235348 12.6928C-0.0509591 12.2355 0.0169477 11.7665 0.218056 11.3491C0.419164 10.9317 0.743753 10.5862 1.14785 10.3594C1.37302 10.2455 1.57135 10.085 1.72965 9.88848C1.88796 9.69202 2.0026 9.46411 2.06598 9.21992C2.26438 8.57824 2.91018 8.15434 3.12415 7.59432C3.31089 7.10431 2.5406 6.59097 2.51726 5.93373C2.46725 5.46236 2.55401 4.98657 2.76717 4.56315C2.98033 4.13974 3.31089 3.7866 3.71938 3.54589C3.98392 3.38644 4.27959 3.30866 4.28348 2.88865C4.28348 1.99029 4.89427 1.72195 5.67234 1.74529C6.15475 1.74529 6.52044 1.72195 6.75386 1.18138C6.95616 0.714706 7.46969 0.683594 7.9482 0.683594C10.0568 0.691372 12.1809 0.687483 14.2973 0.687483ZM11.0138 8.41101C10.9983 8.6376 10.9983 8.86499 11.0138 9.09158C11.0605 9.52715 10.7921 10.0327 11.4923 10.2816C12.1926 10.5305 12.6944 10.7677 13.1574 10.0094C13.4608 9.51937 13.7371 9.69049 14.0911 10.0094C14.4451 10.3283 14.7174 11.0011 15.4138 11.0011C16.472 10.9816 17.5302 11.0011 18.5922 11.0011C18.9813 11.0011 19.1563 10.8727 19.1524 10.4605C19.1524 9.51937 19.1291 8.57435 19.1524 7.63321C19.1524 7.15876 18.9385 7.06542 18.5222 7.06931C17.005 7.06931 15.4877 7.06931 13.9705 7.06931C13.7604 7.06931 13.4959 6.97986 13.3792 7.27543C12.9395 8.40323 12.0175 8.53157 10.9827 8.44212C10.866 8.32934 10.7493 8.21267 10.6248 8.10378C10.3174 7.86448 10.0993 7.52894 10.0055 7.15096C9.9117 6.77298 9.94756 6.37446 10.1074 6.01928C10.2762 5.65113 10.5656 5.3515 10.9277 5.1698C11.2898 4.98811 11.703 4.9352 12.0992 5.01981C12.2898 5.05481 12.4532 5.22204 12.7489 5.09371C12.7489 4.13313 12.7489 3.14921 12.7489 2.13807C12.7489 1.86973 12.9318 1.41083 12.4143 1.4225C12.002 1.4225 11.5273 1.18138 11.1811 1.71806C10.2124 3.2231 8.91301 3.22699 7.97155 1.71806C7.707 1.29416 7.38799 1.32917 7.31018 1.66751C7.10399 2.62031 6.42318 2.44531 5.79294 2.44531C5.45837 2.44531 5.01487 2.38697 5.01487 2.87309C5.01487 3.35922 5.40391 3.19199 5.649 3.26199C6.14865 3.40743 6.5889 3.7083 6.90582 4.12092C7.22274 4.53354 7.39982 5.03641 7.41133 5.55649C7.45024 6.66486 6.88224 7.69155 5.83185 7.93655C4.99931 8.13489 4.86704 8.54713 4.9643 9.23548C4.99931 9.47659 4.87871 9.74104 5.09657 10.0133C5.43114 9.54659 5.70346 9.68271 6.03025 10.0405C6.30647 10.3322 6.50877 10.8183 7.13901 10.5072C7.70311 10.2155 8.32946 10.0833 8.1505 9.21992C8.03768 8.67935 8.28277 8.44212 8.86244 8.47712C9.57049 8.49268 10.2863 8.43046 11.0138 8.41101ZM14.6941 11.4133C14.379 11.1877 14.0755 10.9739 13.776 10.7483C13.4764 10.5227 13.3325 10.7911 13.2235 10.9505C12.78 11.6039 12.286 11.5144 11.7219 11.1333C11.5087 10.9902 11.2672 10.8947 11.0138 10.8533C10.4536 10.7716 10.2124 10.4955 10.3058 9.93161C10.3991 9.3677 10.1657 9.1927 9.59772 9.1927C9.02972 9.1927 8.81964 9.38715 8.89356 9.93549C8.96748 10.4838 8.70682 10.76 8.16995 10.8494C7.91415 10.8888 7.67068 10.9859 7.45802 11.1333C6.83945 11.5922 6.35316 11.5222 5.90187 10.9C5.51284 10.3633 5.2872 10.9 5.04599 11.1022C4.80479 11.3044 4.4391 11.5689 4.91761 11.88C5.57897 12.3311 5.59064 12.8367 5.13936 13.4356C5.00426 13.6204 4.91614 13.8353 4.8826 14.0617C4.79701 14.6839 4.49356 14.9678 3.84776 14.8628C3.20196 14.7578 3.21752 15.1156 3.21363 15.5784C3.20974 16.0412 3.31089 16.3562 3.8711 16.2707C4.52468 16.1501 4.8009 16.4729 4.89427 17.0757C4.93233 17.3027 5.02146 17.5181 5.15492 17.7057C5.57119 18.2813 5.57119 18.7674 4.94873 19.1991C4.43521 19.553 4.80479 19.8135 5.07323 20.0585C5.34166 20.3035 5.55952 20.7547 5.92911 20.2219C6.38428 19.5568 6.87446 19.5491 7.48525 20.0157C7.67507 20.1442 7.89216 20.2267 8.11938 20.2569C8.7185 20.3619 9.03362 20.6458 8.9169 21.2952C8.81964 21.8358 9.09197 21.9602 9.59772 21.9641C10.1035 21.968 10.4341 21.8475 10.3252 21.2602C10.2163 20.673 10.4614 20.3658 11.0488 20.2646C11.3276 20.216 11.5928 20.1086 11.8269 19.9496C12.3521 19.5607 12.7839 19.5607 13.1769 20.1246C13.5075 20.6224 13.7876 20.4085 14.1183 20.078C14.449 19.7474 14.6746 19.4713 14.1728 19.1329C13.597 18.7441 13.6087 18.3124 13.9938 17.7874C14.1423 17.5774 14.242 17.3369 14.2856 17.0835C14.3984 16.4418 14.7213 16.1462 15.3905 16.2707C15.9001 16.3679 16.0324 16.0918 15.9974 15.6329C15.9701 15.244 16.0791 14.7578 15.4294 14.8551C14.7097 14.9756 14.3829 14.6567 14.2623 13.9723C14.2136 13.7195 14.11 13.4806 13.9588 13.2722C13.6165 12.7783 13.5698 12.3661 14.13 11.9928C14.3306 11.816 14.5154 11.6221 14.6824 11.4133H14.6941ZM17.5107 1.44584C17.8997 2.84587 17.7091 4.22257 17.713 5.58372C17.713 6.24873 17.9309 6.36152 18.5456 6.36152C19.3236 6.36152 19.1291 5.8715 19.1602 5.45149C19.1602 5.2376 19.1174 4.96926 19.4676 4.94981C19.6893 4.94981 19.8566 4.97704 19.8877 5.24926C19.9655 5.93373 20.4946 5.60316 20.8214 5.63816C21.2104 5.63816 21.3116 5.32704 21.3077 4.97704C21.3077 4.00868 21.3077 3.03254 21.3077 2.06418C21.3077 1.4575 20.9537 1.40306 20.4674 1.37583C19.9111 1.34083 19.8761 1.64028 19.8838 2.0603C19.8838 2.6592 19.8838 3.2581 19.8838 3.8609C19.8838 4.09812 19.7788 4.24979 19.5298 4.24979C19.478 4.25708 19.4252 4.25182 19.3758 4.23447C19.3265 4.21711 19.282 4.18816 19.2462 4.15005C19.2103 4.11194 19.1842 4.06578 19.1699 4.01547C19.1556 3.96515 19.1536 3.91214 19.1641 3.8609C19.1641 3.51867 19.1641 3.17643 19.1641 2.8342C19.1486 1.29805 19.1486 1.29805 17.499 1.44584H17.5107ZM16.9622 3.97757C16.1841 4.28869 15.406 4.33535 14.733 3.69756C14.06 3.05976 14.2389 2.22363 14.3984 1.44972C13.7059 1.26694 13.4297 1.44972 13.4647 2.13419C13.5153 3.0481 13.4647 3.9659 13.4647 4.87981C13.4647 6.35763 13.4647 6.35763 14.9586 6.35763C17.2384 6.35763 17.2384 6.35763 16.9505 3.97757H16.9622ZM3.08525 14.1706C3.80497 14.3184 4.14732 14.015 4.40408 13.3306C4.60249 12.8095 4.57915 12.5061 4.16288 12.1639C3.95669 11.9967 3.60656 11.8217 3.66491 11.53C3.80886 10.8183 3.23308 10.7911 2.8635 10.6861C2.6334 10.6323 2.39473 10.626 2.16213 10.6677C1.92953 10.7094 1.7079 10.7982 1.51083 10.9285C1.31376 11.0589 1.14541 11.2281 1.01609 11.4258C0.886779 11.6235 0.79923 11.8456 0.758813 12.0783C0.714014 12.3016 0.714672 12.5316 0.76075 12.7547C0.806827 12.9777 0.897379 13.1892 1.027 13.3765C1.15662 13.5638 1.32266 13.723 1.5152 13.8448C1.70775 13.9665 1.92285 14.0482 2.14767 14.085C2.45501 14.1434 2.77402 14.1434 3.08525 14.1706ZM3.21752 5.61483C3.19733 6.06222 3.3542 6.49956 3.65418 6.83219C3.95416 7.16482 4.37311 7.36597 4.82035 7.3921C5.05662 7.40955 5.29397 7.37887 5.51803 7.30194C5.74209 7.22501 5.9482 7.10342 6.12388 6.94453C6.29955 6.78564 6.44114 6.59276 6.54007 6.37757C6.63899 6.16238 6.6932 5.92935 6.6994 5.69261C6.69072 5.24317 6.50861 4.81448 6.19112 4.49613C5.87363 4.17779 5.44535 3.99443 4.99578 3.98439C4.54621 3.97435 4.11015 4.1384 3.77876 4.44225C3.44736 4.74609 3.24627 5.16623 3.21752 5.61483ZM17.005 2.55809C17.015 2.41839 16.9974 2.27807 16.9532 2.14517C16.909 2.01227 16.839 1.88939 16.7472 1.78356C16.6554 1.67773 16.5437 1.59103 16.4184 1.5284C16.293 1.46578 16.1566 1.42847 16.0168 1.41861C15.7424 1.40985 15.4757 1.51043 15.2754 1.69823C15.0751 1.88603 14.9577 2.14567 14.9489 2.42003C14.9401 2.69439 15.0408 2.96099 15.2286 3.16119C15.4165 3.36139 15.6762 3.47879 15.9507 3.48755C16.2132 3.50148 16.4706 3.41192 16.6678 3.23812C16.8649 3.06433 16.986 2.82016 17.005 2.55809ZM12.7372 6.72319C12.7453 6.58613 12.725 6.44888 12.6776 6.32001C12.6302 6.19113 12.5568 6.0734 12.4619 5.97415C12.367 5.8749 12.2526 5.79626 12.126 5.74314C11.9993 5.69002 11.8631 5.66355 11.7257 5.66539C11.5837 5.65803 11.4416 5.68071 11.3089 5.73196C11.1762 5.78321 11.0558 5.86187 10.9556 5.9628C10.8553 6.06373 10.7775 6.18467 10.7272 6.3177C10.6769 6.45074 10.6553 6.59289 10.6637 6.73486C10.6799 6.99876 10.7961 7.24655 10.9888 7.4277C11.1814 7.60884 11.436 7.7097 11.7005 7.7097C11.9649 7.7097 12.2195 7.60884 12.4121 7.4277C12.6048 7.24655 12.7211 6.99876 12.7372 6.73486V6.72319ZM4.20956 10.5072C4.23033 10.4174 4.24592 10.3265 4.25625 10.2349C4.25625 9.80716 4.28348 9.37937 4.25625 8.95158C4.25625 8.62879 4.45077 8.14656 4.06951 8.02211C3.68826 7.89767 3.45094 8.3449 3.20974 8.61713C3.08717 8.774 2.97539 8.93902 2.87517 9.11103C2.56394 9.59715 2.48613 9.95494 3.26421 10.0638C3.59757 10.1691 3.91547 10.3182 4.20956 10.5072ZM8.67959 1.43417C9.27093 2.3053 9.90117 2.29752 10.438 1.43417H8.67959Z" fill="#949494"/>
<path d="M9.52368 19.0977C8.74277 19.0931 7.98558 18.829 7.37123 18.3471C6.75688 17.8652 6.32024 17.1928 6.13 16.4357C5.93976 15.6785 6.00672 14.8797 6.32035 14.1648C6.63398 13.4498 7.17648 12.8594 7.86249 12.4865C8.54542 12.1028 9.33665 11.9573 10.1115 12.0727C10.8863 12.1882 11.6006 12.5582 12.1419 13.1243C12.6739 13.6901 13.0066 14.4141 13.0895 15.1862C13.1723 15.9583 13.0008 16.7364 12.601 17.4021C12.457 17.6277 12.3598 18.0749 11.9668 17.8844C11.4689 17.6433 11.8307 17.3399 11.9941 17.056C12.3077 16.5532 12.4556 15.9646 12.4169 15.3733C12.3782 14.782 12.1549 14.2177 11.7784 13.76C11.4019 13.3023 10.8912 12.9742 10.3184 12.8219C9.74545 12.6697 9.13921 12.701 8.58505 12.9114C8.03089 13.1218 7.55675 13.5008 7.22944 13.9948C6.90213 14.4889 6.73815 15.0732 6.76061 15.6653C6.78306 16.2575 6.99083 16.8277 7.35462 17.2956C7.71841 17.7634 8.21989 18.1054 8.7884 18.2733C9.39108 18.467 10.0437 18.4352 10.6247 18.1838C10.9242 18.0516 11.1849 17.9738 11.3132 18.3549C11.4416 18.7361 11.0565 18.7438 10.8659 18.845C10.4442 19.0325 9.98465 19.1191 9.52368 19.0977Z" fill="#949494"/>
<path d="M11.6868 15.5434C11.6869 16.1045 11.4678 16.6434 11.076 17.0452C10.6843 17.447 10.1509 17.6799 9.58986 17.6941C9.02928 17.6825 8.4944 17.4568 8.09504 17.0634C7.69568 16.6699 7.46215 16.1386 7.44238 15.5784C7.47244 15.0339 7.69852 14.5185 8.07891 14.1276C8.45931 13.7366 8.96834 13.4963 9.51206 13.4512C10.0727 13.4583 10.6095 13.6786 11.0134 14.0673C11.4174 14.4559 11.6581 14.9837 11.6868 15.5434ZM10.9787 15.5707C10.9685 15.1976 10.8118 14.8435 10.5424 14.5851C10.273 14.3268 9.9126 14.1848 9.53929 14.1901C9.18133 14.199 8.84056 14.3454 8.58773 14.5988C8.3349 14.8523 8.18944 15.1934 8.18155 15.5512C8.1763 15.9244 8.31828 16.2846 8.57676 16.5539C8.83524 16.8233 9.18942 16.98 9.56263 16.9902C9.93484 16.9775 10.2883 16.8238 10.5513 16.5601C10.8143 16.2965 10.9671 15.9428 10.9787 15.5707Z" fill="#949494"/>
<path d="M3.52077 12.3779C3.52077 12.6554 3.41051 12.9215 3.21425 13.1177C3.018 13.3139 2.75181 13.4241 2.47426 13.4241C2.19671 13.4241 1.93053 13.3139 1.73427 13.1177C1.53801 12.9215 1.42775 12.6554 1.42775 12.3779C1.4234 12.2421 1.44702 12.1068 1.49715 11.9805C1.54727 11.8542 1.62283 11.7395 1.71914 11.6436C1.81545 11.5477 1.93045 11.4726 2.057 11.423C2.18355 11.3734 2.31896 11.3503 2.45481 11.3551C3.09283 11.3474 3.4274 11.7401 3.52077 12.3779Z" fill="#949494"/>
<path d="M5.99915 5.75855C5.96895 6.02658 5.8356 6.27235 5.62733 6.44383C5.41906 6.61531 5.15221 6.69905 4.88327 6.67732C4.61432 6.65559 4.36439 6.53009 4.18637 6.3274C4.00835 6.12471 3.91622 5.86072 3.92948 5.59132C3.92811 5.45551 3.95557 5.32095 4.01005 5.19652C4.06453 5.0721 4.14478 4.96064 4.24552 4.86949C4.34625 4.77835 4.46518 4.7096 4.59444 4.66777C4.72371 4.62595 4.86038 4.612 4.99544 4.62686C5.13728 4.63049 5.27687 4.66324 5.40551 4.72309C5.53416 4.78293 5.64912 4.86858 5.74325 4.97471C5.83739 5.08085 5.90868 5.2052 5.9527 5.34004C5.99672 5.47489 6.01253 5.61734 5.99915 5.75855Z" fill="#949494"/>
</g>
<defs>
<clipPath id="clip0_25_98">
<rect width="22" height="22" fill="white" transform="translate(0 0.683594)"/>
</clipPath>
</defs>
</svg>
