<svg width="22" height="18" viewBox="0 0 22 18" fill="none" xmlns="http://www.w3.org/2000/svg">
<g clip-path="url(#clip0_25_114)">
<path d="M16.5707 4.24667C17.3765 5.21358 17.3765 5.21359 16.4249 5.93011C15.4734 6.64662 14.5641 7.38241 13.5896 8.04114C12.8644 8.53038 13.0064 9.10051 13.2059 9.77851C13.4054 10.4565 13.6893 10.7839 14.3915 10.7685C14.7659 10.7622 15.1401 10.7944 15.508 10.8648C17.0427 11.1538 18.4047 10.9457 19.6248 9.81703C20.442 9.04658 20.749 9.25845 21.3322 10.2331C21.6198 10.6886 21.8069 11.2007 21.8811 11.735C21.9552 12.2692 21.9145 12.8131 21.7619 13.3303C21.4396 14.5206 21.2439 15.7495 21.0214 16.9668C21.0186 17.0744 20.9928 17.1801 20.9455 17.2768C20.8983 17.3734 20.8309 17.4587 20.7478 17.5267C20.6647 17.5947 20.568 17.644 20.4643 17.671C20.3605 17.698 20.2521 17.7022 20.1466 17.6833C14.7521 17.6833 9.35762 17.6833 3.96697 17.6833C3.64084 17.6833 3.28786 17.6833 3.22647 17.2981C2.98476 15.6648 1.81455 14.563 0.958947 13.2879C0.498603 12.6611 0.231775 11.9123 0.191595 11.1345C0.14939 9.78236 0.0573076 8.43792 -0.0117542 7.07808C-0.0634241 6.54244 0.0502226 6.0038 0.313776 5.53521C0.577329 5.06661 0.978037 4.69074 1.46156 4.45854C3.32239 3.4377 5.17939 2.40914 7.04405 1.37674C7.26347 1.21846 7.52264 1.12505 7.79222 1.10708C9.61468 1.27658 11.3642 0.606289 13.1982 0.691039C15.8609 0.810459 18.5313 0.718005 21.1979 0.725709C21.4741 0.725709 21.8194 0.621698 21.9652 0.94914C22.111 1.27658 21.758 1.43838 21.6046 1.65795C20.5303 3.19886 18.892 3.67268 17.1885 4.03094C16.9784 4.09041 16.7722 4.16245 16.5707 4.24667ZM12.3963 2.56323C11.8166 2.10501 11.1109 1.83612 10.3744 1.79278C8.65094 1.61416 6.92028 2.05506 5.49016 3.03706C4.78693 3.48112 4.06077 3.88746 3.31472 4.25437C0.69421 5.69897 0.724904 5.48324 0.782456 8.70758C0.82466 11.0883 1.43854 13.076 2.96557 14.8519C3.10013 15.046 3.28076 15.2033 3.49112 15.3095C3.70149 15.4158 3.93493 15.4677 4.17032 15.4606C8.67468 15.4413 13.179 15.4606 17.6834 15.4413C18.6464 15.4413 19.9279 15.8689 20.4957 15.2603C21.0636 14.6516 20.9715 13.3727 21.1787 12.3903C21.2746 11.9396 21.2784 11.4119 20.8948 11.2347C20.5111 11.0575 20.3308 11.6006 20.1044 11.8549C19.4943 12.5483 18.9534 13.2956 17.8752 13.2687C16.6436 13.2378 15.4082 13.2687 14.1766 13.2687C12.5958 13.2301 11.5407 12.425 10.9998 10.9573C10.6161 9.87481 10.194 8.80003 9.84873 7.70214C9.66651 7.03957 9.25935 6.4618 8.6977 6.06879C7.80757 5.44087 7.86896 4.91311 8.82815 4.42002C9.98301 3.76899 11.1609 3.1873 12.3963 2.56323ZM12.3963 1.48845C13.5474 2.60561 13.4975 2.8406 12.0779 3.55712L10.4626 4.36994C8.8128 5.20203 8.83966 5.16351 10.2746 6.33074C10.8885 6.83153 11.3067 6.80072 11.8976 6.33074C14.0653 4.60493 16.3751 3.14878 19.1874 2.71732C19.8512 2.61717 20.2042 2.07015 20.6377 1.48845H12.3963ZM20.3576 10.3949L20.2387 10.2485C19.7054 10.6337 19.1606 10.9881 18.6426 11.4042C18.4655 11.5489 18.2609 11.6561 18.0412 11.719C17.8216 11.7819 17.5915 11.7993 17.3649 11.7701C16.3098 11.6584 15.2547 11.5467 14.1996 11.5005C13.1445 11.4542 12.734 10.9072 12.4923 9.99809C12.1086 8.62283 12.1776 8.23375 13.0563 7.55961C13.9349 6.88546 14.8941 6.18821 15.8034 5.4871C15.9684 5.35612 16.352 5.28293 16.095 4.91311C15.8379 4.54329 15.6154 4.61263 15.3008 4.83606C14.2533 5.60652 13.1867 6.31918 12.1278 7.05496C11.6904 7.36314 11.276 7.72526 10.6122 7.65977C11.0381 8.84241 11.3796 9.9403 11.8285 10.9958C11.9985 11.4452 12.3022 11.8312 12.6983 12.1013C13.0943 12.3715 13.5636 12.5127 14.0423 12.5059C15.3315 12.5367 16.6206 12.5059 17.9098 12.5059C18.1101 12.5127 18.3094 12.4727 18.4918 12.3892C18.6742 12.3056 18.8348 12.1808 18.961 12.0244L20.3576 10.3949ZM11.9896 16.9437H19.1299C19.3025 16.9437 19.4713 16.9437 19.644 16.9437C19.9586 16.9437 20.3346 16.9976 20.3346 16.5238C20.3346 16.05 19.9279 16.2195 19.6862 16.2195C14.6114 16.2195 9.53539 16.2195 4.45808 16.2195H4.20101C3.99383 16.2195 3.7828 16.2387 3.81734 16.5354C3.83652 16.7549 3.92476 16.9206 4.17032 16.9476C4.41587 16.9745 4.55399 16.9476 4.77269 16.9476L11.9896 16.9437Z" fill="#0A5BFC"/>
<path d="M8.43333 9.34386C8.44018 9.81934 8.30597 10.2861 8.04777 10.6848C7.78957 11.0834 7.41907 11.3959 6.98342 11.5825C6.54777 11.7691 6.06669 11.8213 5.6014 11.7325C5.13611 11.6437 4.70767 11.4178 4.3706 11.0838C4.03354 10.7497 3.8031 10.3225 3.70861 9.85652C3.61413 9.39054 3.65988 8.90688 3.84004 8.46709C4.02019 8.0273 4.32661 7.65128 4.72028 7.38689C5.11396 7.12251 5.57708 6.98171 6.0507 6.98242C6.67493 6.9902 7.27188 7.24054 7.71616 7.68087C8.16044 8.1212 8.4175 8.71726 8.43333 9.34386ZM6.03535 11.0388C6.47028 11.0321 6.88594 10.8575 7.19601 10.5512C7.50608 10.2449 7.68675 9.83046 7.70051 9.39394C7.69749 8.95759 7.52351 8.53998 7.21621 8.23143C6.9089 7.92288 6.49296 7.7482 6.05837 7.74517C5.84293 7.73998 5.62866 7.77843 5.42835 7.85824C5.22804 7.93805 5.04581 8.05757 4.89253 8.20967C4.73926 8.36176 4.61808 8.54332 4.53625 8.74348C4.45441 8.94365 4.4136 9.15832 4.41624 9.37467C4.4132 9.59083 4.45272 9.80546 4.53254 10.0062C4.61235 10.207 4.73089 10.39 4.88134 10.5446C5.0318 10.6992 5.21119 10.8225 5.40923 10.9073C5.60728 10.9921 5.82005 11.0368 6.03535 11.0388Z" fill="#0A5BFC"/>
<path d="M5.66298 14.7289C5.06915 14.7524 4.4846 14.5754 4.00266 14.2263C3.52071 13.8772 3.16915 13.376 3.0041 12.8028C2.94459 12.677 2.92372 12.5363 2.94414 12.3986C2.96456 12.2609 3.02536 12.1324 3.11878 12.0296C3.2122 11.9267 3.33401 11.854 3.4687 11.8209C3.60339 11.7878 3.74485 11.7957 3.87505 11.8436C4.86493 12.1286 5.83563 12.4869 6.8025 12.8452C7.38569 13.0609 7.38569 13.5771 7.30511 14.0817C7.22454 14.5864 6.89458 14.7366 6.43801 14.7328L5.66298 14.7289ZM3.86354 12.6063C4.24721 13.8121 4.9762 14.205 6.05433 14.0124C6.23849 13.9777 6.48788 14.0625 6.55311 13.8005C6.61833 13.5386 6.38813 13.4615 6.20396 13.4153C5.45963 13.1418 4.72297 12.8914 3.86354 12.6063Z" fill="#0A5BFC"/>
</g>
<defs>
<clipPath id="clip0_25_114">
<rect width="22" height="17" fill="white" transform="translate(0 0.683594)"/>
</clipPath>
</defs>
</svg>
