<svg width="19" height="29" viewBox="0 0 19 29" fill="none" xmlns="http://www.w3.org/2000/svg">
<g clip-path="url(#clip0_25_254)">
<path d="M9.3203 14.4727C7.85626 14.4727 6.42506 14.0697 5.20775 13.3144C3.99044 12.5592 3.04167 11.4857 2.48141 10.2298C1.92114 8.9739 1.7746 7.59198 2.06022 6.25873C2.34584 4.92548 3.05084 3.7008 4.08607 2.73958C5.12131 1.77836 6.44023 1.12382 7.87614 0.858625C9.31205 0.593426 10.8005 0.729554 12.1531 1.24976C13.5056 1.76997 14.6617 2.65091 15.4751 3.78118C16.2885 4.91145 16.7226 6.24021 16.7226 7.59958C16.7212 9.42204 15.9409 11.1695 14.553 12.4581C13.1651 13.7468 11.2831 14.4714 9.3203 14.4727ZM9.3203 1.50754C8.02137 1.50754 6.75157 1.86528 5.67162 2.53543C4.59166 3.20559 3.75003 4.15808 3.25319 5.27243C2.75635 6.38678 2.62666 7.61293 2.88046 8.79575C3.13425 9.97857 3.76015 11.065 4.679 11.9174C5.59786 12.7699 6.76838 13.3501 8.04249 13.5848C9.31659 13.8195 10.637 13.6981 11.8368 13.2359C13.0366 12.7737 14.0617 11.9915 14.7826 10.9882C15.5035 9.98495 15.8877 8.80565 15.8867 7.59958C15.8811 5.98551 15.187 4.4393 13.9563 3.29935C12.7257 2.1594 11.0587 1.51859 9.3203 1.51731V1.50754Z" fill="black"/>
<path d="M18.5847 28.7409H0.420548C0.309002 28.7409 0.20203 28.6998 0.123155 28.6265C0.0442793 28.5533 0 28.454 0 28.3504V22.5269C0 20.1875 1.00084 17.9439 2.78243 16.2897C4.56403 14.6355 6.98042 13.7061 9.49997 13.7061C12.0195 13.7061 14.4359 14.6355 16.2175 16.2897C17.9991 17.9439 18.9999 20.1875 18.9999 22.5269V28.3504C19.0006 28.4015 18.9904 28.4521 18.9698 28.4995C18.9493 28.5468 18.9188 28.59 18.8802 28.6263C18.8416 28.6626 18.7955 28.6915 18.7448 28.7112C18.694 28.7308 18.6396 28.7409 18.5847 28.7409ZM0.835898 27.9648H18.1851V22.5269C18.1851 20.3907 17.2712 18.3421 15.6444 16.8316C14.0175 15.3211 11.8111 14.4725 9.5105 14.4725C7.20985 14.4725 5.00345 15.3211 3.37664 16.8316C1.74984 18.3421 0.835898 20.3907 0.835898 22.5269V27.9648Z" fill="black"/>
</g>
<defs>
<clipPath id="clip0_25_254">
<rect width="19" height="28" fill="white" transform="translate(0 0.741211)"/>
</clipPath>
</defs>
</svg>
