<svg width="21" height="22" viewBox="0 0 21 22" fill="none" xmlns="http://www.w3.org/2000/svg">
<g clip-path="url(#clip0_25_106)">
<path d="M10.6008 0.683594C13.3733 0.727244 16.0175 1.85907 17.963 3.83489C19.9084 5.81071 20.9992 8.47214 20.9999 11.245C20.9603 17.0345 16.0577 21.8262 10.3078 21.6796C7.56923 21.5775 4.97919 20.4085 3.09093 18.4224C1.20267 16.4362 0.165897 13.7905 0.202089 11.0503C0.23828 8.31005 1.34456 5.6926 3.28462 3.75705C5.22468 1.82151 7.84469 0.721325 10.585 0.691514L10.6008 0.683594ZM10.5652 20.9906C12.5037 20.9757 14.3946 20.3877 15.9996 19.3006C17.6047 18.2134 18.8523 16.6757 19.5853 14.881C20.3183 13.0864 20.504 11.1149 20.119 9.21495C19.734 7.31497 18.7956 5.57134 17.4218 4.20357C16.0479 2.8358 14.3002 1.90502 12.3985 1.52842C10.4969 1.15182 8.52629 1.34621 6.73487 2.08714C4.94345 2.82807 3.41126 4.08242 2.33119 5.69226C1.25112 7.30211 0.671445 9.19551 0.665137 11.1341C0.653415 12.4354 0.901806 13.726 1.39573 14.9299C1.88965 16.1339 2.61914 17.2271 3.54137 18.1453C4.46361 19.0635 5.55999 19.7881 6.76615 20.2767C7.97232 20.7654 9.26394 21.008 10.5652 20.9906Z" fill="#949494"/>
<path d="M10.5454 20.4793C8.70053 20.4879 6.8947 19.9482 5.3571 18.9287C3.81951 17.9092 2.61947 16.4559 1.90931 14.7532C1.19914 13.0505 1.01087 11.1751 1.36838 9.36522C1.7259 7.55532 2.61308 5.89243 3.91733 4.58763C5.22158 3.28282 6.88409 2.39493 8.69384 2.03664C10.5036 1.67835 12.379 1.86582 14.082 2.57526C15.785 3.28469 17.2389 4.48411 18.259 6.02127C19.2792 7.55843 19.8197 9.36403 19.8118 11.2089C19.7871 13.6592 18.803 16.0022 17.0707 17.7353C15.3383 19.4684 12.9957 20.4535 10.5454 20.4793ZM11.4998 5.7203C11.4998 6.54794 11.472 7.37955 11.4998 8.21115C11.5433 9.20512 12.0264 9.62488 13.0442 9.28432C14.5213 8.78932 16.0023 8.28243 17.4992 7.84683C18.2674 7.62111 18.2516 7.29243 17.8952 6.70635C17.0407 5.32535 15.8228 4.20606 14.3747 3.47101C11.7572 2.13648 11.4839 2.283 11.4879 5.13422L11.4998 5.7203ZM9.48806 5.91434C9.48806 5.18174 9.44054 4.44517 9.48806 3.71653C9.56726 2.72652 9.17918 2.52852 8.30006 2.80968C6.64696 3.27535 5.16159 4.20422 4.01927 5.48666C2.38774 7.33995 2.43526 7.50627 4.69247 8.23095C5.06472 8.35371 5.44092 8.45271 5.8092 8.5834C9.76922 10.0011 9.51974 9.74764 9.48806 5.91434ZM10.0821 19.7744C11.3729 19.8355 12.6616 19.6166 13.8599 19.1329C14.4817 18.8834 14.7232 18.6498 14.2282 18.0082C13.2422 16.7371 12.3353 15.4065 11.377 14.1155C10.7988 13.3235 10.189 13.3433 9.61478 14.1155C9.11978 14.7808 8.59706 15.4303 8.16146 16.1312C7.61497 17.0103 6.20916 17.937 6.65269 18.6973C7.20709 19.6556 8.76338 19.7071 9.99891 19.7586C10.1454 19.7903 10.2919 19.7863 10.0821 19.7863V19.7744ZM19.1268 11.3079C19.1505 9.45856 19.1505 9.4546 17.3962 10.0209C16.2359 10.3971 15.0757 10.7693 13.9193 11.1653C12.5967 11.6168 12.4304 12.0563 13.2065 13.1453C14.05 14.3333 14.9727 15.4857 15.7726 16.7094C16.3191 17.541 16.6715 17.3113 17.1586 16.6896C18.4165 15.1768 19.1119 13.2752 19.1268 11.3079ZM1.89274 11.3911C1.92531 13.3625 2.64045 15.2616 3.91631 16.7648C4.37171 17.3192 4.70831 17.5568 5.20728 16.7648C6.0468 15.5055 6.97345 14.3056 7.86049 13.082C8.58122 12.0959 8.3159 11.498 7.16749 11.1495C6.01908 10.801 4.84692 10.3971 3.69059 10.0209C1.86898 9.44272 1.82938 9.4744 1.88086 11.3871L1.89274 11.3911ZM12.3155 11.1416C12.1571 10.112 11.6265 9.42292 10.5177 9.43084C9.40886 9.43876 8.80298 10.0565 8.74754 11.1455C8.73424 11.3893 8.77265 11.633 8.86025 11.8609C8.94785 12.0887 9.08265 12.2954 9.25581 12.4675C9.42897 12.6395 9.63657 12.773 9.86496 12.8591C10.0934 12.9452 10.3374 12.982 10.581 12.9671C11.6384 12.8681 12.1967 12.2187 12.3036 11.1376L12.3155 11.1416ZM9.3059 13.3513C9.18949 13.2674 9.06475 13.1957 8.93366 13.1374C8.62874 13.0503 8.5139 13.3077 8.37926 13.4938C7.43281 14.7848 6.49033 16.0758 5.55972 17.3786C5.40528 17.5924 5.08848 17.8538 5.43696 18.1112C5.88444 18.4439 6.01116 17.9449 6.1854 17.7152C7.08433 16.5272 7.96345 15.2917 8.84654 14.0759C8.98514 13.8779 9.10394 13.6839 9.3059 13.3513ZM15.8122 18.0082C15.7275 17.8344 15.6337 17.6653 15.5311 17.5014C14.5358 16.1233 13.5365 14.7465 12.5333 13.3711C12.3908 13.177 12.2165 12.9751 11.9433 13.2047C11.67 13.4344 11.8522 13.6443 11.9829 13.8304C12.9755 15.2138 13.9761 16.5906 14.9846 17.9607C15.0915 18.1073 15.2182 18.2894 15.4558 18.1944C15.5783 18.1396 15.6973 18.0775 15.8122 18.0082ZM8.14165 10.2585C8.09017 10.1832 8.05453 10.0605 7.98325 10.0367C6.23292 9.44536 4.48127 8.86588 2.7283 8.29827C2.65831 8.29304 2.5881 8.30511 2.52387 8.33342C2.45964 8.36174 2.40337 8.40543 2.36002 8.46064C2.33242 8.50104 2.31482 8.54742 2.30866 8.59596C2.3025 8.6445 2.30795 8.69381 2.32458 8.73983C2.34121 8.78585 2.36853 8.82725 2.4043 8.86064C2.44006 8.89403 2.48325 8.91845 2.5303 8.93188C4.28063 9.50608 6.03492 10.0724 7.79713 10.6149C8.03869 10.6862 8.11789 10.4723 8.14165 10.2585ZM13.2897 10.6545C15.0123 10.0842 16.7191 9.52588 18.4377 8.95564C18.6238 8.89228 18.7783 8.74972 18.6951 8.51212C18.6802 8.46564 18.6558 8.42276 18.6235 8.3862C18.5912 8.34963 18.5516 8.32018 18.5073 8.2997C18.463 8.27923 18.415 8.26818 18.3662 8.26725C18.3174 8.26632 18.2689 8.27554 18.2239 8.29431C16.5158 8.84872 14.8103 9.41368 13.1075 9.9892C13.0606 10.0021 13.0174 10.026 12.9816 10.059C12.9458 10.092 12.9184 10.1331 12.9017 10.1789C12.885 10.2246 12.8795 10.2737 12.8857 10.322C12.8919 10.3703 12.9096 10.4164 12.9372 10.4565C12.9768 10.5674 13.1511 10.599 13.2818 10.6664L13.2897 10.6545ZM10.185 8.67448H10.8424C10.8424 6.79743 10.8424 4.92037 10.8424 3.04332C10.8424 2.85324 10.7869 2.64732 10.5335 2.64732C10.2801 2.64732 10.1969 2.82948 10.1969 3.0156C10.1811 4.89794 10.1745 6.78555 10.1771 8.67844L10.185 8.67448Z" fill="#949494"/>
</g>
<defs>
<clipPath id="clip0_25_106">
<rect width="21" height="21" fill="white" transform="translate(0 0.683594)"/>
</clipPath>
</defs>
</svg>
